%TF.GenerationSoftware,KiCad,Pcbnew,(6.0.4)*%
%TF.CreationDate,2022-10-11T14:53:10-04:00*%
%TF.ProjectId,Misha_Project,4d697368-615f-4507-926f-6a6563742e6b,rev?*%
%TF.SameCoordinates,Original*%
%TF.FileFunction,Copper,L1,Top*%
%TF.FilePolarity,Positive*%
%FSLAX46Y46*%
G04 Gerber Fmt 4.6, Leading zero omitted, Abs format (unit mm)*
G04 Created by KiCad (PCBNEW (6.0.4)) date 2022-10-11 14:53:10*
%MOMM*%
%LPD*%
G01*
G04 APERTURE LIST*
G04 Aperture macros list*
%AMRoundRect*
0 Rectangle with rounded corners*
0 $1 Rounding radius*
0 $2 $3 $4 $5 $6 $7 $8 $9 X,Y pos of 4 corners*
0 Add a 4 corners polygon primitive as box body*
4,1,4,$2,$3,$4,$5,$6,$7,$8,$9,$2,$3,0*
0 Add four circle primitives for the rounded corners*
1,1,$1+$1,$2,$3*
1,1,$1+$1,$4,$5*
1,1,$1+$1,$6,$7*
1,1,$1+$1,$8,$9*
0 Add four rect primitives between the rounded corners*
20,1,$1+$1,$2,$3,$4,$5,0*
20,1,$1+$1,$4,$5,$6,$7,0*
20,1,$1+$1,$6,$7,$8,$9,0*
20,1,$1+$1,$8,$9,$2,$3,0*%
G04 Aperture macros list end*
%TA.AperFunction,SMDPad,CuDef*%
%ADD10R,1.700000X2.000000*%
%TD*%
%TA.AperFunction,SMDPad,CuDef*%
%ADD11RoundRect,0.088500X0.886500X0.206500X-0.886500X0.206500X-0.886500X-0.206500X0.886500X-0.206500X0*%
%TD*%
%TA.AperFunction,SMDPad,CuDef*%
%ADD12R,2.000000X1.700000*%
%TD*%
%TA.AperFunction,ComponentPad*%
%ADD13O,1.700000X1.700000*%
%TD*%
%TA.AperFunction,ComponentPad*%
%ADD14R,1.700000X1.700000*%
%TD*%
%TA.AperFunction,SMDPad,CuDef*%
%ADD15R,2.500000X1.700000*%
%TD*%
%TA.AperFunction,SMDPad,CuDef*%
%ADD16R,1.700000X2.500000*%
%TD*%
%TA.AperFunction,SMDPad,CuDef*%
%ADD17R,1.500000X2.500000*%
%TD*%
%TA.AperFunction,Conductor*%
%ADD18C,0.406400*%
%TD*%
G04 APERTURE END LIST*
D10*
%TO.P,REF\u002A\u002A,2*%
%TO.N,GND*%
X122174000Y-59912000D03*
%TO.P,REF\u002A\u002A,1*%
X122174000Y-55912000D03*
%TD*%
D11*
%TO.P,U1,1,VDD*%
%TO.N,VCC*%
X102810000Y-65151000D03*
%TO.P,U1,2,PA4*%
%TO.N,Button*%
X102810000Y-63881000D03*
%TO.P,U1,3,PA5*%
%TO.N,unconnected-(U1-Pad3)*%
X102810000Y-62611000D03*
%TO.P,U1,4,PA6*%
%TO.N,unconnected-(U1-Pad4)*%
X102810000Y-61341000D03*
%TO.P,U1,5,PA7*%
%TO.N,unconnected-(U1-Pad5)*%
X102810000Y-60071000D03*
%TO.P,U1,6,PB3/OSC1*%
%TO.N,TX*%
X102810000Y-58801000D03*
%TO.P,U1,7,PB2/OSC2*%
%TO.N,RX*%
X102810000Y-57531000D03*
%TO.P,U1,8,PB1*%
%TO.N,SDA*%
X97850000Y-57531000D03*
%TO.P,U1,9,PB0*%
%TO.N,SCL*%
X97850000Y-58801000D03*
%TO.P,U1,10,PA0/~{RESET}/UDPI*%
%TO.N,UDPI*%
X97850000Y-60071000D03*
%TO.P,U1,11,PA1*%
%TO.N,unconnected-(U1-Pad11)*%
X97850000Y-61341000D03*
%TO.P,U1,12,PA2*%
%TO.N,unconnected-(U1-Pad12)*%
X97850000Y-62611000D03*
%TO.P,U1,13,PA3/EXTCLK*%
%TO.N,unconnected-(U1-Pad13)*%
X97850000Y-63881000D03*
%TO.P,U1,14,GND*%
%TO.N,GND*%
X97850000Y-65151000D03*
%TD*%
D12*
%TO.P,R3,1*%
%TO.N,Button*%
X93472000Y-68834000D03*
%TO.P,R3,2*%
X97472000Y-68834000D03*
%TD*%
%TO.P,C1,1*%
%TO.N,VCC*%
X102584000Y-72644000D03*
%TO.P,C1,2*%
%TO.N,GND*%
X98584000Y-72644000D03*
%TD*%
D13*
%TO.P,J1,4,Pin_4*%
%TO.N,SDA*%
X119009000Y-51181000D03*
%TO.P,J1,3,Pin_3*%
%TO.N,SCL*%
X116469000Y-51181000D03*
%TO.P,J1,2,Pin_2*%
%TO.N,GND*%
X113929000Y-51181000D03*
D14*
%TO.P,J1,1,Pin_1*%
%TO.N,VCC*%
X111389000Y-51181000D03*
%TD*%
D15*
%TO.P,J3,1*%
%TO.N,GND*%
X128510000Y-59944000D03*
%TO.P,J3,2*%
%TO.N,unconnected-(J3-Pad2)*%
X128510000Y-62484000D03*
%TO.P,J3,3*%
%TO.N,VCC*%
X128510000Y-65024000D03*
%TO.P,J3,4*%
%TO.N,RX*%
X128510000Y-67564000D03*
%TO.P,J3,5*%
%TO.N,TX*%
X128510000Y-70104000D03*
%TO.P,J3,6*%
%TO.N,unconnected-(J3-Pad6)*%
X128510000Y-72644000D03*
%TD*%
D16*
%TO.P,J2,1,Pin_1*%
%TO.N,UDPI*%
X112405000Y-80758000D03*
%TO.P,J2,2,Pin_2*%
%TO.N,GND*%
X109865000Y-80758000D03*
%TO.P,J2,3,Pin_3*%
%TO.N,VCC*%
X107325000Y-80758000D03*
%TD*%
D17*
%TO.P,SW1,1,1*%
%TO.N,Button*%
X87852000Y-49967000D03*
X87852000Y-56967000D03*
%TO.P,SW1,2,2*%
%TO.N,GND*%
X83852000Y-56967000D03*
X83852000Y-49967000D03*
%TD*%
D10*
%TO.P,R2,1*%
%TO.N,VCC*%
X110617000Y-60928000D03*
%TO.P,R2,2*%
%TO.N,SCL*%
X110617000Y-56928000D03*
%TD*%
%TO.P,R1,1*%
%TO.N,VCC*%
X113665000Y-60928000D03*
%TO.P,R1,2*%
%TO.N,SDA*%
X113665000Y-56928000D03*
%TD*%
D18*
%TO.N,VCC*%
X130556000Y-73916222D02*
X130556000Y-65413600D01*
X130177222Y-74295000D02*
X130556000Y-73916222D01*
X112131600Y-74295000D02*
X130177222Y-74295000D01*
X107325000Y-79101600D02*
X112131600Y-74295000D01*
X107325000Y-80758000D02*
X107325000Y-79101600D01*
X130556000Y-65413600D02*
X130166400Y-65024000D01*
X116808000Y-57785000D02*
X116379500Y-58213500D01*
X130683000Y-64507400D02*
X130683000Y-58801000D01*
X130683000Y-58801000D02*
X129667000Y-57785000D01*
X130166400Y-65024000D02*
X130683000Y-64507400D01*
X129667000Y-57785000D02*
X116808000Y-57785000D01*
%TO.N,Button*%
X93472000Y-60833000D02*
X89606000Y-56967000D01*
X89606000Y-56967000D02*
X87852000Y-56967000D01*
X93472000Y-68834000D02*
X93472000Y-60833000D01*
%TO.N,SCL*%
X116469000Y-53203000D02*
X116469000Y-51181000D01*
X114353111Y-55318889D02*
X116469000Y-53203000D01*
X112226111Y-55318889D02*
X114353111Y-55318889D01*
X110617000Y-56928000D02*
X112226111Y-55318889D01*
%TO.N,SDA*%
X119009000Y-52441000D02*
X119009000Y-51181000D01*
X114522000Y-56928000D02*
X119009000Y-52441000D01*
X113665000Y-56928000D02*
X114522000Y-56928000D01*
%TO.N,VCC*%
X113929000Y-48641000D02*
X111389000Y-51181000D01*
X120904000Y-48641000D02*
X113929000Y-48641000D01*
X120904000Y-48641000D02*
X122174000Y-49911000D01*
X122174000Y-52419000D02*
X116379500Y-58213500D01*
X122174000Y-49911000D02*
X122174000Y-52419000D01*
%TO.N,SCL*%
X98171000Y-53848000D02*
X104140000Y-53848000D01*
X107220000Y-56928000D02*
X110617000Y-56928000D01*
X96139000Y-58420000D02*
X96139000Y-55880000D01*
X96520000Y-58801000D02*
X96139000Y-58420000D01*
X97850000Y-58801000D02*
X96520000Y-58801000D01*
X96139000Y-55880000D02*
X98171000Y-53848000D01*
X104140000Y-53848000D02*
X107220000Y-56928000D01*
%TO.N,SDA*%
X112055889Y-58537111D02*
X113665000Y-56928000D01*
X107305111Y-58537111D02*
X112055889Y-58537111D01*
X98933000Y-54991000D02*
X103759000Y-54991000D01*
X97850000Y-56074000D02*
X98933000Y-54991000D01*
X97850000Y-57531000D02*
X97850000Y-56074000D01*
X103759000Y-54991000D02*
X107305111Y-58537111D01*
%TO.N,VCC*%
X116379500Y-58213500D02*
X113665000Y-60928000D01*
%TO.N,RX*%
X105206440Y-61639646D02*
X105206440Y-59117857D01*
X111130794Y-67564000D02*
X105206440Y-61639646D01*
X105206440Y-59117857D02*
X103619583Y-57531000D01*
X128510000Y-67564000D02*
X111130794Y-67564000D01*
X103619583Y-57531000D02*
X102810000Y-57531000D01*
%TO.N,TX*%
X103619583Y-58801000D02*
X102810000Y-58801000D01*
X104394120Y-61976120D02*
X104394120Y-59575537D01*
X112522000Y-70104000D02*
X104394120Y-61976120D01*
X104394120Y-59575537D02*
X103619583Y-58801000D01*
X128510000Y-70104000D02*
X112522000Y-70104000D01*
%TO.N,Button*%
X101225880Y-64655537D02*
X101225880Y-67176120D01*
X101225880Y-67176120D02*
X99568000Y-68834000D01*
X102000417Y-63881000D02*
X101225880Y-64655537D01*
X102810000Y-63881000D02*
X102000417Y-63881000D01*
X99568000Y-68834000D02*
X97472000Y-68834000D01*
%TO.N,UDPI*%
X105156000Y-83566000D02*
X110375222Y-83566000D01*
X95862889Y-74272889D02*
X105156000Y-83566000D01*
X95862889Y-61248528D02*
X95862889Y-74272889D01*
X97040417Y-60071000D02*
X95862889Y-61248528D01*
X97850000Y-60071000D02*
X97040417Y-60071000D01*
X110375222Y-83566000D02*
X112405000Y-81536222D01*
%TO.N,VCC*%
X102457000Y-75890000D02*
X107325000Y-80758000D01*
X110617000Y-60928000D02*
X110617000Y-61055000D01*
X102457000Y-65504000D02*
X102457000Y-69215000D01*
X102457000Y-69215000D02*
X102457000Y-75890000D01*
X130166400Y-65024000D02*
X128510000Y-65024000D01*
X110617000Y-60928000D02*
X113665000Y-60928000D01*
X102810000Y-65151000D02*
X102457000Y-65504000D01*
%TD*%
%TA.AperFunction,Conductor*%
%TO.N,GND*%
G36*
X110088642Y-47897930D02*
G01*
X113341532Y-47915827D01*
X113409540Y-47936203D01*
X113455737Y-47990114D01*
X113465454Y-48060443D01*
X113434914Y-48125643D01*
X113413246Y-48149963D01*
X113408264Y-48155240D01*
X111777909Y-49785595D01*
X111715597Y-49819621D01*
X111688814Y-49822500D01*
X110490866Y-49822500D01*
X110428684Y-49829255D01*
X110292295Y-49880385D01*
X110175739Y-49967739D01*
X110088385Y-50084295D01*
X110037255Y-50220684D01*
X110030500Y-50282866D01*
X110030500Y-52079134D01*
X110037255Y-52141316D01*
X110088385Y-52277705D01*
X110175739Y-52394261D01*
X110292295Y-52481615D01*
X110428684Y-52532745D01*
X110490866Y-52539500D01*
X112287134Y-52539500D01*
X112349316Y-52532745D01*
X112485705Y-52481615D01*
X112602261Y-52394261D01*
X112689615Y-52277705D01*
X112733798Y-52159848D01*
X112776440Y-52103084D01*
X112843001Y-52078384D01*
X112912350Y-52093592D01*
X112947017Y-52121580D01*
X112972218Y-52150673D01*
X112979580Y-52157883D01*
X113143434Y-52293916D01*
X113151881Y-52299831D01*
X113335756Y-52407279D01*
X113345042Y-52411729D01*
X113544001Y-52487703D01*
X113553899Y-52490579D01*
X113657250Y-52511606D01*
X113671299Y-52510410D01*
X113675000Y-52500065D01*
X113675000Y-51053000D01*
X113695002Y-50984879D01*
X113748658Y-50938386D01*
X113801000Y-50927000D01*
X114057000Y-50927000D01*
X114125121Y-50947002D01*
X114171614Y-51000658D01*
X114183000Y-51053000D01*
X114183000Y-52499517D01*
X114187064Y-52513359D01*
X114200478Y-52515393D01*
X114207184Y-52514534D01*
X114217262Y-52512392D01*
X114421255Y-52451191D01*
X114430842Y-52447433D01*
X114622095Y-52353739D01*
X114630945Y-52348464D01*
X114804328Y-52224792D01*
X114812200Y-52218139D01*
X114963052Y-52067812D01*
X114969730Y-52059965D01*
X115097022Y-51882819D01*
X115098279Y-51883722D01*
X115145373Y-51840362D01*
X115215311Y-51828145D01*
X115280751Y-51855678D01*
X115308579Y-51887511D01*
X115368987Y-51986088D01*
X115515250Y-52154938D01*
X115687126Y-52297632D01*
X115691593Y-52300242D01*
X115694868Y-52302156D01*
X115743593Y-52353793D01*
X115757300Y-52410945D01*
X115757300Y-52856015D01*
X115737298Y-52924136D01*
X115720395Y-52945110D01*
X114095220Y-54570284D01*
X114032908Y-54604310D01*
X114006125Y-54607189D01*
X112255141Y-54607189D01*
X112246571Y-54606897D01*
X112196165Y-54603460D01*
X112196161Y-54603460D01*
X112188590Y-54602944D01*
X112181114Y-54604249D01*
X112181111Y-54604249D01*
X112125328Y-54613985D01*
X112118803Y-54614948D01*
X112062644Y-54621744D01*
X112062643Y-54621744D01*
X112055100Y-54622657D01*
X112047992Y-54625343D01*
X112045692Y-54625908D01*
X112028631Y-54630575D01*
X112026377Y-54631256D01*
X112018896Y-54632561D01*
X112011944Y-54635613D01*
X112011940Y-54635614D01*
X111960114Y-54658365D01*
X111954010Y-54660856D01*
X111893962Y-54683546D01*
X111887706Y-54687846D01*
X111885622Y-54688935D01*
X111870159Y-54697542D01*
X111868123Y-54698746D01*
X111861166Y-54701800D01*
X111810215Y-54740896D01*
X111804907Y-54744752D01*
X111758260Y-54776810D01*
X111758255Y-54776815D01*
X111751999Y-54781114D01*
X111746947Y-54786784D01*
X111746946Y-54786785D01*
X111710356Y-54827853D01*
X111705375Y-54833129D01*
X111155909Y-55382595D01*
X111093597Y-55416621D01*
X111066814Y-55419500D01*
X109718866Y-55419500D01*
X109656684Y-55426255D01*
X109520295Y-55477385D01*
X109403739Y-55564739D01*
X109316385Y-55681295D01*
X109265255Y-55817684D01*
X109258500Y-55879866D01*
X109258500Y-56090300D01*
X109238498Y-56158421D01*
X109184842Y-56204914D01*
X109132500Y-56216300D01*
X107566986Y-56216300D01*
X107498865Y-56196298D01*
X107477891Y-56179395D01*
X104663780Y-53365284D01*
X104657926Y-53359018D01*
X104624710Y-53320941D01*
X104624708Y-53320939D01*
X104619718Y-53315219D01*
X104567199Y-53278309D01*
X104561902Y-53274375D01*
X104517366Y-53239454D01*
X104517360Y-53239450D01*
X104511387Y-53234767D01*
X104504466Y-53231642D01*
X104502461Y-53230428D01*
X104487088Y-53221659D01*
X104485004Y-53220541D01*
X104478784Y-53216170D01*
X104471705Y-53213410D01*
X104471703Y-53213409D01*
X104418976Y-53192852D01*
X104412903Y-53190300D01*
X104354391Y-53163880D01*
X104346923Y-53162496D01*
X104344664Y-53161788D01*
X104327682Y-53156951D01*
X104325373Y-53156358D01*
X104318292Y-53153597D01*
X104310763Y-53152606D01*
X104310760Y-53152605D01*
X104254644Y-53145217D01*
X104248130Y-53144185D01*
X104192485Y-53133872D01*
X104192484Y-53133872D01*
X104185017Y-53132488D01*
X104177437Y-53132925D01*
X104177436Y-53132925D01*
X104122530Y-53136091D01*
X104115277Y-53136300D01*
X98200030Y-53136300D01*
X98191460Y-53136008D01*
X98141054Y-53132571D01*
X98141050Y-53132571D01*
X98133479Y-53132055D01*
X98126003Y-53133360D01*
X98126000Y-53133360D01*
X98070217Y-53143096D01*
X98063692Y-53144059D01*
X98007533Y-53150855D01*
X98007532Y-53150855D01*
X97999989Y-53151768D01*
X97992881Y-53154454D01*
X97990581Y-53155019D01*
X97973520Y-53159686D01*
X97971266Y-53160366D01*
X97963785Y-53161672D01*
X97904995Y-53187479D01*
X97898898Y-53189967D01*
X97845953Y-53209973D01*
X97845950Y-53209974D01*
X97838851Y-53212657D01*
X97832596Y-53216956D01*
X97830505Y-53218049D01*
X97815043Y-53226655D01*
X97813009Y-53227858D01*
X97806054Y-53230911D01*
X97800029Y-53235534D01*
X97800024Y-53235537D01*
X97755126Y-53269988D01*
X97749791Y-53273864D01*
X97703153Y-53305918D01*
X97703147Y-53305923D01*
X97696888Y-53310225D01*
X97655217Y-53356996D01*
X97650259Y-53362246D01*
X95656284Y-55356220D01*
X95650019Y-55362073D01*
X95606219Y-55400282D01*
X95586016Y-55429029D01*
X95569309Y-55452801D01*
X95565375Y-55458098D01*
X95530454Y-55502634D01*
X95530450Y-55502640D01*
X95525767Y-55508613D01*
X95522642Y-55515534D01*
X95521428Y-55517539D01*
X95512659Y-55532912D01*
X95511541Y-55534996D01*
X95507170Y-55541216D01*
X95504410Y-55548295D01*
X95504409Y-55548297D01*
X95483852Y-55601024D01*
X95481300Y-55607097D01*
X95454880Y-55665609D01*
X95453496Y-55673077D01*
X95452788Y-55675336D01*
X95447951Y-55692318D01*
X95447358Y-55694627D01*
X95444597Y-55701708D01*
X95443606Y-55709237D01*
X95443605Y-55709240D01*
X95436217Y-55765356D01*
X95435185Y-55771870D01*
X95426694Y-55817684D01*
X95423488Y-55834983D01*
X95423925Y-55842563D01*
X95423925Y-55842564D01*
X95427091Y-55897470D01*
X95427300Y-55904723D01*
X95427300Y-58390970D01*
X95427008Y-58399540D01*
X95423906Y-58445043D01*
X95423055Y-58457521D01*
X95424360Y-58464997D01*
X95424360Y-58465000D01*
X95434096Y-58520783D01*
X95435059Y-58527308D01*
X95438456Y-58555376D01*
X95442768Y-58591011D01*
X95445454Y-58598119D01*
X95446019Y-58600419D01*
X95450686Y-58617480D01*
X95451366Y-58619734D01*
X95452672Y-58627215D01*
X95470407Y-58667615D01*
X95478475Y-58685995D01*
X95480967Y-58692102D01*
X95498415Y-58738276D01*
X95503657Y-58752149D01*
X95507956Y-58758404D01*
X95509049Y-58760495D01*
X95517655Y-58775957D01*
X95518858Y-58777991D01*
X95521911Y-58784946D01*
X95526534Y-58790971D01*
X95526537Y-58790976D01*
X95560988Y-58835874D01*
X95564864Y-58841209D01*
X95596918Y-58887847D01*
X95596923Y-58887853D01*
X95601225Y-58894112D01*
X95606899Y-58899167D01*
X95647963Y-58935754D01*
X95653240Y-58940735D01*
X95996226Y-59283722D01*
X96002079Y-59289988D01*
X96040282Y-59333781D01*
X96046500Y-59338151D01*
X96092793Y-59370686D01*
X96098089Y-59374619D01*
X96142631Y-59409544D01*
X96142635Y-59409546D01*
X96148612Y-59414233D01*
X96155534Y-59417358D01*
X96157563Y-59418587D01*
X96172910Y-59427340D01*
X96174998Y-59428459D01*
X96181216Y-59432830D01*
X96188295Y-59435590D01*
X96188297Y-59435591D01*
X96196310Y-59438715D01*
X96241019Y-59456146D01*
X96247095Y-59458700D01*
X96288478Y-59477385D01*
X96305609Y-59485120D01*
X96313080Y-59486504D01*
X96320328Y-59488776D01*
X96319632Y-59490997D01*
X96372760Y-59517908D01*
X96408698Y-59579137D01*
X96405827Y-59650075D01*
X96402874Y-59657936D01*
X96397096Y-59671885D01*
X96381867Y-59708652D01*
X96379151Y-59707527D01*
X96354247Y-59750675D01*
X95380158Y-60724763D01*
X95373908Y-60730601D01*
X95330108Y-60768810D01*
X95311365Y-60795479D01*
X95293198Y-60821329D01*
X95289264Y-60826626D01*
X95254343Y-60871162D01*
X95254339Y-60871168D01*
X95249656Y-60877141D01*
X95246531Y-60884062D01*
X95245317Y-60886067D01*
X95236548Y-60901440D01*
X95235430Y-60903524D01*
X95231059Y-60909744D01*
X95228299Y-60916823D01*
X95228298Y-60916825D01*
X95207741Y-60969552D01*
X95205189Y-60975625D01*
X95178769Y-61034137D01*
X95177385Y-61041605D01*
X95176677Y-61043864D01*
X95171840Y-61060846D01*
X95171247Y-61063155D01*
X95168486Y-61070236D01*
X95167495Y-61077765D01*
X95167494Y-61077768D01*
X95160106Y-61133884D01*
X95159074Y-61140398D01*
X95156701Y-61153203D01*
X95147377Y-61203511D01*
X95147814Y-61211091D01*
X95147814Y-61211092D01*
X95150980Y-61265998D01*
X95151189Y-61273251D01*
X95151189Y-67664923D01*
X95131187Y-67733044D01*
X95077531Y-67779537D01*
X95007257Y-67789641D01*
X94942677Y-67760147D01*
X94923628Y-67736536D01*
X94922615Y-67737295D01*
X94840642Y-67627919D01*
X94835261Y-67620739D01*
X94718705Y-67533385D01*
X94582316Y-67482255D01*
X94520134Y-67475500D01*
X94309700Y-67475500D01*
X94241579Y-67455498D01*
X94195086Y-67401842D01*
X94183700Y-67349500D01*
X94183700Y-60862030D01*
X94183992Y-60853460D01*
X94187429Y-60803054D01*
X94187429Y-60803050D01*
X94187945Y-60795479D01*
X94186640Y-60788000D01*
X94176904Y-60732217D01*
X94175941Y-60725692D01*
X94169145Y-60669533D01*
X94169145Y-60669532D01*
X94168232Y-60661989D01*
X94165546Y-60654881D01*
X94164981Y-60652581D01*
X94160314Y-60635520D01*
X94159633Y-60633266D01*
X94158328Y-60625785D01*
X94155276Y-60618833D01*
X94155275Y-60618829D01*
X94134255Y-60570946D01*
X94132522Y-60566998D01*
X94130031Y-60560894D01*
X94107343Y-60500851D01*
X94103043Y-60494595D01*
X94101954Y-60492511D01*
X94093347Y-60477048D01*
X94092143Y-60475012D01*
X94089089Y-60468055D01*
X94049993Y-60417104D01*
X94046137Y-60411796D01*
X94014079Y-60365149D01*
X94014074Y-60365144D01*
X94009775Y-60358888D01*
X93963035Y-60317244D01*
X93957760Y-60312264D01*
X90129780Y-56484284D01*
X90123926Y-56478018D01*
X90090710Y-56439941D01*
X90090708Y-56439939D01*
X90085718Y-56434219D01*
X90033199Y-56397309D01*
X90027902Y-56393375D01*
X89983366Y-56358454D01*
X89983360Y-56358450D01*
X89977387Y-56353767D01*
X89970466Y-56350642D01*
X89968461Y-56349428D01*
X89953088Y-56340659D01*
X89951004Y-56339541D01*
X89944784Y-56335170D01*
X89937705Y-56332410D01*
X89937703Y-56332409D01*
X89884976Y-56311852D01*
X89878903Y-56309300D01*
X89820391Y-56282880D01*
X89812923Y-56281496D01*
X89810664Y-56280788D01*
X89793682Y-56275951D01*
X89791373Y-56275358D01*
X89784292Y-56272597D01*
X89776763Y-56271606D01*
X89776760Y-56271605D01*
X89720644Y-56264217D01*
X89714130Y-56263185D01*
X89658485Y-56252872D01*
X89658484Y-56252872D01*
X89651017Y-56251488D01*
X89643437Y-56251925D01*
X89643436Y-56251925D01*
X89588530Y-56255091D01*
X89581277Y-56255300D01*
X89236500Y-56255300D01*
X89168379Y-56235298D01*
X89121886Y-56181642D01*
X89110500Y-56129300D01*
X89110500Y-55668866D01*
X89103745Y-55606684D01*
X89052615Y-55470295D01*
X88965261Y-55353739D01*
X88848705Y-55266385D01*
X88712316Y-55215255D01*
X88650134Y-55208500D01*
X87053866Y-55208500D01*
X86991684Y-55215255D01*
X86855295Y-55266385D01*
X86738739Y-55353739D01*
X86651385Y-55470295D01*
X86600255Y-55606684D01*
X86593500Y-55668866D01*
X86593500Y-58265134D01*
X86600255Y-58327316D01*
X86651385Y-58463705D01*
X86738739Y-58580261D01*
X86855295Y-58667615D01*
X86991684Y-58718745D01*
X87053866Y-58725500D01*
X88650134Y-58725500D01*
X88712316Y-58718745D01*
X88848705Y-58667615D01*
X88965261Y-58580261D01*
X89052615Y-58463705D01*
X89103745Y-58327316D01*
X89110500Y-58265134D01*
X89110500Y-57804700D01*
X89130502Y-57736579D01*
X89184158Y-57690086D01*
X89236500Y-57678700D01*
X89259015Y-57678700D01*
X89327136Y-57698702D01*
X89348110Y-57715605D01*
X92723395Y-61090891D01*
X92757421Y-61153203D01*
X92760300Y-61179986D01*
X92760300Y-67349500D01*
X92740298Y-67417621D01*
X92686642Y-67464114D01*
X92634300Y-67475500D01*
X92423866Y-67475500D01*
X92361684Y-67482255D01*
X92225295Y-67533385D01*
X92108739Y-67620739D01*
X92021385Y-67737295D01*
X91970255Y-67873684D01*
X91963500Y-67935866D01*
X91963500Y-69732134D01*
X91970255Y-69794316D01*
X92021385Y-69930705D01*
X92108739Y-70047261D01*
X92225295Y-70134615D01*
X92361684Y-70185745D01*
X92423866Y-70192500D01*
X94520134Y-70192500D01*
X94582316Y-70185745D01*
X94718705Y-70134615D01*
X94835261Y-70047261D01*
X94922615Y-69930705D01*
X94924868Y-69932393D01*
X94964923Y-69892424D01*
X95034314Y-69877408D01*
X95100807Y-69902291D01*
X95143292Y-69959172D01*
X95151189Y-70003077D01*
X95151189Y-74243859D01*
X95150897Y-74252429D01*
X95148499Y-74287609D01*
X95146944Y-74310410D01*
X95148249Y-74317886D01*
X95148249Y-74317889D01*
X95157985Y-74373672D01*
X95158948Y-74380197D01*
X95166657Y-74443900D01*
X95169343Y-74451008D01*
X95169908Y-74453308D01*
X95174575Y-74470369D01*
X95175255Y-74472623D01*
X95176561Y-74480104D01*
X95179613Y-74487056D01*
X95202364Y-74538884D01*
X95204856Y-74544991D01*
X95227546Y-74605038D01*
X95231845Y-74611293D01*
X95232938Y-74613384D01*
X95241544Y-74628846D01*
X95242747Y-74630880D01*
X95245800Y-74637835D01*
X95250423Y-74643860D01*
X95250426Y-74643865D01*
X95284877Y-74688763D01*
X95288753Y-74694098D01*
X95320807Y-74740736D01*
X95320812Y-74740742D01*
X95325114Y-74747001D01*
X95330788Y-74752056D01*
X95371862Y-74788652D01*
X95377138Y-74793633D01*
X104632220Y-84048716D01*
X104638073Y-84054981D01*
X104676282Y-84098781D01*
X104682493Y-84103146D01*
X104682494Y-84103147D01*
X104728807Y-84135695D01*
X104734099Y-84139626D01*
X104784613Y-84179234D01*
X104791540Y-84182362D01*
X104793535Y-84183570D01*
X104808930Y-84192351D01*
X104810996Y-84193459D01*
X104817216Y-84197830D01*
X104824296Y-84200590D01*
X104824301Y-84200593D01*
X104877030Y-84221151D01*
X104883112Y-84223707D01*
X104941610Y-84250120D01*
X104949078Y-84251504D01*
X104951337Y-84252212D01*
X104968366Y-84257062D01*
X104970630Y-84257643D01*
X104977708Y-84260403D01*
X105041379Y-84268786D01*
X105047854Y-84269812D01*
X105110984Y-84281512D01*
X105118564Y-84281075D01*
X105118565Y-84281075D01*
X105173477Y-84277909D01*
X105180729Y-84277700D01*
X110346192Y-84277700D01*
X110354762Y-84277992D01*
X110405168Y-84281429D01*
X110405172Y-84281429D01*
X110412743Y-84281945D01*
X110420219Y-84280640D01*
X110420222Y-84280640D01*
X110476005Y-84270904D01*
X110482530Y-84269941D01*
X110538689Y-84263145D01*
X110538690Y-84263145D01*
X110546233Y-84262232D01*
X110553341Y-84259546D01*
X110555641Y-84258981D01*
X110572702Y-84254314D01*
X110574956Y-84253634D01*
X110582437Y-84252328D01*
X110641227Y-84226521D01*
X110647324Y-84224033D01*
X110700269Y-84204027D01*
X110700272Y-84204026D01*
X110707371Y-84201343D01*
X110713626Y-84197044D01*
X110715717Y-84195951D01*
X110731179Y-84187345D01*
X110733213Y-84186142D01*
X110740168Y-84183089D01*
X110746193Y-84178466D01*
X110746198Y-84178463D01*
X110791096Y-84144012D01*
X110796431Y-84140136D01*
X110843069Y-84108082D01*
X110843075Y-84108077D01*
X110849334Y-84103775D01*
X110890986Y-84057026D01*
X110895966Y-84051751D01*
X112394313Y-82553405D01*
X112456625Y-82519379D01*
X112483408Y-82516500D01*
X113303134Y-82516500D01*
X113365316Y-82509745D01*
X113501705Y-82458615D01*
X113618261Y-82371261D01*
X113705615Y-82254705D01*
X113756745Y-82118316D01*
X113763500Y-82056134D01*
X113763500Y-79459866D01*
X113756745Y-79397684D01*
X113705615Y-79261295D01*
X113618261Y-79144739D01*
X113501705Y-79057385D01*
X113365316Y-79006255D01*
X113303134Y-78999500D01*
X111506866Y-78999500D01*
X111444684Y-79006255D01*
X111308295Y-79057385D01*
X111294165Y-79067975D01*
X111210148Y-79130942D01*
X111143642Y-79155790D01*
X111074259Y-79140737D01*
X111059018Y-79130942D01*
X110968649Y-79063214D01*
X110953054Y-79054676D01*
X110832606Y-79009522D01*
X110817351Y-79005895D01*
X110766486Y-79000369D01*
X110759672Y-79000000D01*
X110137115Y-79000000D01*
X110121876Y-79004475D01*
X110120671Y-79005865D01*
X110119000Y-79013548D01*
X110119000Y-82497884D01*
X110123475Y-82513123D01*
X110124867Y-82514329D01*
X110142118Y-82518082D01*
X110204430Y-82552107D01*
X110238455Y-82614419D01*
X110233390Y-82685235D01*
X110204429Y-82730297D01*
X110117331Y-82817395D01*
X110055019Y-82851421D01*
X110028236Y-82854300D01*
X105502986Y-82854300D01*
X105434865Y-82834298D01*
X105413891Y-82817395D01*
X96611494Y-74014998D01*
X96577468Y-73952686D01*
X96574589Y-73925903D01*
X96574589Y-73538669D01*
X97076001Y-73538669D01*
X97076371Y-73545490D01*
X97081895Y-73596352D01*
X97085521Y-73611604D01*
X97130676Y-73732054D01*
X97139214Y-73747649D01*
X97215715Y-73849724D01*
X97228276Y-73862285D01*
X97330351Y-73938786D01*
X97345946Y-73947324D01*
X97466394Y-73992478D01*
X97481649Y-73996105D01*
X97532514Y-74001631D01*
X97539328Y-74002000D01*
X98311885Y-74002000D01*
X98327124Y-73997525D01*
X98328329Y-73996135D01*
X98330000Y-73988452D01*
X98330000Y-73983884D01*
X98838000Y-73983884D01*
X98842475Y-73999123D01*
X98843865Y-74000328D01*
X98851548Y-74001999D01*
X99628669Y-74001999D01*
X99635490Y-74001629D01*
X99686352Y-73996105D01*
X99701604Y-73992479D01*
X99822054Y-73947324D01*
X99837649Y-73938786D01*
X99939724Y-73862285D01*
X99952285Y-73849724D01*
X100028786Y-73747649D01*
X100037324Y-73732054D01*
X100082478Y-73611606D01*
X100086105Y-73596351D01*
X100091631Y-73545486D01*
X100092000Y-73538672D01*
X100092000Y-72916115D01*
X100087525Y-72900876D01*
X100086135Y-72899671D01*
X100078452Y-72898000D01*
X98856115Y-72898000D01*
X98840876Y-72902475D01*
X98839671Y-72903865D01*
X98838000Y-72911548D01*
X98838000Y-73983884D01*
X98330000Y-73983884D01*
X98330000Y-72916115D01*
X98325525Y-72900876D01*
X98324135Y-72899671D01*
X98316452Y-72898000D01*
X97094116Y-72898000D01*
X97078877Y-72902475D01*
X97077672Y-72903865D01*
X97076001Y-72911548D01*
X97076001Y-73538669D01*
X96574589Y-73538669D01*
X96574589Y-72371885D01*
X97076000Y-72371885D01*
X97080475Y-72387124D01*
X97081865Y-72388329D01*
X97089548Y-72390000D01*
X98311885Y-72390000D01*
X98327124Y-72385525D01*
X98328329Y-72384135D01*
X98330000Y-72376452D01*
X98330000Y-72371885D01*
X98838000Y-72371885D01*
X98842475Y-72387124D01*
X98843865Y-72388329D01*
X98851548Y-72390000D01*
X100073884Y-72390000D01*
X100089123Y-72385525D01*
X100090328Y-72384135D01*
X100091999Y-72376452D01*
X100091999Y-71749331D01*
X100091629Y-71742510D01*
X100086105Y-71691648D01*
X100082479Y-71676396D01*
X100037324Y-71555946D01*
X100028786Y-71540351D01*
X99952285Y-71438276D01*
X99939724Y-71425715D01*
X99837649Y-71349214D01*
X99822054Y-71340676D01*
X99701606Y-71295522D01*
X99686351Y-71291895D01*
X99635486Y-71286369D01*
X99628672Y-71286000D01*
X98856115Y-71286000D01*
X98840876Y-71290475D01*
X98839671Y-71291865D01*
X98838000Y-71299548D01*
X98838000Y-72371885D01*
X98330000Y-72371885D01*
X98330000Y-71304116D01*
X98325525Y-71288877D01*
X98324135Y-71287672D01*
X98316452Y-71286001D01*
X97539331Y-71286001D01*
X97532510Y-71286371D01*
X97481648Y-71291895D01*
X97466396Y-71295521D01*
X97345946Y-71340676D01*
X97330351Y-71349214D01*
X97228276Y-71425715D01*
X97215715Y-71438276D01*
X97139214Y-71540351D01*
X97130676Y-71555946D01*
X97085522Y-71676394D01*
X97081895Y-71691649D01*
X97076369Y-71742514D01*
X97076000Y-71749328D01*
X97076000Y-72371885D01*
X96574589Y-72371885D01*
X96574589Y-70318500D01*
X96594591Y-70250379D01*
X96648247Y-70203886D01*
X96700589Y-70192500D01*
X98520134Y-70192500D01*
X98582316Y-70185745D01*
X98718705Y-70134615D01*
X98835261Y-70047261D01*
X98922615Y-69930705D01*
X98973745Y-69794316D01*
X98980500Y-69732134D01*
X98980500Y-69671700D01*
X99000502Y-69603579D01*
X99054158Y-69557086D01*
X99106500Y-69545700D01*
X99538970Y-69545700D01*
X99547540Y-69545992D01*
X99597946Y-69549429D01*
X99597950Y-69549429D01*
X99605521Y-69549945D01*
X99612997Y-69548640D01*
X99613000Y-69548640D01*
X99668783Y-69538904D01*
X99675308Y-69537941D01*
X99731467Y-69531145D01*
X99731468Y-69531145D01*
X99739011Y-69530232D01*
X99746119Y-69527546D01*
X99748419Y-69526981D01*
X99765480Y-69522314D01*
X99767734Y-69521634D01*
X99775215Y-69520328D01*
X99834005Y-69494521D01*
X99840102Y-69492033D01*
X99893047Y-69472027D01*
X99893050Y-69472026D01*
X99900149Y-69469343D01*
X99906404Y-69465044D01*
X99908495Y-69463951D01*
X99923957Y-69455345D01*
X99925991Y-69454142D01*
X99932946Y-69451089D01*
X99938971Y-69446466D01*
X99938976Y-69446463D01*
X99983874Y-69412012D01*
X99989209Y-69408136D01*
X100035847Y-69376082D01*
X100035853Y-69376077D01*
X100042112Y-69371775D01*
X100083764Y-69325026D01*
X100088744Y-69319751D01*
X101530205Y-67878291D01*
X101592517Y-67844265D01*
X101663333Y-67849330D01*
X101720168Y-67891877D01*
X101744979Y-67958397D01*
X101745300Y-67967386D01*
X101745300Y-71159500D01*
X101725298Y-71227621D01*
X101671642Y-71274114D01*
X101619300Y-71285500D01*
X101535866Y-71285500D01*
X101473684Y-71292255D01*
X101337295Y-71343385D01*
X101220739Y-71430739D01*
X101133385Y-71547295D01*
X101082255Y-71683684D01*
X101075500Y-71745866D01*
X101075500Y-73542134D01*
X101082255Y-73604316D01*
X101133385Y-73740705D01*
X101220739Y-73857261D01*
X101337295Y-73944615D01*
X101473684Y-73995745D01*
X101535866Y-74002500D01*
X101619300Y-74002500D01*
X101687421Y-74022502D01*
X101733914Y-74076158D01*
X101745300Y-74128500D01*
X101745300Y-75860970D01*
X101745008Y-75869540D01*
X101741055Y-75927521D01*
X101742360Y-75934997D01*
X101742360Y-75935000D01*
X101752096Y-75990783D01*
X101753059Y-75997308D01*
X101760768Y-76061011D01*
X101763454Y-76068119D01*
X101764019Y-76070419D01*
X101768686Y-76087480D01*
X101769366Y-76089734D01*
X101770672Y-76097215D01*
X101773724Y-76104167D01*
X101796475Y-76155995D01*
X101798967Y-76162102D01*
X101821657Y-76222149D01*
X101825956Y-76228404D01*
X101827049Y-76230495D01*
X101835655Y-76245957D01*
X101836858Y-76247991D01*
X101839911Y-76254946D01*
X101844534Y-76260971D01*
X101844537Y-76260976D01*
X101878988Y-76305874D01*
X101882864Y-76311209D01*
X101914918Y-76357847D01*
X101914923Y-76357853D01*
X101919225Y-76364112D01*
X101924899Y-76369167D01*
X101965973Y-76405763D01*
X101971249Y-76410744D01*
X105929595Y-80369091D01*
X105963621Y-80431403D01*
X105966500Y-80458186D01*
X105966500Y-82056134D01*
X105973255Y-82118316D01*
X106024385Y-82254705D01*
X106111739Y-82371261D01*
X106228295Y-82458615D01*
X106364684Y-82509745D01*
X106426866Y-82516500D01*
X108223134Y-82516500D01*
X108285316Y-82509745D01*
X108421705Y-82458615D01*
X108519851Y-82385058D01*
X108586358Y-82360210D01*
X108655741Y-82375263D01*
X108670982Y-82385058D01*
X108761351Y-82452786D01*
X108776946Y-82461324D01*
X108897394Y-82506478D01*
X108912649Y-82510105D01*
X108963514Y-82515631D01*
X108970328Y-82516000D01*
X109592885Y-82516000D01*
X109608124Y-82511525D01*
X109609329Y-82510135D01*
X109611000Y-82502452D01*
X109611000Y-79018116D01*
X109606525Y-79002877D01*
X109605135Y-79001672D01*
X109597452Y-79000001D01*
X108970331Y-79000001D01*
X108963510Y-79000371D01*
X108912648Y-79005895D01*
X108897396Y-79009521D01*
X108776946Y-79054676D01*
X108761351Y-79063214D01*
X108670982Y-79130942D01*
X108604475Y-79155790D01*
X108535093Y-79140737D01*
X108519849Y-79130940D01*
X108511705Y-79124836D01*
X108469191Y-79067975D01*
X108464168Y-78997156D01*
X108498178Y-78934917D01*
X112389491Y-75043605D01*
X112451803Y-75009579D01*
X112478586Y-75006700D01*
X130148192Y-75006700D01*
X130156762Y-75006992D01*
X130207168Y-75010429D01*
X130207172Y-75010429D01*
X130214743Y-75010945D01*
X130222219Y-75009640D01*
X130222222Y-75009640D01*
X130278005Y-74999904D01*
X130284530Y-74998941D01*
X130340689Y-74992145D01*
X130340690Y-74992145D01*
X130348233Y-74991232D01*
X130355341Y-74988546D01*
X130357641Y-74987981D01*
X130374702Y-74983314D01*
X130376956Y-74982634D01*
X130384437Y-74981328D01*
X130443227Y-74955521D01*
X130449324Y-74953033D01*
X130502269Y-74933027D01*
X130502272Y-74933026D01*
X130509371Y-74930343D01*
X130515626Y-74926044D01*
X130517717Y-74924951D01*
X130533179Y-74916345D01*
X130535213Y-74915142D01*
X130542168Y-74912089D01*
X130548193Y-74907466D01*
X130548198Y-74907463D01*
X130593096Y-74873012D01*
X130598431Y-74869136D01*
X130645069Y-74837082D01*
X130645075Y-74837077D01*
X130651334Y-74832775D01*
X130692976Y-74786037D01*
X130697957Y-74780760D01*
X131038722Y-74439996D01*
X131044988Y-74434143D01*
X131083059Y-74400932D01*
X131083061Y-74400930D01*
X131088781Y-74395940D01*
X131125691Y-74343421D01*
X131129625Y-74338124D01*
X131164546Y-74293588D01*
X131164550Y-74293582D01*
X131169233Y-74287609D01*
X131172358Y-74280688D01*
X131173572Y-74278683D01*
X131182341Y-74263310D01*
X131183459Y-74261226D01*
X131187830Y-74255006D01*
X131211148Y-74195198D01*
X131213704Y-74189116D01*
X131240120Y-74130613D01*
X131241504Y-74123145D01*
X131242212Y-74120886D01*
X131247049Y-74103904D01*
X131247642Y-74101595D01*
X131250403Y-74094514D01*
X131258783Y-74030866D01*
X131259815Y-74024352D01*
X131270128Y-73968707D01*
X131270128Y-73968706D01*
X131271512Y-73961239D01*
X131270554Y-73944615D01*
X131267909Y-73898752D01*
X131267700Y-73891499D01*
X131267700Y-65442630D01*
X131267992Y-65434060D01*
X131271429Y-65383654D01*
X131271429Y-65383650D01*
X131271945Y-65376079D01*
X131270640Y-65368600D01*
X131260904Y-65312817D01*
X131259941Y-65306292D01*
X131253145Y-65250133D01*
X131253145Y-65250132D01*
X131252232Y-65242589D01*
X131249546Y-65235481D01*
X131248981Y-65233181D01*
X131244314Y-65216120D01*
X131243633Y-65213866D01*
X131242328Y-65206385D01*
X131239276Y-65199433D01*
X131239275Y-65199429D01*
X131216524Y-65147603D01*
X131214031Y-65141494D01*
X131200228Y-65104965D01*
X131194860Y-65034172D01*
X131218036Y-64988703D01*
X131215781Y-64987118D01*
X131252695Y-64934593D01*
X131256630Y-64929295D01*
X131278592Y-64901287D01*
X131296234Y-64878787D01*
X131299362Y-64871860D01*
X131300570Y-64869865D01*
X131309351Y-64854470D01*
X131310459Y-64852404D01*
X131314830Y-64846184D01*
X131317590Y-64839104D01*
X131317593Y-64839099D01*
X131338151Y-64786370D01*
X131340707Y-64780288D01*
X131363994Y-64728713D01*
X131367120Y-64721790D01*
X131368504Y-64714322D01*
X131369212Y-64712063D01*
X131374062Y-64695034D01*
X131374643Y-64692770D01*
X131377403Y-64685692D01*
X131385786Y-64622021D01*
X131386812Y-64615546D01*
X131398512Y-64552416D01*
X131397041Y-64526893D01*
X131394909Y-64489923D01*
X131394700Y-64482671D01*
X131394700Y-58830030D01*
X131394992Y-58821460D01*
X131398429Y-58771054D01*
X131398429Y-58771050D01*
X131398945Y-58763479D01*
X131397101Y-58752912D01*
X131387904Y-58700217D01*
X131386941Y-58693692D01*
X131380145Y-58637533D01*
X131380145Y-58637532D01*
X131379232Y-58629989D01*
X131376546Y-58622881D01*
X131375981Y-58620581D01*
X131371314Y-58603520D01*
X131370634Y-58601266D01*
X131369328Y-58593785D01*
X131343521Y-58534995D01*
X131341033Y-58528898D01*
X131321027Y-58475953D01*
X131321026Y-58475950D01*
X131318343Y-58468851D01*
X131314044Y-58462596D01*
X131312951Y-58460505D01*
X131304345Y-58445043D01*
X131303142Y-58443009D01*
X131300089Y-58436054D01*
X131295466Y-58430029D01*
X131295463Y-58430024D01*
X131261012Y-58385126D01*
X131257136Y-58379791D01*
X131225082Y-58333153D01*
X131225077Y-58333147D01*
X131220775Y-58326888D01*
X131174028Y-58285237D01*
X131168753Y-58280257D01*
X130190780Y-57302284D01*
X130184926Y-57296018D01*
X130151710Y-57257941D01*
X130151708Y-57257939D01*
X130146718Y-57252219D01*
X130104674Y-57222671D01*
X130094199Y-57215309D01*
X130088902Y-57211375D01*
X130044366Y-57176454D01*
X130044360Y-57176450D01*
X130038387Y-57171767D01*
X130031466Y-57168642D01*
X130029461Y-57167428D01*
X130014088Y-57158659D01*
X130012004Y-57157541D01*
X130005784Y-57153170D01*
X129998705Y-57150410D01*
X129998703Y-57150409D01*
X129945976Y-57129852D01*
X129939903Y-57127300D01*
X129881391Y-57100880D01*
X129873923Y-57099496D01*
X129871664Y-57098788D01*
X129854682Y-57093951D01*
X129852373Y-57093358D01*
X129845292Y-57090597D01*
X129837763Y-57089606D01*
X129837760Y-57089605D01*
X129781644Y-57082217D01*
X129775130Y-57081185D01*
X129719485Y-57070872D01*
X129719484Y-57070872D01*
X129712017Y-57069488D01*
X129704437Y-57069925D01*
X129704436Y-57069925D01*
X129649530Y-57073091D01*
X129642277Y-57073300D01*
X123658000Y-57073300D01*
X123589879Y-57053298D01*
X123543386Y-56999642D01*
X123532000Y-56947300D01*
X123532000Y-56184115D01*
X123527525Y-56168876D01*
X123526135Y-56167671D01*
X123518452Y-56166000D01*
X120834116Y-56166000D01*
X120818877Y-56170475D01*
X120817672Y-56171865D01*
X120816001Y-56179548D01*
X120816001Y-56947300D01*
X120795999Y-57015421D01*
X120742343Y-57061914D01*
X120690001Y-57073300D01*
X118830385Y-57073300D01*
X118762264Y-57053298D01*
X118715771Y-56999642D01*
X118705667Y-56929368D01*
X118735161Y-56864788D01*
X118741290Y-56858205D01*
X120600905Y-54998591D01*
X120663217Y-54964565D01*
X120734033Y-54969630D01*
X120790868Y-55012177D01*
X120815679Y-55078697D01*
X120816000Y-55087686D01*
X120816000Y-55639885D01*
X120820475Y-55655124D01*
X120821865Y-55656329D01*
X120829548Y-55658000D01*
X121901885Y-55658000D01*
X121917124Y-55653525D01*
X121918329Y-55652135D01*
X121920000Y-55644452D01*
X121920000Y-55639885D01*
X122428000Y-55639885D01*
X122432475Y-55655124D01*
X122433865Y-55656329D01*
X122441548Y-55658000D01*
X123513884Y-55658000D01*
X123529123Y-55653525D01*
X123530328Y-55652135D01*
X123531999Y-55644452D01*
X123531999Y-54867331D01*
X123531629Y-54860510D01*
X123526105Y-54809648D01*
X123522479Y-54794396D01*
X123477324Y-54673946D01*
X123468786Y-54658351D01*
X123392285Y-54556276D01*
X123379724Y-54543715D01*
X123277649Y-54467214D01*
X123262054Y-54458676D01*
X123141606Y-54413522D01*
X123126351Y-54409895D01*
X123075486Y-54404369D01*
X123068672Y-54404000D01*
X122446115Y-54404000D01*
X122430876Y-54408475D01*
X122429671Y-54409865D01*
X122428000Y-54417548D01*
X122428000Y-55639885D01*
X121920000Y-55639885D01*
X121920000Y-54422116D01*
X121915525Y-54406877D01*
X121914135Y-54405672D01*
X121906452Y-54404001D01*
X121499685Y-54404001D01*
X121431564Y-54383999D01*
X121385071Y-54330343D01*
X121374967Y-54260069D01*
X121404461Y-54195489D01*
X121410590Y-54188906D01*
X122656716Y-52942780D01*
X122662982Y-52936926D01*
X122701054Y-52903714D01*
X122706781Y-52898718D01*
X122728224Y-52868207D01*
X122743686Y-52846207D01*
X122747619Y-52840911D01*
X122782544Y-52796369D01*
X122782546Y-52796365D01*
X122787233Y-52790388D01*
X122790358Y-52783466D01*
X122791587Y-52781437D01*
X122800340Y-52766090D01*
X122801459Y-52764002D01*
X122805830Y-52757784D01*
X122829146Y-52697981D01*
X122831700Y-52691905D01*
X122854992Y-52640319D01*
X122854992Y-52640318D01*
X122858120Y-52633391D01*
X122859504Y-52625921D01*
X122860211Y-52623666D01*
X122865049Y-52606682D01*
X122865642Y-52604373D01*
X122868403Y-52597292D01*
X122869395Y-52589760D01*
X122876783Y-52533644D01*
X122877815Y-52527130D01*
X122888128Y-52471485D01*
X122888128Y-52471484D01*
X122889512Y-52464017D01*
X122888773Y-52451191D01*
X122885909Y-52401531D01*
X122885700Y-52394278D01*
X122885700Y-49940030D01*
X122885992Y-49931460D01*
X122889429Y-49881054D01*
X122889429Y-49881050D01*
X122889945Y-49873479D01*
X122888514Y-49865280D01*
X122878904Y-49810217D01*
X122877941Y-49803692D01*
X122871145Y-49747533D01*
X122871145Y-49747532D01*
X122870232Y-49739989D01*
X122867546Y-49732881D01*
X122866981Y-49730581D01*
X122862314Y-49713519D01*
X122861633Y-49711264D01*
X122860328Y-49703785D01*
X122834527Y-49645008D01*
X122832035Y-49638902D01*
X122812026Y-49585951D01*
X122809343Y-49578851D01*
X122805044Y-49572596D01*
X122803952Y-49570507D01*
X122795348Y-49555050D01*
X122794142Y-49553011D01*
X122791088Y-49546054D01*
X122751995Y-49495107D01*
X122748139Y-49489799D01*
X122716079Y-49443149D01*
X122716074Y-49443144D01*
X122711775Y-49436888D01*
X122665035Y-49395244D01*
X122659760Y-49390264D01*
X121445499Y-48176003D01*
X121411473Y-48113691D01*
X121416538Y-48042876D01*
X121459085Y-47986040D01*
X121525605Y-47961229D01*
X121535282Y-47960910D01*
X125039433Y-47980190D01*
X133606955Y-48027330D01*
X133674965Y-48047706D01*
X133721162Y-48101617D01*
X133732262Y-48153331D01*
X133731520Y-65199429D01*
X133730661Y-84946172D01*
X133710656Y-85014292D01*
X133656998Y-85060783D01*
X133605018Y-85072166D01*
X106933844Y-85147486D01*
X83692342Y-85213120D01*
X83624165Y-85193311D01*
X83577521Y-85139787D01*
X83565986Y-85087121D01*
X83565996Y-58801137D01*
X83585998Y-58733016D01*
X83596304Y-58719250D01*
X83598000Y-58711452D01*
X83598000Y-58706885D01*
X84106000Y-58706885D01*
X84110475Y-58722124D01*
X84111865Y-58723329D01*
X84119548Y-58725000D01*
X84646669Y-58724999D01*
X84653490Y-58724629D01*
X84704352Y-58719105D01*
X84719604Y-58715479D01*
X84840054Y-58670324D01*
X84855649Y-58661786D01*
X84957724Y-58585285D01*
X84970285Y-58572724D01*
X85046786Y-58470649D01*
X85055324Y-58455054D01*
X85100478Y-58334606D01*
X85104105Y-58319351D01*
X85109631Y-58268486D01*
X85110000Y-58261672D01*
X85110000Y-57239115D01*
X85105525Y-57223876D01*
X85104135Y-57222671D01*
X85096452Y-57221000D01*
X84124115Y-57221000D01*
X84108876Y-57225475D01*
X84107671Y-57226865D01*
X84106000Y-57234548D01*
X84106000Y-58706885D01*
X83598000Y-58706885D01*
X83598000Y-56694885D01*
X84106000Y-56694885D01*
X84110475Y-56710124D01*
X84111865Y-56711329D01*
X84119548Y-56713000D01*
X85091884Y-56713000D01*
X85107123Y-56708525D01*
X85108328Y-56707135D01*
X85109999Y-56699452D01*
X85109999Y-55672331D01*
X85109629Y-55665510D01*
X85104105Y-55614648D01*
X85100479Y-55599396D01*
X85055324Y-55478946D01*
X85046786Y-55463351D01*
X84970285Y-55361276D01*
X84957724Y-55348715D01*
X84855649Y-55272214D01*
X84840054Y-55263676D01*
X84719606Y-55218522D01*
X84704351Y-55214895D01*
X84653486Y-55209369D01*
X84646672Y-55209000D01*
X84124115Y-55209001D01*
X84108876Y-55213476D01*
X84107671Y-55214866D01*
X84106000Y-55222549D01*
X84106000Y-56694885D01*
X83598000Y-56694885D01*
X83598000Y-55227116D01*
X83587576Y-55191615D01*
X83571101Y-55165979D01*
X83565997Y-55130481D01*
X83565998Y-54422116D01*
X83565998Y-52640319D01*
X83565999Y-51801133D01*
X83586001Y-51733012D01*
X83596304Y-51719251D01*
X83598000Y-51711452D01*
X83598000Y-51706885D01*
X84106000Y-51706885D01*
X84110475Y-51722124D01*
X84111865Y-51723329D01*
X84119548Y-51725000D01*
X84646669Y-51724999D01*
X84653490Y-51724629D01*
X84704352Y-51719105D01*
X84719604Y-51715479D01*
X84840054Y-51670324D01*
X84855649Y-51661786D01*
X84957724Y-51585285D01*
X84970285Y-51572724D01*
X85046786Y-51470649D01*
X85055324Y-51455054D01*
X85100478Y-51334606D01*
X85104105Y-51319351D01*
X85109631Y-51268486D01*
X85109813Y-51265134D01*
X86593500Y-51265134D01*
X86600255Y-51327316D01*
X86651385Y-51463705D01*
X86738739Y-51580261D01*
X86855295Y-51667615D01*
X86991684Y-51718745D01*
X87053866Y-51725500D01*
X88650134Y-51725500D01*
X88712316Y-51718745D01*
X88848705Y-51667615D01*
X88965261Y-51580261D01*
X89052615Y-51463705D01*
X89103745Y-51327316D01*
X89110500Y-51265134D01*
X89110500Y-48668866D01*
X89103745Y-48606684D01*
X89052615Y-48470295D01*
X88965261Y-48353739D01*
X88848705Y-48266385D01*
X88712316Y-48215255D01*
X88650134Y-48208500D01*
X87053866Y-48208500D01*
X86991684Y-48215255D01*
X86855295Y-48266385D01*
X86738739Y-48353739D01*
X86651385Y-48470295D01*
X86600255Y-48606684D01*
X86593500Y-48668866D01*
X86593500Y-51265134D01*
X85109813Y-51265134D01*
X85110000Y-51261672D01*
X85110000Y-50239115D01*
X85105525Y-50223876D01*
X85104135Y-50222671D01*
X85096452Y-50221000D01*
X84124115Y-50221000D01*
X84108876Y-50225475D01*
X84107671Y-50226865D01*
X84106000Y-50234548D01*
X84106000Y-51706885D01*
X83598000Y-51706885D01*
X83598000Y-49694885D01*
X84106000Y-49694885D01*
X84110475Y-49710124D01*
X84111865Y-49711329D01*
X84119548Y-49713000D01*
X85091884Y-49713000D01*
X85107123Y-49708525D01*
X85108328Y-49707135D01*
X85109999Y-49699452D01*
X85109999Y-48672331D01*
X85109629Y-48665510D01*
X85104105Y-48614648D01*
X85100479Y-48599396D01*
X85055324Y-48478946D01*
X85046786Y-48463351D01*
X84970285Y-48361276D01*
X84957724Y-48348715D01*
X84855649Y-48272214D01*
X84840054Y-48263676D01*
X84719606Y-48218522D01*
X84704351Y-48214895D01*
X84653486Y-48209369D01*
X84646672Y-48209000D01*
X84124115Y-48209001D01*
X84108876Y-48213476D01*
X84107671Y-48214866D01*
X84106000Y-48222549D01*
X84106000Y-49694885D01*
X83598000Y-49694885D01*
X83598000Y-48227116D01*
X83587575Y-48191613D01*
X83571104Y-48165984D01*
X83566000Y-48130484D01*
X83566000Y-48045069D01*
X83586002Y-47976948D01*
X83639658Y-47930455D01*
X83691896Y-47919070D01*
X110087997Y-47897928D01*
X110088642Y-47897930D01*
G37*
%TD.AperFunction*%
%TA.AperFunction,Conductor*%
G36*
X103480136Y-55722702D02*
G01*
X103501110Y-55739605D01*
X106781331Y-59019827D01*
X106787184Y-59026092D01*
X106825393Y-59069892D01*
X106831611Y-59074262D01*
X106877904Y-59106797D01*
X106883200Y-59110730D01*
X106927742Y-59145655D01*
X106927746Y-59145657D01*
X106933723Y-59150344D01*
X106940645Y-59153469D01*
X106942674Y-59154698D01*
X106958021Y-59163451D01*
X106960109Y-59164570D01*
X106966327Y-59168941D01*
X106973406Y-59171701D01*
X106973408Y-59171702D01*
X107002056Y-59182871D01*
X107026130Y-59192257D01*
X107032206Y-59194811D01*
X107038463Y-59197636D01*
X107090720Y-59221231D01*
X107098190Y-59222615D01*
X107100445Y-59223322D01*
X107117429Y-59228160D01*
X107119738Y-59228753D01*
X107126819Y-59231514D01*
X107134348Y-59232505D01*
X107134351Y-59232506D01*
X107190467Y-59239894D01*
X107196981Y-59240926D01*
X107252626Y-59251239D01*
X107252627Y-59251239D01*
X107260094Y-59252623D01*
X107267674Y-59252186D01*
X107267675Y-59252186D01*
X107322581Y-59249020D01*
X107329834Y-59248811D01*
X109447923Y-59248811D01*
X109516044Y-59268813D01*
X109562537Y-59322469D01*
X109572641Y-59392743D01*
X109543147Y-59457323D01*
X109519536Y-59476372D01*
X109520295Y-59477385D01*
X109403739Y-59564739D01*
X109316385Y-59681295D01*
X109265255Y-59817684D01*
X109258500Y-59879866D01*
X109258500Y-61976134D01*
X109265255Y-62038316D01*
X109316385Y-62174705D01*
X109403739Y-62291261D01*
X109520295Y-62378615D01*
X109656684Y-62429745D01*
X109718866Y-62436500D01*
X111515134Y-62436500D01*
X111577316Y-62429745D01*
X111713705Y-62378615D01*
X111830261Y-62291261D01*
X111917615Y-62174705D01*
X111968745Y-62038316D01*
X111975500Y-61976134D01*
X111975500Y-61765700D01*
X111995502Y-61697579D01*
X112049158Y-61651086D01*
X112101500Y-61639700D01*
X112180500Y-61639700D01*
X112248621Y-61659702D01*
X112295114Y-61713358D01*
X112306500Y-61765700D01*
X112306500Y-61976134D01*
X112313255Y-62038316D01*
X112364385Y-62174705D01*
X112451739Y-62291261D01*
X112568295Y-62378615D01*
X112704684Y-62429745D01*
X112766866Y-62436500D01*
X114563134Y-62436500D01*
X114625316Y-62429745D01*
X114761705Y-62378615D01*
X114878261Y-62291261D01*
X114965615Y-62174705D01*
X115016745Y-62038316D01*
X115023500Y-61976134D01*
X115023500Y-60956669D01*
X120816001Y-60956669D01*
X120816371Y-60963490D01*
X120821895Y-61014352D01*
X120825521Y-61029604D01*
X120870676Y-61150054D01*
X120879214Y-61165649D01*
X120955715Y-61267724D01*
X120968276Y-61280285D01*
X121070351Y-61356786D01*
X121085946Y-61365324D01*
X121206394Y-61410478D01*
X121221649Y-61414105D01*
X121272514Y-61419631D01*
X121279328Y-61420000D01*
X121901885Y-61420000D01*
X121917124Y-61415525D01*
X121918329Y-61414135D01*
X121920000Y-61406452D01*
X121920000Y-61401884D01*
X122428000Y-61401884D01*
X122432475Y-61417123D01*
X122433865Y-61418328D01*
X122441548Y-61419999D01*
X123068669Y-61419999D01*
X123075490Y-61419629D01*
X123126352Y-61414105D01*
X123141604Y-61410479D01*
X123262054Y-61365324D01*
X123277649Y-61356786D01*
X123379724Y-61280285D01*
X123392285Y-61267724D01*
X123468786Y-61165649D01*
X123477324Y-61150054D01*
X123522478Y-61029606D01*
X123526105Y-61014351D01*
X123531631Y-60963486D01*
X123532000Y-60956672D01*
X123532000Y-60184115D01*
X123527525Y-60168876D01*
X123526135Y-60167671D01*
X123518452Y-60166000D01*
X122446115Y-60166000D01*
X122430876Y-60170475D01*
X122429671Y-60171865D01*
X122428000Y-60179548D01*
X122428000Y-61401884D01*
X121920000Y-61401884D01*
X121920000Y-60184115D01*
X121915525Y-60168876D01*
X121914135Y-60167671D01*
X121906452Y-60166000D01*
X120834116Y-60166000D01*
X120818877Y-60170475D01*
X120817672Y-60171865D01*
X120816001Y-60179548D01*
X120816001Y-60956669D01*
X115023500Y-60956669D01*
X115023500Y-60628185D01*
X115043502Y-60560064D01*
X115060405Y-60539090D01*
X116913290Y-58686206D01*
X116913294Y-58686201D01*
X117065890Y-58533605D01*
X117128202Y-58499579D01*
X117154985Y-58496700D01*
X120755324Y-58496700D01*
X120823445Y-58516702D01*
X120869938Y-58570358D01*
X120880042Y-58640632D01*
X120873306Y-58666930D01*
X120825522Y-58794394D01*
X120821895Y-58809649D01*
X120816369Y-58860514D01*
X120816000Y-58867328D01*
X120816000Y-59639885D01*
X120820475Y-59655124D01*
X120821865Y-59656329D01*
X120829548Y-59658000D01*
X123513884Y-59658000D01*
X123529123Y-59653525D01*
X123530328Y-59652135D01*
X123531999Y-59644452D01*
X123531999Y-58867331D01*
X123531629Y-58860510D01*
X123526105Y-58809648D01*
X123522479Y-58794396D01*
X123474694Y-58666930D01*
X123469511Y-58596122D01*
X123503432Y-58533753D01*
X123565687Y-58499624D01*
X123592676Y-58496700D01*
X126831632Y-58496700D01*
X126899753Y-58516702D01*
X126946246Y-58570358D01*
X126956350Y-58640632D01*
X126926856Y-58705212D01*
X126907195Y-58723528D01*
X126904274Y-58725717D01*
X126891715Y-58738276D01*
X126815214Y-58840351D01*
X126806676Y-58855946D01*
X126761522Y-58976394D01*
X126757895Y-58991649D01*
X126752369Y-59042514D01*
X126752000Y-59049328D01*
X126752000Y-59671885D01*
X126756475Y-59687124D01*
X126757865Y-59688329D01*
X126765548Y-59690000D01*
X128638000Y-59690000D01*
X128706121Y-59710002D01*
X128752614Y-59763658D01*
X128764000Y-59816000D01*
X128764000Y-60072000D01*
X128743998Y-60140121D01*
X128690342Y-60186614D01*
X128638000Y-60198000D01*
X126770116Y-60198000D01*
X126754877Y-60202475D01*
X126753672Y-60203865D01*
X126752001Y-60211548D01*
X126752001Y-60838669D01*
X126752371Y-60845490D01*
X126757895Y-60896352D01*
X126761521Y-60911604D01*
X126806676Y-61032054D01*
X126815214Y-61047649D01*
X126882942Y-61138018D01*
X126907790Y-61204525D01*
X126892737Y-61273907D01*
X126882942Y-61289148D01*
X126809385Y-61387295D01*
X126758255Y-61523684D01*
X126751500Y-61585866D01*
X126751500Y-63382134D01*
X126758255Y-63444316D01*
X126809385Y-63580705D01*
X126850359Y-63635376D01*
X126882630Y-63678435D01*
X126907478Y-63744941D01*
X126892425Y-63814324D01*
X126882632Y-63829562D01*
X126809385Y-63927295D01*
X126758255Y-64063684D01*
X126751500Y-64125866D01*
X126751500Y-65922134D01*
X126758255Y-65984316D01*
X126809385Y-66120705D01*
X126814771Y-66127891D01*
X126882630Y-66218435D01*
X126907478Y-66284941D01*
X126892425Y-66354324D01*
X126882632Y-66369562D01*
X126809385Y-66467295D01*
X126758255Y-66603684D01*
X126751500Y-66665866D01*
X126751500Y-66726300D01*
X126731498Y-66794421D01*
X126677842Y-66840914D01*
X126625500Y-66852300D01*
X111477780Y-66852300D01*
X111409659Y-66832298D01*
X111388685Y-66815395D01*
X105955045Y-61381755D01*
X105921019Y-61319443D01*
X105918140Y-61292660D01*
X105918140Y-59146887D01*
X105918432Y-59138317D01*
X105921869Y-59087911D01*
X105921869Y-59087907D01*
X105922385Y-59080336D01*
X105921080Y-59072857D01*
X105911344Y-59017074D01*
X105910381Y-59010549D01*
X105903585Y-58954390D01*
X105903585Y-58954389D01*
X105902672Y-58946846D01*
X105899986Y-58939738D01*
X105899421Y-58937438D01*
X105894754Y-58920377D01*
X105894073Y-58918123D01*
X105892768Y-58910642D01*
X105889716Y-58903690D01*
X105889715Y-58903686D01*
X105866964Y-58851860D01*
X105864471Y-58845751D01*
X105844467Y-58792812D01*
X105841783Y-58785708D01*
X105837483Y-58779452D01*
X105836394Y-58777368D01*
X105827787Y-58761905D01*
X105826583Y-58759869D01*
X105823529Y-58752912D01*
X105784433Y-58701961D01*
X105780577Y-58696653D01*
X105748519Y-58650006D01*
X105748514Y-58650001D01*
X105744215Y-58643745D01*
X105718217Y-58620581D01*
X105697476Y-58602102D01*
X105692200Y-58597121D01*
X104305754Y-57210675D01*
X104280844Y-57167529D01*
X104278133Y-57168652D01*
X104271720Y-57153170D01*
X104217978Y-57023424D01*
X104145806Y-56929368D01*
X104127314Y-56905268D01*
X104127311Y-56905265D01*
X104122285Y-56898715D01*
X103997575Y-56803022D01*
X103852348Y-56742867D01*
X103779421Y-56733266D01*
X103739712Y-56728038D01*
X103739711Y-56728038D01*
X103735625Y-56727500D01*
X102810113Y-56727500D01*
X101884376Y-56727501D01*
X101880291Y-56728039D01*
X101880287Y-56728039D01*
X101775839Y-56741789D01*
X101775837Y-56741789D01*
X101767652Y-56742867D01*
X101622424Y-56803022D01*
X101560069Y-56850869D01*
X101504268Y-56893686D01*
X101504266Y-56893688D01*
X101497715Y-56898715D01*
X101492689Y-56905265D01*
X101492688Y-56905266D01*
X101449868Y-56961070D01*
X101402022Y-57023425D01*
X101341867Y-57168652D01*
X101326500Y-57285375D01*
X101326501Y-57776624D01*
X101327039Y-57780709D01*
X101327039Y-57780713D01*
X101340789Y-57885159D01*
X101341867Y-57893348D01*
X101402022Y-58038576D01*
X101440941Y-58089296D01*
X101466542Y-58155516D01*
X101452277Y-58225065D01*
X101440941Y-58242704D01*
X101407052Y-58286869D01*
X101407051Y-58286871D01*
X101402022Y-58293425D01*
X101341867Y-58438652D01*
X101326500Y-58555375D01*
X101326501Y-59046624D01*
X101327039Y-59050709D01*
X101327039Y-59050713D01*
X101340728Y-59154698D01*
X101341867Y-59163348D01*
X101402022Y-59308576D01*
X101421363Y-59333781D01*
X101440941Y-59359296D01*
X101466542Y-59425516D01*
X101452277Y-59495065D01*
X101440941Y-59512704D01*
X101407052Y-59556869D01*
X101407051Y-59556871D01*
X101402022Y-59563425D01*
X101341867Y-59708652D01*
X101340789Y-59716841D01*
X101327513Y-59817684D01*
X101326500Y-59825375D01*
X101326501Y-60316624D01*
X101327039Y-60320709D01*
X101327039Y-60320713D01*
X101339733Y-60417136D01*
X101341867Y-60433348D01*
X101402022Y-60578576D01*
X101440941Y-60629296D01*
X101466542Y-60695516D01*
X101452277Y-60765065D01*
X101440941Y-60782704D01*
X101407052Y-60826869D01*
X101407051Y-60826871D01*
X101402022Y-60833425D01*
X101341867Y-60978652D01*
X101326500Y-61095375D01*
X101326501Y-61586624D01*
X101341867Y-61703348D01*
X101402022Y-61848576D01*
X101440941Y-61899296D01*
X101466542Y-61965516D01*
X101452277Y-62035065D01*
X101440941Y-62052704D01*
X101407052Y-62096869D01*
X101407051Y-62096871D01*
X101402022Y-62103425D01*
X101341867Y-62248652D01*
X101326500Y-62365375D01*
X101326501Y-62856624D01*
X101341867Y-62973348D01*
X101402022Y-63118576D01*
X101440941Y-63169296D01*
X101466542Y-63235516D01*
X101452277Y-63305065D01*
X101440941Y-63322704D01*
X101407052Y-63366869D01*
X101407051Y-63366871D01*
X101402022Y-63373425D01*
X101341867Y-63518652D01*
X101339156Y-63517529D01*
X101314246Y-63560675D01*
X100743164Y-64131757D01*
X100736899Y-64137610D01*
X100693099Y-64175819D01*
X100688733Y-64182032D01*
X100656189Y-64228338D01*
X100652255Y-64233635D01*
X100617334Y-64278171D01*
X100617330Y-64278177D01*
X100612647Y-64284150D01*
X100609522Y-64291071D01*
X100608308Y-64293076D01*
X100599539Y-64308449D01*
X100598421Y-64310533D01*
X100594050Y-64316753D01*
X100591290Y-64323832D01*
X100591289Y-64323834D01*
X100570732Y-64376561D01*
X100568180Y-64382634D01*
X100541760Y-64441146D01*
X100540376Y-64448614D01*
X100539668Y-64450873D01*
X100534831Y-64467855D01*
X100534238Y-64470164D01*
X100531477Y-64477245D01*
X100530486Y-64484774D01*
X100530485Y-64484777D01*
X100523097Y-64540893D01*
X100522065Y-64547407D01*
X100513670Y-64592704D01*
X100510368Y-64610520D01*
X100510805Y-64618100D01*
X100510805Y-64618101D01*
X100513971Y-64673007D01*
X100514180Y-64680260D01*
X100514180Y-66829134D01*
X100494178Y-66897255D01*
X100477275Y-66918229D01*
X99310109Y-68085395D01*
X99247797Y-68119421D01*
X99221014Y-68122300D01*
X99106500Y-68122300D01*
X99038379Y-68102298D01*
X98991886Y-68048642D01*
X98980500Y-67996300D01*
X98980500Y-67935866D01*
X98973745Y-67873684D01*
X98922615Y-67737295D01*
X98835261Y-67620739D01*
X98718705Y-67533385D01*
X98582316Y-67482255D01*
X98520134Y-67475500D01*
X96700589Y-67475500D01*
X96632468Y-67455498D01*
X96585975Y-67401842D01*
X96574589Y-67349500D01*
X96574589Y-66030627D01*
X96594591Y-65962506D01*
X96648247Y-65916013D01*
X96718521Y-65905909D01*
X96748807Y-65914218D01*
X96800151Y-65935485D01*
X96815971Y-65939724D01*
X96920319Y-65953462D01*
X96928527Y-65954000D01*
X97577885Y-65954000D01*
X97593124Y-65949525D01*
X97594329Y-65948135D01*
X97596000Y-65940452D01*
X97596000Y-65935884D01*
X98104000Y-65935884D01*
X98108475Y-65951123D01*
X98109865Y-65952328D01*
X98117548Y-65953999D01*
X98771471Y-65953999D01*
X98779683Y-65953461D01*
X98884030Y-65939724D01*
X98899846Y-65935486D01*
X99029695Y-65881702D01*
X99043877Y-65873513D01*
X99155376Y-65787957D01*
X99166956Y-65776378D01*
X99252515Y-65664874D01*
X99260702Y-65650693D01*
X99314486Y-65520848D01*
X99318724Y-65505030D01*
X99329529Y-65422960D01*
X99327317Y-65408779D01*
X99314159Y-65405000D01*
X98122115Y-65405000D01*
X98106876Y-65409475D01*
X98105671Y-65410865D01*
X98104000Y-65418548D01*
X98104000Y-65935884D01*
X97596000Y-65935884D01*
X97596000Y-65023000D01*
X97616002Y-64954879D01*
X97669658Y-64908386D01*
X97722000Y-64897000D01*
X99313777Y-64897000D01*
X99327548Y-64892956D01*
X99329577Y-64879417D01*
X99318724Y-64796969D01*
X99314486Y-64781154D01*
X99260702Y-64651305D01*
X99252514Y-64637123D01*
X99218744Y-64593113D01*
X99193144Y-64526893D01*
X99207409Y-64457344D01*
X99218744Y-64439706D01*
X99252951Y-64395126D01*
X99257978Y-64388575D01*
X99318133Y-64243348D01*
X99333500Y-64126625D01*
X99333499Y-63635376D01*
X99320317Y-63535238D01*
X99319211Y-63526839D01*
X99319211Y-63526837D01*
X99318133Y-63518652D01*
X99257978Y-63373424D01*
X99219059Y-63322704D01*
X99193458Y-63256484D01*
X99207723Y-63186935D01*
X99219059Y-63169296D01*
X99252948Y-63125131D01*
X99252950Y-63125128D01*
X99257978Y-63118575D01*
X99318133Y-62973348D01*
X99333500Y-62856625D01*
X99333499Y-62365376D01*
X99318133Y-62248652D01*
X99257978Y-62103424D01*
X99219059Y-62052704D01*
X99193458Y-61986484D01*
X99207723Y-61916935D01*
X99219059Y-61899296D01*
X99252948Y-61855131D01*
X99252950Y-61855128D01*
X99257978Y-61848575D01*
X99318133Y-61703348D01*
X99333500Y-61586625D01*
X99333499Y-61095376D01*
X99330190Y-61070236D01*
X99319211Y-60986839D01*
X99319211Y-60986837D01*
X99318133Y-60978652D01*
X99257978Y-60833424D01*
X99219059Y-60782704D01*
X99193458Y-60716484D01*
X99207723Y-60646935D01*
X99219059Y-60629296D01*
X99252948Y-60585131D01*
X99252950Y-60585128D01*
X99257978Y-60578575D01*
X99318133Y-60433348D01*
X99333500Y-60316625D01*
X99333499Y-59825376D01*
X99332487Y-59817684D01*
X99319211Y-59716839D01*
X99319211Y-59716837D01*
X99318133Y-59708652D01*
X99257978Y-59563424D01*
X99219059Y-59512704D01*
X99193458Y-59446484D01*
X99207723Y-59376935D01*
X99219059Y-59359296D01*
X99252948Y-59315131D01*
X99252950Y-59315128D01*
X99257978Y-59308575D01*
X99318133Y-59163348D01*
X99329779Y-59074886D01*
X99332962Y-59050712D01*
X99332962Y-59050711D01*
X99333500Y-59046625D01*
X99333499Y-58555376D01*
X99330818Y-58535005D01*
X99319211Y-58446839D01*
X99319211Y-58446837D01*
X99318133Y-58438652D01*
X99257978Y-58293424D01*
X99219059Y-58242704D01*
X99193458Y-58176484D01*
X99207723Y-58106935D01*
X99219059Y-58089296D01*
X99252948Y-58045131D01*
X99252950Y-58045128D01*
X99257978Y-58038575D01*
X99318133Y-57893348D01*
X99333500Y-57776625D01*
X99333499Y-57285376D01*
X99329888Y-57257941D01*
X99319211Y-57176839D01*
X99319211Y-57176837D01*
X99318133Y-57168652D01*
X99257978Y-57023424D01*
X99185806Y-56929368D01*
X99167314Y-56905268D01*
X99167311Y-56905265D01*
X99162285Y-56898715D01*
X99037575Y-56803022D01*
X98892348Y-56742867D01*
X98819421Y-56733266D01*
X98779712Y-56728038D01*
X98779711Y-56728038D01*
X98775625Y-56727500D01*
X98687700Y-56727500D01*
X98619579Y-56707498D01*
X98573086Y-56653842D01*
X98561700Y-56601500D01*
X98561700Y-56420986D01*
X98581702Y-56352865D01*
X98598605Y-56331890D01*
X99190892Y-55739604D01*
X99253204Y-55705579D01*
X99279987Y-55702700D01*
X103412015Y-55702700D01*
X103480136Y-55722702D01*
G37*
%TD.AperFunction*%
%TD*%
M02*
