%TF.GenerationSoftware,KiCad,Pcbnew,(6.0.4)*%
%TF.CreationDate,2022-11-20T20:55:16-05:00*%
%TF.ProjectId,khan_sender_pcb,6b68616e-5f73-4656-9e64-65725f706362,rev?*%
%TF.SameCoordinates,Original*%
%TF.FileFunction,Copper,L1,Top*%
%TF.FilePolarity,Positive*%
%FSLAX46Y46*%
G04 Gerber Fmt 4.6, Leading zero omitted, Abs format (unit mm)*
G04 Created by KiCad (PCBNEW (6.0.4)) date 2022-11-20 20:55:16*
%MOMM*%
%LPD*%
G01*
G04 APERTURE LIST*
G04 Aperture macros list*
%AMRoundRect*
0 Rectangle with rounded corners*
0 $1 Rounding radius*
0 $2 $3 $4 $5 $6 $7 $8 $9 X,Y pos of 4 corners*
0 Add a 4 corners polygon primitive as box body*
4,1,4,$2,$3,$4,$5,$6,$7,$8,$9,$2,$3,0*
0 Add four circle primitives for the rounded corners*
1,1,$1+$1,$2,$3*
1,1,$1+$1,$4,$5*
1,1,$1+$1,$6,$7*
1,1,$1+$1,$8,$9*
0 Add four rect primitives between the rounded corners*
20,1,$1+$1,$2,$3,$4,$5,0*
20,1,$1+$1,$4,$5,$6,$7,0*
20,1,$1+$1,$6,$7,$8,$9,0*
20,1,$1+$1,$8,$9,$2,$3,0*%
%AMRotRect*
0 Rectangle, with rotation*
0 The origin of the aperture is its center*
0 $1 length*
0 $2 width*
0 $3 Rotation angle, in degrees counterclockwise*
0 Add horizontal line*
21,1,$1,$2,0,0,$3*%
G04 Aperture macros list end*
%TA.AperFunction,SMDPad,CuDef*%
%ADD10R,2.000000X1.700000*%
%TD*%
%TA.AperFunction,SMDPad,CuDef*%
%ADD11R,1.700000X2.000000*%
%TD*%
%TA.AperFunction,SMDPad,CuDef*%
%ADD12R,1.600000X0.400000*%
%TD*%
%TA.AperFunction,SMDPad,CuDef*%
%ADD13R,0.400000X1.600000*%
%TD*%
%TA.AperFunction,SMDPad,CuDef*%
%ADD14R,2.000000X1.500000*%
%TD*%
%TA.AperFunction,SMDPad,CuDef*%
%ADD15R,2.000000X3.800000*%
%TD*%
%TA.AperFunction,SMDPad,CuDef*%
%ADD16RoundRect,0.250000X-0.650000X0.325000X-0.650000X-0.325000X0.650000X-0.325000X0.650000X0.325000X0*%
%TD*%
%TA.AperFunction,SMDPad,CuDef*%
%ADD17RoundRect,0.250000X0.325000X0.650000X-0.325000X0.650000X-0.325000X-0.650000X0.325000X-0.650000X0*%
%TD*%
%TA.AperFunction,SMDPad,CuDef*%
%ADD18R,1.500000X2.500000*%
%TD*%
%TA.AperFunction,SMDPad,CuDef*%
%ADD19RoundRect,0.250000X-0.325000X-0.650000X0.325000X-0.650000X0.325000X0.650000X-0.325000X0.650000X0*%
%TD*%
%TA.AperFunction,ComponentPad*%
%ADD20R,1.700000X1.700000*%
%TD*%
%TA.AperFunction,ComponentPad*%
%ADD21O,1.700000X1.700000*%
%TD*%
%TA.AperFunction,SMDPad,CuDef*%
%ADD22R,2.500000X1.700000*%
%TD*%
%TA.AperFunction,SMDPad,CuDef*%
%ADD23RotRect,2.000000X1.700000X135.000000*%
%TD*%
%TA.AperFunction,SMDPad,CuDef*%
%ADD24RoundRect,0.250000X-0.312500X-0.625000X0.312500X-0.625000X0.312500X0.625000X-0.312500X0.625000X0*%
%TD*%
%TA.AperFunction,ComponentPad*%
%ADD25RoundRect,0.250000X-0.600000X-0.750000X0.600000X-0.750000X0.600000X0.750000X-0.600000X0.750000X0*%
%TD*%
%TA.AperFunction,ComponentPad*%
%ADD26O,1.700000X2.000000*%
%TD*%
%TA.AperFunction,SMDPad,CuDef*%
%ADD27R,2.400000X0.740000*%
%TD*%
%TA.AperFunction,Conductor*%
%ADD28C,0.304800*%
%TD*%
%TA.AperFunction,Conductor*%
%ADD29C,0.330200*%
%TD*%
%TA.AperFunction,Conductor*%
%ADD30C,0.762000*%
%TD*%
%TA.AperFunction,Conductor*%
%ADD31C,0.250000*%
%TD*%
G04 APERTURE END LIST*
D10*
%TO.P,RU3_2,2*%
%TO.N,GND*%
X120809000Y-97917000D03*
%TO.P,RU3_2,1*%
%TO.N,Net-(DU3_0-Pad1)*%
X124809000Y-97917000D03*
%TD*%
D11*
%TO.P,DU3_0,2,A*%
%TO.N,/A4*%
X127762000Y-102457000D03*
%TO.P,DU3_0,1,K*%
%TO.N,Net-(DU3_0-Pad1)*%
X127762000Y-98457000D03*
%TD*%
D12*
%TO.P,U3,1,PA00*%
%TO.N,unconnected-(U3-Pad1)*%
X124957000Y-110115000D03*
%TO.P,U3,2,PA01*%
%TO.N,unconnected-(U3-Pad2)*%
X124957000Y-109315000D03*
%TO.P,U3,3,PA02*%
%TO.N,/A2*%
X124957000Y-108515000D03*
%TO.P,U3,4,PA03*%
%TO.N,/A3*%
X124957000Y-107715000D03*
%TO.P,U3,5,PA04*%
%TO.N,/A4*%
X124957000Y-106915000D03*
%TO.P,U3,6,PA05*%
%TO.N,unconnected-(U3-Pad6)*%
X124957000Y-106115000D03*
%TO.P,U3,7,PA06*%
%TO.N,unconnected-(U3-Pad7)*%
X124957000Y-105315000D03*
%TO.P,U3,8,PA07*%
%TO.N,unconnected-(U3-Pad8)*%
X124957000Y-104515000D03*
D13*
%TO.P,U3,9,VDDANA*%
%TO.N,+3.3V*%
X123577000Y-103135000D03*
%TO.P,U3,10,GND*%
%TO.N,GND*%
X122777000Y-103135000D03*
%TO.P,U3,11,PA08*%
%TO.N,unconnected-(U3-Pad11)*%
X121977000Y-103135000D03*
%TO.P,U3,12,PA09*%
%TO.N,unconnected-(U3-Pad12)*%
X121177000Y-103135000D03*
%TO.P,U3,13,PA10*%
%TO.N,unconnected-(U3-Pad13)*%
X120377000Y-103135000D03*
%TO.P,U3,14,PA11*%
%TO.N,unconnected-(U3-Pad14)*%
X119577000Y-103135000D03*
%TO.P,U3,15,PA14*%
%TO.N,/CAN_INT*%
X118777000Y-103135000D03*
%TO.P,U3,16,PA15*%
%TO.N,unconnected-(U3-Pad16)*%
X117977000Y-103135000D03*
D12*
%TO.P,U3,17,PA16*%
%TO.N,unconnected-(U3-Pad17)*%
X116597000Y-104515000D03*
%TO.P,U3,18,PA17*%
%TO.N,unconnected-(U3-Pad18)*%
X116597000Y-105315000D03*
%TO.P,U3,19,PA18*%
%TO.N,/MOSI*%
X116597000Y-106115000D03*
%TO.P,U3,20,PA19*%
%TO.N,/SCK*%
X116597000Y-106915000D03*
%TO.P,U3,21,PA22*%
%TO.N,/MISO*%
X116597000Y-107715000D03*
%TO.P,U3,22,PA23*%
%TO.N,/SS_CAN*%
X116597000Y-108515000D03*
%TO.P,U3,23,PA24*%
%TO.N,unconnected-(U3-Pad23)*%
X116597000Y-109315000D03*
%TO.P,U3,24,PA25*%
%TO.N,unconnected-(U3-Pad24)*%
X116597000Y-110115000D03*
D13*
%TO.P,U3,25,PA27*%
%TO.N,unconnected-(U3-Pad25)*%
X117977000Y-111495000D03*
%TO.P,U3,26,~{RESET}*%
%TO.N,/NRST*%
X118777000Y-111495000D03*
%TO.P,U3,27,PA28*%
%TO.N,unconnected-(U3-Pad27)*%
X119577000Y-111495000D03*
%TO.P,U3,28,GND*%
%TO.N,GND*%
X120377000Y-111495000D03*
%TO.P,U3,29,VDDCORE*%
%TO.N,/VDDCORE*%
X121177000Y-111495000D03*
%TO.P,U3,30,VDDIN*%
%TO.N,+3.3V*%
X121977000Y-111495000D03*
%TO.P,U3,31,PA30*%
%TO.N,/SWCLK*%
X122777000Y-111495000D03*
%TO.P,U3,32,PA31*%
%TO.N,/SWDIO*%
X123577000Y-111495000D03*
%TD*%
D10*
%TO.P,D1,1,K*%
%TO.N,Net-(D1-Pad1)*%
X122650000Y-129159000D03*
%TO.P,D1,2,A*%
%TO.N,+9V*%
X118650000Y-129159000D03*
%TD*%
D14*
%TO.P,U2,1,GND*%
%TO.N,GND*%
X107975000Y-126478000D03*
%TO.P,U2,2,VO*%
%TO.N,+5V*%
X107975000Y-128778000D03*
D15*
X114275000Y-128778000D03*
D14*
%TO.P,U2,3,VI*%
%TO.N,+9V*%
X107975000Y-131078000D03*
%TD*%
D10*
%TO.P,R1,1*%
%TO.N,Net-(D1-Pad1)*%
X122777000Y-131953000D03*
%TO.P,R1,2*%
%TO.N,GND*%
X118777000Y-131953000D03*
%TD*%
D16*
%TO.P,CU3_0,1*%
%TO.N,/VDDCORE*%
X115697000Y-115873000D03*
%TO.P,CU3_0,2*%
%TO.N,GND*%
X115697000Y-118823000D03*
%TD*%
D17*
%TO.P,CU3_1,1*%
%TO.N,+3.3V*%
X123268000Y-100330000D03*
%TO.P,CU3_1,2*%
%TO.N,GND*%
X120318000Y-100330000D03*
%TD*%
D18*
%TO.P,SW1,1,A*%
%TO.N,+9V*%
X111038000Y-138601000D03*
%TO.P,SW1,2,B*%
%TO.N,Net-(J3-Pad1)*%
X113538000Y-138601000D03*
%TO.P,SW1,3,C*%
%TO.N,unconnected-(SW1-Pad3)*%
X116038000Y-138601000D03*
%TD*%
D17*
%TO.P,CU1_1,1*%
%TO.N,+3.3V*%
X132158000Y-123571000D03*
%TO.P,CU1_1,2*%
%TO.N,GND*%
X129208000Y-123571000D03*
%TD*%
D19*
%TO.P,CU1_2,1*%
%TO.N,+9V*%
X129208000Y-137287000D03*
%TO.P,CU1_2,2*%
%TO.N,GND*%
X132158000Y-137287000D03*
%TD*%
D20*
%TO.P,J1,1,Pin_1*%
%TO.N,/CAN_INT*%
X103505000Y-104648000D03*
D21*
%TO.P,J1,2,Pin_2*%
%TO.N,/SCK*%
X103505000Y-107188000D03*
%TO.P,J1,3,Pin_3*%
%TO.N,/MOSI*%
X103505000Y-109728000D03*
%TO.P,J1,4,Pin_4*%
%TO.N,/MISO*%
X103505000Y-112268000D03*
%TO.P,J1,5,Pin_5*%
%TO.N,/SS_CAN*%
X103505000Y-114808000D03*
%TO.P,J1,6,Pin_6*%
%TO.N,GND*%
X103505000Y-117348000D03*
%TO.P,J1,7,Pin_7*%
%TO.N,+5V*%
X103505000Y-119888000D03*
%TD*%
D22*
%TO.P,J2,1,Pin_1*%
%TO.N,/A3*%
X133223000Y-105156000D03*
%TO.P,J2,2,Pin_2*%
%TO.N,GND*%
X133223000Y-107696000D03*
%TO.P,J2,3,Pin_3*%
%TO.N,/A2*%
X133223000Y-110236000D03*
%TD*%
D11*
%TO.P,RU1_0,1*%
%TO.N,Net-(DU1_0-Pad1)*%
X136144000Y-126206000D03*
%TO.P,RU1_0,2*%
%TO.N,GND*%
X136144000Y-122206000D03*
%TD*%
D17*
%TO.P,CU1_0,1*%
%TO.N,+3.3V*%
X132158001Y-126365000D03*
%TO.P,CU1_0,2*%
%TO.N,GND*%
X129208001Y-126365000D03*
%TD*%
D11*
%TO.P,DU1_0,1,K*%
%TO.N,Net-(DU1_0-Pad1)*%
X136144000Y-129064000D03*
%TO.P,DU1_0,2,A*%
%TO.N,+3.3V*%
X136144000Y-133064000D03*
%TD*%
D14*
%TO.P,U1,1,GND*%
%TO.N,GND*%
X127279000Y-129399000D03*
D15*
%TO.P,U1,2,VO*%
%TO.N,+3.3V*%
X133579000Y-131699000D03*
D14*
X127279000Y-131699000D03*
%TO.P,U1,3,VI*%
%TO.N,+9V*%
X127279000Y-133999000D03*
%TD*%
D23*
%TO.P,REF\u002A\u002A,1*%
%TO.N,GND*%
X135018214Y-117619214D03*
%TO.P,REF\u002A\u002A,2*%
X132189786Y-114790786D03*
%TD*%
D19*
%TO.P,CU2_1,1*%
%TO.N,+9V*%
X110158000Y-134112000D03*
%TO.P,CU2_1,2*%
%TO.N,GND*%
X113108000Y-134112000D03*
%TD*%
D24*
%TO.P,RU3_0,1,1*%
%TO.N,/NRST*%
X118171500Y-125222000D03*
%TO.P,RU3_0,2,2*%
%TO.N,+3.3V*%
X121096500Y-125222000D03*
%TD*%
D25*
%TO.P,J3,1,Pin_1*%
%TO.N,Net-(J3-Pad1)*%
X122067000Y-138765000D03*
D26*
%TO.P,J3,2,Pin_2*%
%TO.N,GND*%
X124567000Y-138765000D03*
%TD*%
D11*
%TO.P,REF\u002A\u002A,1*%
%TO.N,/MOSI*%
X106680000Y-108807000D03*
%TO.P,REF\u002A\u002A,2*%
X106680000Y-104807000D03*
%TD*%
D17*
%TO.P,CU2_0,1*%
%TO.N,+5V*%
X113108000Y-123571000D03*
%TO.P,CU2_0,2*%
%TO.N,GND*%
X110158000Y-123571000D03*
%TD*%
D27*
%TO.P,J4,1,VCC*%
%TO.N,+3.3V*%
X119462000Y-116713000D03*
%TO.P,J4,2,SWDIO/TMS*%
%TO.N,/SWDIO*%
X123362000Y-116713000D03*
%TO.P,J4,3,GND@3*%
%TO.N,GND*%
X119462000Y-117983000D03*
%TO.P,J4,4,SWDCLK/TCK*%
%TO.N,/SWCLK*%
X123362000Y-117983000D03*
%TO.P,J4,5,GND@5*%
%TO.N,GND*%
X119462000Y-119253000D03*
%TO.P,J4,6,SWO/TDO*%
%TO.N,unconnected-(J4-Pad6)*%
X123362000Y-119253000D03*
%TO.P,J4,7,GND@7*%
%TO.N,GND*%
X119462000Y-120523000D03*
%TO.P,J4,8,NC/TDI*%
%TO.N,unconnected-(J4-Pad8)*%
X123362000Y-120523000D03*
%TO.P,J4,9,GND@9*%
%TO.N,GND*%
X119462000Y-121793000D03*
%TO.P,J4,10,NRESET*%
%TO.N,/NRST*%
X123362000Y-121793000D03*
%TD*%
D28*
%TO.N,/SCK*%
X116578000Y-106934000D02*
X103759000Y-106934000D01*
D29*
%TO.N,/MISO*%
X116597000Y-107715000D02*
X110852000Y-107715000D01*
X106299000Y-112268000D02*
X103505000Y-112268000D01*
X110852000Y-107715000D02*
X106299000Y-112268000D01*
D28*
%TO.N,/MOSI*%
X109290000Y-106115000D02*
X116597000Y-106115000D01*
X107982000Y-104807000D02*
X109290000Y-106115000D01*
X106680000Y-104807000D02*
X107982000Y-104807000D01*
%TO.N,/A4*%
X127762000Y-105406302D02*
X127762000Y-102457000D01*
X126253302Y-106915000D02*
X127762000Y-105406302D01*
X124957000Y-106915000D02*
X126253302Y-106915000D01*
D30*
%TO.N,Net-(DU3_0-Pad1)*%
X124809000Y-97917000D02*
X127222000Y-97917000D01*
X127222000Y-97917000D02*
X127762000Y-98457000D01*
D28*
%TO.N,+3.3V*%
X121977000Y-112973000D02*
X121977000Y-111495000D01*
D30*
X136779000Y-104140000D02*
X132969000Y-100330000D01*
X134779000Y-131699000D02*
X136144000Y-133064000D01*
X132158001Y-126365000D02*
X132158000Y-123571000D01*
D29*
X121977000Y-110152978D02*
X121977000Y-111495000D01*
X123577000Y-108552978D02*
X121977000Y-110152978D01*
D30*
X124968000Y-130810000D02*
X125857000Y-131699000D01*
X132969000Y-100330000D02*
X123268000Y-100330000D01*
X122009822Y-125222000D02*
X124968000Y-128180178D01*
X121096500Y-125222000D02*
X122009822Y-125222000D01*
D28*
X119462000Y-116713000D02*
X119462000Y-115488000D01*
X119462000Y-115488000D02*
X121977000Y-112973000D01*
D30*
X133579000Y-131699000D02*
X133579000Y-128459178D01*
X125857000Y-131699000D02*
X127279000Y-131699000D01*
X136779000Y-113157000D02*
X136779000Y-104140000D01*
D29*
X123577000Y-100639000D02*
X123577000Y-103135000D01*
X123577000Y-103135000D02*
X123577000Y-108552978D01*
D30*
X133579000Y-128459178D02*
X132080000Y-126960178D01*
X132080000Y-117856000D02*
X136779000Y-113157000D01*
X124968000Y-128180178D02*
X124968000Y-130810000D01*
X132080000Y-126960178D02*
X132080000Y-117856000D01*
X133579000Y-131699000D02*
X134779000Y-131699000D01*
X133579000Y-131699000D02*
X127279000Y-131699000D01*
D29*
%TO.N,GND*%
X112903000Y-117983000D02*
X113743000Y-118823000D01*
X114935000Y-113919000D02*
X112903000Y-115951000D01*
X122777000Y-103135000D02*
X122777000Y-102004800D01*
X120377000Y-111495000D02*
X120377000Y-112541000D01*
X118999000Y-113919000D02*
X114935000Y-113919000D01*
X121102200Y-100330000D02*
X120318000Y-100330000D01*
X122777000Y-107752978D02*
X120377000Y-110152978D01*
X120377000Y-110152978D02*
X120377000Y-111495000D01*
X122777000Y-103135000D02*
X122777000Y-107752978D01*
X112903000Y-115951000D02*
X112903000Y-117983000D01*
X120377000Y-112541000D02*
X118999000Y-113919000D01*
X113743000Y-118823000D02*
X115697000Y-118823000D01*
X122777000Y-102004800D02*
X121102200Y-100330000D01*
D30*
%TO.N,+9V*%
X107975000Y-131078000D02*
X110158000Y-133261000D01*
X118539000Y-129159000D02*
X115745000Y-131953000D01*
X115745000Y-131953000D02*
X108850000Y-131953000D01*
X110617000Y-136656000D02*
X110617000Y-134571000D01*
X111165000Y-137204000D02*
X110617000Y-136656000D01*
X129208000Y-135928000D02*
X127279000Y-133999000D01*
X110158000Y-133261000D02*
X110158000Y-134112000D01*
X120269000Y-129159000D02*
X118650000Y-129159000D01*
X121817249Y-133985000D02*
X120873249Y-133041000D01*
X120873249Y-129763249D02*
X120269000Y-129159000D01*
X129208000Y-137287000D02*
X129208000Y-135928000D01*
X127265000Y-133985000D02*
X121817249Y-133985000D01*
X110617000Y-134571000D02*
X110158000Y-134112000D01*
X108850000Y-131953000D02*
X107975000Y-131078000D01*
X120873249Y-133041000D02*
X120873249Y-129763249D01*
%TO.N,+5V*%
X107975000Y-128778000D02*
X114275000Y-128778000D01*
X113108000Y-122252000D02*
X110744000Y-119888000D01*
X114275000Y-128778000D02*
X113108000Y-127611000D01*
X113108000Y-127611000D02*
X113108000Y-122252000D01*
X110744000Y-119888000D02*
X103505000Y-119888000D01*
D28*
%TO.N,/VDDCORE*%
X118146221Y-115794849D02*
X121177000Y-112764070D01*
X115775151Y-115794849D02*
X118146221Y-115794849D01*
X121177000Y-112764070D02*
X121177000Y-111495000D01*
D30*
%TO.N,Net-(D1-Pad1)*%
X122777000Y-129286000D02*
X122777000Y-131953000D01*
%TO.N,Net-(DU1_0-Pad1)*%
X136144000Y-129064000D02*
X136144000Y-126206000D01*
D29*
%TO.N,/CAN_INT*%
X118777000Y-101792978D02*
X118777000Y-103135000D01*
X103505000Y-104648000D02*
X107168000Y-100985000D01*
X107168000Y-100985000D02*
X117969022Y-100985000D01*
X117969022Y-100985000D02*
X118777000Y-101792978D01*
D28*
%TO.N,/MOSI*%
X103505000Y-109728000D02*
X104902000Y-109728000D01*
X104902000Y-109728000D02*
X105823000Y-108807000D01*
X105823000Y-108807000D02*
X106680000Y-108807000D01*
D29*
%TO.N,/SS_CAN*%
X113653000Y-108515000D02*
X107360000Y-114808000D01*
X116597000Y-108515000D02*
X113653000Y-108515000D01*
X107360000Y-114808000D02*
X103505000Y-114808000D01*
%TO.N,/A2*%
X124957000Y-108515000D02*
X130336000Y-108515000D01*
X132057000Y-110236000D02*
X133223000Y-110236000D01*
X130336000Y-108515000D02*
X132057000Y-110236000D01*
%TO.N,/A3*%
X131529000Y-105156000D02*
X133223000Y-105156000D01*
X124957000Y-107715000D02*
X128970000Y-107715000D01*
X128970000Y-107715000D02*
X131529000Y-105156000D01*
D28*
%TO.N,/SWDIO*%
X123577000Y-116498000D02*
X123577000Y-111495000D01*
%TO.N,/SWCLK*%
X121412000Y-115062000D02*
X121412000Y-117221000D01*
X122777000Y-113697000D02*
X121412000Y-115062000D01*
X122777000Y-111495000D02*
X122777000Y-113697000D01*
X121412000Y-117221000D02*
X122174000Y-117983000D01*
D31*
X123362000Y-117983000D02*
X122174000Y-117983000D01*
D28*
%TO.N,/NRST*%
X122047000Y-121793000D02*
X118618000Y-125222000D01*
X118777000Y-111495000D02*
X118777000Y-112811622D01*
X118618000Y-125222000D02*
X118171500Y-125222000D01*
X118777000Y-112811622D02*
X118685622Y-112903000D01*
X111760000Y-118810500D02*
X118171500Y-125222000D01*
X111760000Y-115951000D02*
X111760000Y-118810500D01*
X114808000Y-112903000D02*
X111760000Y-115951000D01*
X123362000Y-121793000D02*
X122047000Y-121793000D01*
X118685622Y-112903000D02*
X114808000Y-112903000D01*
D30*
%TO.N,Net-(J3-Pad1)*%
X113538000Y-138601000D02*
X113538000Y-137287000D01*
X119446000Y-135890000D02*
X122067000Y-138511000D01*
X114935000Y-135890000D02*
X119446000Y-135890000D01*
X113538000Y-137287000D02*
X114935000Y-135890000D01*
%TD*%
%TA.AperFunction,Conductor*%
%TO.N,GND*%
G36*
X119009165Y-95997421D02*
G01*
X137427716Y-95997422D01*
X137447101Y-95998922D01*
X137461934Y-96001232D01*
X137461938Y-96001232D01*
X137470807Y-96002613D01*
X137488005Y-96000364D01*
X137511946Y-95999531D01*
X137769794Y-96015126D01*
X137784896Y-96016960D01*
X137925369Y-96042702D01*
X138065839Y-96068443D01*
X138080612Y-96072084D01*
X138261360Y-96128406D01*
X138353303Y-96157056D01*
X138367525Y-96162449D01*
X138628001Y-96279679D01*
X138641468Y-96286748D01*
X138885901Y-96434513D01*
X138898422Y-96443156D01*
X139123256Y-96619301D01*
X139134645Y-96629391D01*
X139336609Y-96831355D01*
X139346699Y-96842744D01*
X139522844Y-97067578D01*
X139531487Y-97080099D01*
X139679252Y-97324532D01*
X139686321Y-97337999D01*
X139803546Y-97598464D01*
X139803550Y-97598473D01*
X139808945Y-97612700D01*
X139893916Y-97885388D01*
X139897557Y-97900161D01*
X139949040Y-98181101D01*
X139950874Y-98196206D01*
X139966032Y-98446828D01*
X139964772Y-98473599D01*
X139964770Y-98473773D01*
X139963389Y-98482641D01*
X139964553Y-98491544D01*
X139964553Y-98491547D01*
X139967489Y-98514002D01*
X139968553Y-98530415D01*
X139955989Y-117812670D01*
X139943209Y-137427596D01*
X139941710Y-137446891D01*
X139937987Y-137470807D01*
X139940197Y-137487706D01*
X139940236Y-137488004D01*
X139941069Y-137511946D01*
X139925474Y-137769794D01*
X139923640Y-137784899D01*
X139872157Y-138065839D01*
X139868516Y-138080612D01*
X139783545Y-138353300D01*
X139778151Y-138367525D01*
X139662410Y-138624694D01*
X139660924Y-138627995D01*
X139653852Y-138641468D01*
X139506087Y-138885901D01*
X139497444Y-138898422D01*
X139321299Y-139123256D01*
X139311209Y-139134645D01*
X139109245Y-139336609D01*
X139097856Y-139346699D01*
X138873022Y-139522844D01*
X138860501Y-139531487D01*
X138616068Y-139679252D01*
X138602601Y-139686321D01*
X138344009Y-139802703D01*
X138342127Y-139803550D01*
X138327903Y-139808944D01*
X138277506Y-139824648D01*
X138055212Y-139893916D01*
X138040439Y-139897557D01*
X137899969Y-139923298D01*
X137759496Y-139949040D01*
X137744394Y-139950874D01*
X137493772Y-139966032D01*
X137467001Y-139964772D01*
X137466827Y-139964770D01*
X137457959Y-139963389D01*
X137449056Y-139964553D01*
X137449051Y-139964553D01*
X137426389Y-139967516D01*
X137410053Y-139968580D01*
X123490259Y-139968580D01*
X123422138Y-139948578D01*
X123375645Y-139894922D01*
X123365541Y-139824648D01*
X123370666Y-139802913D01*
X123412632Y-139676389D01*
X123412632Y-139676387D01*
X123414797Y-139669861D01*
X123425500Y-139565400D01*
X123425500Y-137964600D01*
X123414526Y-137858834D01*
X123358550Y-137691054D01*
X123265478Y-137540652D01*
X123140303Y-137415695D01*
X122989738Y-137322885D01*
X122909995Y-137296436D01*
X122828389Y-137269368D01*
X122828387Y-137269368D01*
X122821861Y-137267203D01*
X122815025Y-137266503D01*
X122815022Y-137266502D01*
X122771969Y-137262091D01*
X122717400Y-137256500D01*
X122122633Y-137256500D01*
X122054512Y-137236498D01*
X122033538Y-137219595D01*
X120131489Y-135317546D01*
X120118652Y-135302518D01*
X120110669Y-135291530D01*
X120095090Y-135277502D01*
X120060937Y-135246751D01*
X120056153Y-135242210D01*
X120042006Y-135228063D01*
X120026446Y-135215463D01*
X120021425Y-135211175D01*
X119976619Y-135170830D01*
X119976615Y-135170827D01*
X119971715Y-135166415D01*
X119966005Y-135163119D01*
X119966002Y-135163116D01*
X119959955Y-135159625D01*
X119943670Y-135148432D01*
X119933125Y-135139893D01*
X119873518Y-135109522D01*
X119867724Y-135106376D01*
X119861975Y-135103057D01*
X119809785Y-135072925D01*
X119796875Y-135068730D01*
X119778614Y-135061166D01*
X119766524Y-135055006D01*
X119701906Y-135037691D01*
X119695582Y-135035818D01*
X119686981Y-135033023D01*
X119631956Y-135015145D01*
X119625389Y-135014455D01*
X119625385Y-135014454D01*
X119619712Y-135013858D01*
X119618470Y-135013728D01*
X119599028Y-135010125D01*
X119593761Y-135008714D01*
X119592293Y-135008320D01*
X119592292Y-135008320D01*
X119585915Y-135006611D01*
X119579318Y-135006265D01*
X119579316Y-135006265D01*
X119519113Y-135003110D01*
X119512539Y-135002593D01*
X119495895Y-135000844D01*
X119495891Y-135000844D01*
X119492620Y-135000500D01*
X119472593Y-135000500D01*
X119465999Y-135000327D01*
X119405782Y-134997171D01*
X119405778Y-134997171D01*
X119399190Y-134996826D01*
X119392675Y-134997858D01*
X119392673Y-134997858D01*
X119385786Y-134998949D01*
X119366075Y-135000500D01*
X115014925Y-135000500D01*
X114995214Y-134998949D01*
X114988327Y-134997858D01*
X114988325Y-134997858D01*
X114981810Y-134996826D01*
X114975223Y-134997171D01*
X114975218Y-134997171D01*
X114915008Y-135000327D01*
X114908414Y-135000500D01*
X114888380Y-135000500D01*
X114885106Y-135000844D01*
X114885107Y-135000844D01*
X114868454Y-135002594D01*
X114861880Y-135003111D01*
X114801681Y-135006266D01*
X114801678Y-135006266D01*
X114795085Y-135006612D01*
X114788706Y-135008321D01*
X114788707Y-135008321D01*
X114781977Y-135010124D01*
X114762544Y-135013725D01*
X114755614Y-135014454D01*
X114755610Y-135014455D01*
X114749044Y-135015145D01*
X114685408Y-135035822D01*
X114679101Y-135037690D01*
X114614475Y-135055006D01*
X114608588Y-135058006D01*
X114608587Y-135058006D01*
X114602385Y-135061166D01*
X114584121Y-135068731D01*
X114577504Y-135070881D01*
X114577499Y-135070883D01*
X114571215Y-135072925D01*
X114517436Y-135103974D01*
X114513276Y-135106376D01*
X114507481Y-135109522D01*
X114453762Y-135136894D01*
X114453759Y-135136896D01*
X114447875Y-135139894D01*
X114442743Y-135144050D01*
X114442740Y-135144052D01*
X114437329Y-135148433D01*
X114421044Y-135159626D01*
X114409285Y-135166415D01*
X114404378Y-135170833D01*
X114404377Y-135170834D01*
X114359576Y-135211173D01*
X114354561Y-135215457D01*
X114341559Y-135225986D01*
X114338994Y-135228063D01*
X114324847Y-135242210D01*
X114320063Y-135246751D01*
X114285911Y-135277502D01*
X114270331Y-135291530D01*
X114262348Y-135302518D01*
X114249511Y-135317546D01*
X112965546Y-136601511D01*
X112950518Y-136614348D01*
X112939530Y-136622331D01*
X112935117Y-136627233D01*
X112935115Y-136627234D01*
X112894751Y-136672063D01*
X112890210Y-136676847D01*
X112876063Y-136690994D01*
X112873986Y-136693559D01*
X112863463Y-136706554D01*
X112859181Y-136711568D01*
X112849303Y-136722539D01*
X112818830Y-136756381D01*
X112818827Y-136756385D01*
X112814415Y-136761285D01*
X112811119Y-136766995D01*
X112811116Y-136766998D01*
X112807625Y-136773045D01*
X112796432Y-136789330D01*
X112787896Y-136799872D01*
X112785660Y-136798062D01*
X112741341Y-136836090D01*
X112703163Y-136846487D01*
X112698587Y-136846984D01*
X112677684Y-136849255D01*
X112541295Y-136900385D01*
X112424739Y-136987739D01*
X112388824Y-137035660D01*
X112331967Y-137078173D01*
X112261149Y-137083199D01*
X112198855Y-137049139D01*
X112187183Y-137035670D01*
X112151261Y-136987739D01*
X112034705Y-136900385D01*
X112031711Y-136899263D01*
X111981887Y-136847939D01*
X111918104Y-136722756D01*
X111918102Y-136722752D01*
X111915107Y-136716875D01*
X111910953Y-136711746D01*
X111910951Y-136711742D01*
X111835409Y-136618456D01*
X111826937Y-136607994D01*
X111543405Y-136324462D01*
X111509379Y-136262150D01*
X111506500Y-136235367D01*
X111506500Y-134650925D01*
X111508051Y-134631214D01*
X111509142Y-134624327D01*
X111509142Y-134624325D01*
X111510174Y-134617810D01*
X111508375Y-134583470D01*
X111506673Y-134551008D01*
X111506500Y-134544414D01*
X111506500Y-134524380D01*
X111504406Y-134504454D01*
X111503889Y-134497880D01*
X111500734Y-134437679D01*
X111500733Y-134437675D01*
X111500388Y-134431085D01*
X111498680Y-134424710D01*
X111498679Y-134424705D01*
X111496877Y-134417980D01*
X111493273Y-134398536D01*
X111492545Y-134391610D01*
X111491855Y-134385044D01*
X111471172Y-134321386D01*
X111469320Y-134315138D01*
X111451994Y-134250476D01*
X111445833Y-134238384D01*
X111438269Y-134220123D01*
X111436116Y-134213497D01*
X111434075Y-134207215D01*
X111400624Y-134149276D01*
X111397477Y-134143480D01*
X111367107Y-134083875D01*
X111358568Y-134073330D01*
X111347375Y-134057045D01*
X111343884Y-134050998D01*
X111343881Y-134050995D01*
X111340585Y-134045285D01*
X111336173Y-134040385D01*
X111336170Y-134040381D01*
X111295825Y-133995575D01*
X111291537Y-133990554D01*
X111281014Y-133977559D01*
X111278937Y-133974994D01*
X111276600Y-133972657D01*
X111274402Y-133970216D01*
X111275531Y-133969199D01*
X111244379Y-133912150D01*
X111241500Y-133885367D01*
X111241500Y-133411600D01*
X111239454Y-133391877D01*
X111231238Y-133312692D01*
X111231237Y-133312688D01*
X111230526Y-133305834D01*
X111227548Y-133296906D01*
X111176868Y-133145002D01*
X111174550Y-133138054D01*
X111110656Y-133034803D01*
X111091818Y-132966351D01*
X111112979Y-132898582D01*
X111167420Y-132853010D01*
X111217800Y-132842500D01*
X115665075Y-132842500D01*
X115684786Y-132844051D01*
X115691673Y-132845142D01*
X115691675Y-132845142D01*
X115698190Y-132846174D01*
X115704778Y-132845829D01*
X115704782Y-132845829D01*
X115764999Y-132842673D01*
X115771593Y-132842500D01*
X115791620Y-132842500D01*
X115794891Y-132842156D01*
X115794895Y-132842156D01*
X115811539Y-132840407D01*
X115818113Y-132839890D01*
X115878316Y-132836735D01*
X115878318Y-132836735D01*
X115884915Y-132836389D01*
X115898028Y-132832875D01*
X115917470Y-132829272D01*
X115918712Y-132829142D01*
X115924385Y-132828546D01*
X115924389Y-132828545D01*
X115930956Y-132827855D01*
X115994581Y-132807182D01*
X116000906Y-132805309D01*
X116008359Y-132803312D01*
X116065524Y-132787994D01*
X116077616Y-132781833D01*
X116095875Y-132774270D01*
X116108785Y-132770075D01*
X116166724Y-132736624D01*
X116172520Y-132733477D01*
X116232125Y-132703107D01*
X116242670Y-132694568D01*
X116258955Y-132683375D01*
X116265002Y-132679884D01*
X116265005Y-132679881D01*
X116270715Y-132676585D01*
X116275615Y-132672173D01*
X116275619Y-132672170D01*
X116320425Y-132631825D01*
X116325446Y-132627537D01*
X116338441Y-132617014D01*
X116341006Y-132614937D01*
X116355153Y-132600790D01*
X116359937Y-132596249D01*
X116404766Y-132555885D01*
X116404767Y-132555883D01*
X116409669Y-132551470D01*
X116417652Y-132540482D01*
X116430489Y-132525454D01*
X118401538Y-130554405D01*
X118463850Y-130520379D01*
X118490633Y-130517500D01*
X119698134Y-130517500D01*
X119760316Y-130510745D01*
X119813519Y-130490800D01*
X119884327Y-130485617D01*
X119946695Y-130519538D01*
X119980825Y-130581793D01*
X119983749Y-130608782D01*
X119983749Y-132961075D01*
X119982198Y-132980786D01*
X119981111Y-132987652D01*
X119980075Y-132994190D01*
X119980420Y-133000778D01*
X119980420Y-133000782D01*
X119983576Y-133060999D01*
X119983749Y-133067593D01*
X119983749Y-133087620D01*
X119984093Y-133090891D01*
X119984093Y-133090895D01*
X119985842Y-133107539D01*
X119986359Y-133114113D01*
X119989514Y-133174316D01*
X119989860Y-133180915D01*
X119991569Y-133187292D01*
X119991569Y-133187293D01*
X119993373Y-133194023D01*
X119996977Y-133213470D01*
X119998394Y-133226956D01*
X120000436Y-133233240D01*
X120019067Y-133290582D01*
X120020940Y-133296906D01*
X120038255Y-133361524D01*
X120044416Y-133373616D01*
X120051979Y-133391875D01*
X120056174Y-133404785D01*
X120086306Y-133456975D01*
X120089625Y-133462724D01*
X120092772Y-133468520D01*
X120123142Y-133528125D01*
X120127299Y-133533258D01*
X120131681Y-133538670D01*
X120142874Y-133554955D01*
X120146365Y-133561002D01*
X120146368Y-133561005D01*
X120149664Y-133566715D01*
X120154076Y-133571615D01*
X120154079Y-133571619D01*
X120194424Y-133616425D01*
X120198712Y-133621446D01*
X120211312Y-133637006D01*
X120225459Y-133651153D01*
X120230000Y-133655937D01*
X120274779Y-133705669D01*
X120285767Y-133713652D01*
X120300795Y-133726489D01*
X121131760Y-134557454D01*
X121144597Y-134572482D01*
X121152580Y-134583470D01*
X121157482Y-134587883D01*
X121157483Y-134587885D01*
X121202312Y-134628249D01*
X121207096Y-134632790D01*
X121221243Y-134646937D01*
X121223808Y-134649014D01*
X121236803Y-134659537D01*
X121241824Y-134663825D01*
X121286630Y-134704170D01*
X121286634Y-134704173D01*
X121291534Y-134708585D01*
X121297244Y-134711881D01*
X121297247Y-134711884D01*
X121303294Y-134715375D01*
X121319579Y-134726568D01*
X121330124Y-134735107D01*
X121389729Y-134765477D01*
X121395525Y-134768624D01*
X121453464Y-134802075D01*
X121466374Y-134806270D01*
X121484633Y-134813833D01*
X121496725Y-134819994D01*
X121553890Y-134835312D01*
X121561343Y-134837309D01*
X121567668Y-134839182D01*
X121631293Y-134859855D01*
X121637860Y-134860545D01*
X121637864Y-134860546D01*
X121643537Y-134861142D01*
X121644779Y-134861272D01*
X121664221Y-134864875D01*
X121677334Y-134868389D01*
X121683931Y-134868735D01*
X121683933Y-134868735D01*
X121744136Y-134871890D01*
X121750710Y-134872407D01*
X121767354Y-134874156D01*
X121767358Y-134874156D01*
X121770629Y-134874500D01*
X121790656Y-134874500D01*
X121797250Y-134874673D01*
X121857467Y-134877829D01*
X121857471Y-134877829D01*
X121864059Y-134878174D01*
X121870574Y-134877142D01*
X121870576Y-134877142D01*
X121877463Y-134876051D01*
X121897174Y-134874500D01*
X125695619Y-134874500D01*
X125763740Y-134894502D01*
X125810233Y-134948158D01*
X125813601Y-134956269D01*
X125828385Y-134995705D01*
X125915739Y-135112261D01*
X126032295Y-135199615D01*
X126168684Y-135250745D01*
X126230866Y-135257500D01*
X127227367Y-135257500D01*
X127295488Y-135277502D01*
X127316462Y-135294405D01*
X128175919Y-136153862D01*
X128209945Y-136216174D01*
X128204880Y-136286989D01*
X128197488Y-136302110D01*
X128194730Y-136308025D01*
X128190885Y-136314262D01*
X128135203Y-136482139D01*
X128124500Y-136586600D01*
X128124500Y-137987400D01*
X128124837Y-137990646D01*
X128124837Y-137990650D01*
X128134172Y-138080613D01*
X128135474Y-138093166D01*
X128191450Y-138260946D01*
X128284522Y-138411348D01*
X128409697Y-138536305D01*
X128415927Y-138540145D01*
X128415928Y-138540146D01*
X128553090Y-138624694D01*
X128560262Y-138629115D01*
X128640005Y-138655564D01*
X128721611Y-138682632D01*
X128721613Y-138682632D01*
X128728139Y-138684797D01*
X128734975Y-138685497D01*
X128734978Y-138685498D01*
X128778031Y-138689909D01*
X128832600Y-138695500D01*
X129583400Y-138695500D01*
X129586646Y-138695163D01*
X129586650Y-138695163D01*
X129682308Y-138685238D01*
X129682312Y-138685237D01*
X129689166Y-138684526D01*
X129695702Y-138682345D01*
X129695704Y-138682345D01*
X129837787Y-138634942D01*
X129856946Y-138628550D01*
X130007348Y-138535478D01*
X130132305Y-138410303D01*
X130136146Y-138404072D01*
X130221275Y-138265968D01*
X130221276Y-138265966D01*
X130225115Y-138259738D01*
X130280797Y-138091861D01*
X130281950Y-138080613D01*
X130291172Y-137990598D01*
X130291500Y-137987400D01*
X130291500Y-136983000D01*
X135348526Y-136983000D01*
X135368391Y-137235403D01*
X135369545Y-137240210D01*
X135369546Y-137240216D01*
X135388840Y-137320581D01*
X135427495Y-137481591D01*
X135429388Y-137486162D01*
X135429389Y-137486164D01*
X135511677Y-137684824D01*
X135524384Y-137715502D01*
X135656672Y-137931376D01*
X135821102Y-138123898D01*
X136013624Y-138288328D01*
X136229498Y-138420616D01*
X136234068Y-138422509D01*
X136234072Y-138422511D01*
X136458836Y-138515611D01*
X136463409Y-138517505D01*
X136538273Y-138535478D01*
X136704784Y-138575454D01*
X136704790Y-138575455D01*
X136709597Y-138576609D01*
X136809416Y-138584465D01*
X136896345Y-138591307D01*
X136896352Y-138591307D01*
X136898801Y-138591500D01*
X137025199Y-138591500D01*
X137027648Y-138591307D01*
X137027655Y-138591307D01*
X137114584Y-138584465D01*
X137214403Y-138576609D01*
X137219210Y-138575455D01*
X137219216Y-138575454D01*
X137385727Y-138535478D01*
X137460591Y-138517505D01*
X137465164Y-138515611D01*
X137689928Y-138422511D01*
X137689932Y-138422509D01*
X137694502Y-138420616D01*
X137910376Y-138288328D01*
X138102898Y-138123898D01*
X138267328Y-137931376D01*
X138399616Y-137715502D01*
X138412324Y-137684824D01*
X138494611Y-137486164D01*
X138494612Y-137486162D01*
X138496505Y-137481591D01*
X138535160Y-137320581D01*
X138554454Y-137240216D01*
X138554455Y-137240210D01*
X138555609Y-137235403D01*
X138575474Y-136983000D01*
X138555609Y-136730597D01*
X138553675Y-136722539D01*
X138497660Y-136489221D01*
X138496505Y-136484409D01*
X138430253Y-136324462D01*
X138401511Y-136255072D01*
X138401509Y-136255068D01*
X138399616Y-136250498D01*
X138267328Y-136034624D01*
X138102898Y-135842102D01*
X137910376Y-135677672D01*
X137694502Y-135545384D01*
X137689932Y-135543491D01*
X137689928Y-135543489D01*
X137465164Y-135450389D01*
X137465162Y-135450388D01*
X137460591Y-135448495D01*
X137352830Y-135422624D01*
X137219216Y-135390546D01*
X137219210Y-135390545D01*
X137214403Y-135389391D01*
X137114584Y-135381535D01*
X137027655Y-135374693D01*
X137027648Y-135374693D01*
X137025199Y-135374500D01*
X136898801Y-135374500D01*
X136896352Y-135374693D01*
X136896345Y-135374693D01*
X136809416Y-135381535D01*
X136709597Y-135389391D01*
X136704790Y-135390545D01*
X136704784Y-135390546D01*
X136571170Y-135422624D01*
X136463409Y-135448495D01*
X136458838Y-135450388D01*
X136458836Y-135450389D01*
X136234072Y-135543489D01*
X136234068Y-135543491D01*
X136229498Y-135545384D01*
X136013624Y-135677672D01*
X135821102Y-135842102D01*
X135656672Y-136034624D01*
X135524384Y-136250498D01*
X135522491Y-136255068D01*
X135522489Y-136255072D01*
X135493747Y-136324462D01*
X135427495Y-136484409D01*
X135426340Y-136489221D01*
X135370326Y-136722539D01*
X135368391Y-136730597D01*
X135348526Y-136983000D01*
X130291500Y-136983000D01*
X130291500Y-136586600D01*
X130290408Y-136576075D01*
X130281238Y-136487692D01*
X130281237Y-136487688D01*
X130280526Y-136480834D01*
X130224550Y-136313054D01*
X130131478Y-136162652D01*
X130126296Y-136157479D01*
X130124753Y-136155532D01*
X130098117Y-136089721D01*
X130097500Y-136077269D01*
X130097500Y-136007925D01*
X130099051Y-135988214D01*
X130100142Y-135981327D01*
X130100142Y-135981325D01*
X130101174Y-135974810D01*
X130097673Y-135908001D01*
X130097500Y-135901407D01*
X130097500Y-135881380D01*
X130095407Y-135861461D01*
X130094890Y-135854887D01*
X130091735Y-135794684D01*
X130091735Y-135794682D01*
X130091389Y-135788085D01*
X130087875Y-135774972D01*
X130084272Y-135755529D01*
X130083546Y-135748615D01*
X130083545Y-135748611D01*
X130082855Y-135742044D01*
X130062182Y-135678418D01*
X130060309Y-135672094D01*
X130044704Y-135613859D01*
X130042994Y-135607476D01*
X130036833Y-135595384D01*
X130029269Y-135577123D01*
X130027116Y-135570497D01*
X130025075Y-135564215D01*
X129991624Y-135506276D01*
X129988477Y-135500480D01*
X129986976Y-135497534D01*
X129958107Y-135440875D01*
X129949568Y-135430330D01*
X129938375Y-135414045D01*
X129934884Y-135407998D01*
X129934881Y-135407995D01*
X129931585Y-135402285D01*
X129927173Y-135397385D01*
X129927170Y-135397381D01*
X129886825Y-135352575D01*
X129882537Y-135347554D01*
X129872014Y-135334559D01*
X129869937Y-135331994D01*
X129855790Y-135317847D01*
X129851249Y-135313063D01*
X129810885Y-135268234D01*
X129810883Y-135268233D01*
X129806470Y-135263331D01*
X129795482Y-135255348D01*
X129780454Y-135242511D01*
X128824405Y-134286462D01*
X128790379Y-134224150D01*
X128787500Y-134197367D01*
X128787500Y-133200866D01*
X128780745Y-133138684D01*
X128729615Y-133002295D01*
X128723541Y-132994190D01*
X128671360Y-132924565D01*
X128646512Y-132858058D01*
X128661565Y-132788676D01*
X128671360Y-132773435D01*
X128724233Y-132702887D01*
X128724235Y-132702884D01*
X128729615Y-132695705D01*
X128739150Y-132670270D01*
X128781792Y-132613505D01*
X128848354Y-132588806D01*
X128857132Y-132588500D01*
X131944500Y-132588500D01*
X132012621Y-132608502D01*
X132059114Y-132662158D01*
X132070500Y-132714500D01*
X132070500Y-133647134D01*
X132077255Y-133709316D01*
X132128385Y-133845705D01*
X132215739Y-133962261D01*
X132332295Y-134049615D01*
X132468684Y-134100745D01*
X132530866Y-134107500D01*
X134627134Y-134107500D01*
X134630529Y-134107131D01*
X134630533Y-134107131D01*
X134664475Y-134103444D01*
X134734358Y-134115973D01*
X134786373Y-134164294D01*
X134796064Y-134184477D01*
X134818601Y-134244594D01*
X134843385Y-134310705D01*
X134930739Y-134427261D01*
X135047295Y-134514615D01*
X135183684Y-134565745D01*
X135245866Y-134572500D01*
X137042134Y-134572500D01*
X137104316Y-134565745D01*
X137240705Y-134514615D01*
X137357261Y-134427261D01*
X137444615Y-134310705D01*
X137495745Y-134174316D01*
X137502500Y-134112134D01*
X137502500Y-132015866D01*
X137495745Y-131953684D01*
X137444615Y-131817295D01*
X137357261Y-131700739D01*
X137240705Y-131613385D01*
X137104316Y-131562255D01*
X137042134Y-131555500D01*
X135945633Y-131555500D01*
X135877512Y-131535498D01*
X135856538Y-131518595D01*
X135464489Y-131126546D01*
X135451652Y-131111518D01*
X135443669Y-131100530D01*
X135393937Y-131055751D01*
X135389153Y-131051210D01*
X135375006Y-131037063D01*
X135359446Y-131024463D01*
X135354425Y-131020175D01*
X135309619Y-130979830D01*
X135309615Y-130979827D01*
X135304715Y-130975415D01*
X135299005Y-130972119D01*
X135299002Y-130972116D01*
X135292955Y-130968625D01*
X135276670Y-130957432D01*
X135266125Y-130948893D01*
X135206520Y-130918523D01*
X135200723Y-130915375D01*
X135150500Y-130886379D01*
X135101507Y-130834997D01*
X135087500Y-130777260D01*
X135087500Y-130695725D01*
X135107502Y-130627604D01*
X135161158Y-130581111D01*
X135227108Y-130570462D01*
X135245866Y-130572500D01*
X137042134Y-130572500D01*
X137104316Y-130565745D01*
X137240705Y-130514615D01*
X137357261Y-130427261D01*
X137444615Y-130310705D01*
X137495745Y-130174316D01*
X137502500Y-130112134D01*
X137502500Y-128015866D01*
X137495745Y-127953684D01*
X137444615Y-127817295D01*
X137364625Y-127710564D01*
X137339777Y-127644059D01*
X137354830Y-127574676D01*
X137364625Y-127559435D01*
X137371107Y-127550786D01*
X137444615Y-127452705D01*
X137495745Y-127316316D01*
X137502500Y-127254134D01*
X137502500Y-125157866D01*
X137495745Y-125095684D01*
X137444615Y-124959295D01*
X137357261Y-124842739D01*
X137240705Y-124755385D01*
X137104316Y-124704255D01*
X137042134Y-124697500D01*
X135245866Y-124697500D01*
X135183684Y-124704255D01*
X135047295Y-124755385D01*
X134930739Y-124842739D01*
X134843385Y-124959295D01*
X134792255Y-125095684D01*
X134785500Y-125157866D01*
X134785500Y-127254134D01*
X134792255Y-127316316D01*
X134843385Y-127452705D01*
X134916893Y-127550786D01*
X134923375Y-127559435D01*
X134948223Y-127625941D01*
X134933170Y-127695324D01*
X134923376Y-127710563D01*
X134843385Y-127817295D01*
X134792255Y-127953684D01*
X134785500Y-128015866D01*
X134785500Y-129167275D01*
X134765498Y-129235396D01*
X134711842Y-129281889D01*
X134645892Y-129292538D01*
X134627134Y-129290500D01*
X134594500Y-129290500D01*
X134526379Y-129270498D01*
X134479886Y-129216842D01*
X134468500Y-129164500D01*
X134468500Y-128539103D01*
X134470051Y-128519392D01*
X134471142Y-128512505D01*
X134471142Y-128512503D01*
X134472174Y-128505988D01*
X134471829Y-128499394D01*
X134468673Y-128439186D01*
X134468500Y-128432592D01*
X134468500Y-128412558D01*
X134466406Y-128392632D01*
X134465889Y-128386058D01*
X134462734Y-128325859D01*
X134462734Y-128325856D01*
X134462388Y-128319263D01*
X134460212Y-128311143D01*
X134458876Y-128306155D01*
X134455275Y-128286722D01*
X134454546Y-128279792D01*
X134454545Y-128279788D01*
X134453855Y-128273222D01*
X134433178Y-128209586D01*
X134431307Y-128203269D01*
X134415703Y-128145030D01*
X134415702Y-128145027D01*
X134413994Y-128138653D01*
X134410998Y-128132773D01*
X134410995Y-128132765D01*
X134407832Y-128126557D01*
X134400269Y-128108300D01*
X134398116Y-128101674D01*
X134398116Y-128101673D01*
X134396075Y-128095393D01*
X134362629Y-128037463D01*
X134359483Y-128031669D01*
X134329107Y-127972053D01*
X134320568Y-127961508D01*
X134309375Y-127945223D01*
X134305884Y-127939176D01*
X134305881Y-127939173D01*
X134302585Y-127933463D01*
X134298173Y-127928563D01*
X134298170Y-127928559D01*
X134271331Y-127898753D01*
X134257819Y-127883746D01*
X134253537Y-127878732D01*
X134243014Y-127865737D01*
X134240937Y-127863172D01*
X134226790Y-127849025D01*
X134222249Y-127844241D01*
X134181885Y-127799412D01*
X134181883Y-127799411D01*
X134177470Y-127794509D01*
X134166482Y-127786526D01*
X134151454Y-127773689D01*
X133278406Y-126900641D01*
X133244380Y-126838329D01*
X133241501Y-126811546D01*
X133241501Y-125664600D01*
X133230527Y-125558834D01*
X133174551Y-125391054D01*
X133081479Y-125240652D01*
X133076297Y-125235479D01*
X133074754Y-125233532D01*
X133048118Y-125167721D01*
X133047501Y-125155269D01*
X133047500Y-124780760D01*
X133067502Y-124712640D01*
X133074620Y-124702666D01*
X133077133Y-124699483D01*
X133082305Y-124694303D01*
X133165052Y-124560063D01*
X133171275Y-124549968D01*
X133171276Y-124549966D01*
X133175115Y-124543738D01*
X133226106Y-124390004D01*
X133228632Y-124382389D01*
X133228632Y-124382387D01*
X133230797Y-124375861D01*
X133241500Y-124271400D01*
X133241500Y-122870600D01*
X133230526Y-122764834D01*
X133174550Y-122597054D01*
X133081478Y-122446652D01*
X133006482Y-122371786D01*
X132972403Y-122309505D01*
X132969500Y-122282614D01*
X132969500Y-118276633D01*
X132989502Y-118208512D01*
X133006405Y-118187538D01*
X137351454Y-113842489D01*
X137366482Y-113829652D01*
X137377470Y-113821669D01*
X137422249Y-113771937D01*
X137426790Y-113767153D01*
X137440937Y-113753006D01*
X137453537Y-113737446D01*
X137457825Y-113732425D01*
X137498170Y-113687619D01*
X137498173Y-113687615D01*
X137502585Y-113682715D01*
X137505881Y-113677005D01*
X137505884Y-113677002D01*
X137509375Y-113670955D01*
X137520568Y-113654670D01*
X137520700Y-113654507D01*
X137529107Y-113644125D01*
X137559477Y-113584520D01*
X137562624Y-113578724D01*
X137571014Y-113564192D01*
X137596075Y-113520785D01*
X137600270Y-113507875D01*
X137607833Y-113489616D01*
X137613994Y-113477524D01*
X137631309Y-113412906D01*
X137633182Y-113406582D01*
X137651813Y-113349240D01*
X137653855Y-113342956D01*
X137655272Y-113329470D01*
X137658876Y-113310023D01*
X137660680Y-113303293D01*
X137660680Y-113303292D01*
X137662389Y-113296915D01*
X137665890Y-113230113D01*
X137666407Y-113223539D01*
X137668156Y-113206895D01*
X137668156Y-113206891D01*
X137668500Y-113203620D01*
X137668500Y-113183593D01*
X137668673Y-113176999D01*
X137671829Y-113116782D01*
X137671829Y-113116778D01*
X137672174Y-113110190D01*
X137670051Y-113096785D01*
X137668500Y-113077075D01*
X137668500Y-104219925D01*
X137670051Y-104200214D01*
X137671142Y-104193327D01*
X137671142Y-104193325D01*
X137672174Y-104186810D01*
X137671198Y-104168170D01*
X137668673Y-104120001D01*
X137668500Y-104113407D01*
X137668500Y-104093380D01*
X137667967Y-104088305D01*
X137666407Y-104073461D01*
X137665890Y-104066887D01*
X137662735Y-104006684D01*
X137662735Y-104006682D01*
X137662389Y-104000085D01*
X137658875Y-103986972D01*
X137655272Y-103967529D01*
X137654546Y-103960615D01*
X137654545Y-103960611D01*
X137653855Y-103954044D01*
X137633182Y-103890418D01*
X137631309Y-103884094D01*
X137623616Y-103855385D01*
X137613994Y-103819476D01*
X137607833Y-103807384D01*
X137600269Y-103789123D01*
X137598116Y-103782497D01*
X137596075Y-103776215D01*
X137562624Y-103718276D01*
X137559477Y-103712480D01*
X137555006Y-103703705D01*
X137529107Y-103652875D01*
X137520568Y-103642330D01*
X137509375Y-103626045D01*
X137505884Y-103619998D01*
X137505881Y-103619995D01*
X137502585Y-103614285D01*
X137498173Y-103609385D01*
X137498170Y-103609381D01*
X137471331Y-103579575D01*
X137457819Y-103564568D01*
X137453537Y-103559554D01*
X137443014Y-103546559D01*
X137440937Y-103543994D01*
X137426790Y-103529847D01*
X137422249Y-103525063D01*
X137381885Y-103480234D01*
X137381883Y-103480233D01*
X137377470Y-103475331D01*
X137366482Y-103467348D01*
X137351454Y-103454511D01*
X133654489Y-99757546D01*
X133641652Y-99742518D01*
X133633669Y-99731530D01*
X133583937Y-99686751D01*
X133579153Y-99682210D01*
X133565006Y-99668063D01*
X133549446Y-99655463D01*
X133544425Y-99651175D01*
X133499619Y-99610830D01*
X133499615Y-99610827D01*
X133494715Y-99606415D01*
X133489005Y-99603119D01*
X133489002Y-99603116D01*
X133482955Y-99599625D01*
X133466670Y-99588432D01*
X133456125Y-99579893D01*
X133396520Y-99549523D01*
X133390724Y-99546376D01*
X133384975Y-99543057D01*
X133332785Y-99512925D01*
X133319875Y-99508730D01*
X133301616Y-99501167D01*
X133289524Y-99495006D01*
X133224906Y-99477691D01*
X133218582Y-99475818D01*
X133209981Y-99473023D01*
X133154956Y-99455145D01*
X133148389Y-99454455D01*
X133148385Y-99454454D01*
X133142712Y-99453858D01*
X133141470Y-99453728D01*
X133122028Y-99450125D01*
X133108915Y-99446611D01*
X133102318Y-99446265D01*
X133102316Y-99446265D01*
X133042113Y-99443110D01*
X133035539Y-99442593D01*
X133018895Y-99440844D01*
X133018891Y-99440844D01*
X133015620Y-99440500D01*
X132995593Y-99440500D01*
X132988999Y-99440327D01*
X132928782Y-99437171D01*
X132928778Y-99437171D01*
X132922190Y-99436826D01*
X132915675Y-99437858D01*
X132915673Y-99437858D01*
X132908786Y-99438949D01*
X132889075Y-99440500D01*
X129246500Y-99440500D01*
X129178379Y-99420498D01*
X129131886Y-99366842D01*
X129120500Y-99314500D01*
X129120500Y-98983000D01*
X135348526Y-98983000D01*
X135368391Y-99235403D01*
X135369545Y-99240210D01*
X135369546Y-99240216D01*
X135399314Y-99364209D01*
X135427495Y-99481591D01*
X135429388Y-99486162D01*
X135429389Y-99486164D01*
X135503874Y-99665986D01*
X135524384Y-99715502D01*
X135656672Y-99931376D01*
X135821102Y-100123898D01*
X136013624Y-100288328D01*
X136229498Y-100420616D01*
X136234068Y-100422509D01*
X136234072Y-100422511D01*
X136458836Y-100515611D01*
X136463409Y-100517505D01*
X136548032Y-100537821D01*
X136704784Y-100575454D01*
X136704790Y-100575455D01*
X136709597Y-100576609D01*
X136809416Y-100584465D01*
X136896345Y-100591307D01*
X136896352Y-100591307D01*
X136898801Y-100591500D01*
X137025199Y-100591500D01*
X137027648Y-100591307D01*
X137027655Y-100591307D01*
X137114584Y-100584465D01*
X137214403Y-100576609D01*
X137219210Y-100575455D01*
X137219216Y-100575454D01*
X137375968Y-100537821D01*
X137460591Y-100517505D01*
X137465164Y-100515611D01*
X137689928Y-100422511D01*
X137689932Y-100422509D01*
X137694502Y-100420616D01*
X137910376Y-100288328D01*
X138102898Y-100123898D01*
X138267328Y-99931376D01*
X138399616Y-99715502D01*
X138420127Y-99665986D01*
X138494611Y-99486164D01*
X138494612Y-99486162D01*
X138496505Y-99481591D01*
X138524686Y-99364209D01*
X138554454Y-99240216D01*
X138554455Y-99240210D01*
X138555609Y-99235403D01*
X138575474Y-98983000D01*
X138555609Y-98730597D01*
X138496505Y-98484409D01*
X138493849Y-98477996D01*
X138401511Y-98255072D01*
X138401509Y-98255068D01*
X138399616Y-98250498D01*
X138267328Y-98034624D01*
X138102898Y-97842102D01*
X137910376Y-97677672D01*
X137694502Y-97545384D01*
X137689932Y-97543491D01*
X137689928Y-97543489D01*
X137465164Y-97450389D01*
X137465162Y-97450388D01*
X137460591Y-97448495D01*
X137375968Y-97428179D01*
X137219216Y-97390546D01*
X137219210Y-97390545D01*
X137214403Y-97389391D01*
X137114584Y-97381535D01*
X137027655Y-97374693D01*
X137027648Y-97374693D01*
X137025199Y-97374500D01*
X136898801Y-97374500D01*
X136896352Y-97374693D01*
X136896345Y-97374693D01*
X136809416Y-97381535D01*
X136709597Y-97389391D01*
X136704790Y-97390545D01*
X136704784Y-97390546D01*
X136548032Y-97428179D01*
X136463409Y-97448495D01*
X136458838Y-97450388D01*
X136458836Y-97450389D01*
X136234072Y-97543489D01*
X136234068Y-97543491D01*
X136229498Y-97545384D01*
X136013624Y-97677672D01*
X135821102Y-97842102D01*
X135656672Y-98034624D01*
X135524384Y-98250498D01*
X135522491Y-98255068D01*
X135522489Y-98255072D01*
X135430151Y-98477996D01*
X135427495Y-98484409D01*
X135368391Y-98730597D01*
X135348526Y-98983000D01*
X129120500Y-98983000D01*
X129120500Y-97408866D01*
X129113745Y-97346684D01*
X129062615Y-97210295D01*
X128975261Y-97093739D01*
X128858705Y-97006385D01*
X128722316Y-96955255D01*
X128660134Y-96948500D01*
X126863866Y-96948500D01*
X126801684Y-96955255D01*
X126665295Y-97006385D01*
X126658115Y-97011766D01*
X126657651Y-97012020D01*
X126597143Y-97027500D01*
X126424621Y-97027500D01*
X126356500Y-97007498D01*
X126310007Y-96953842D01*
X126306639Y-96945730D01*
X126262767Y-96828703D01*
X126259615Y-96820295D01*
X126172261Y-96703739D01*
X126055705Y-96616385D01*
X125919316Y-96565255D01*
X125857134Y-96558500D01*
X123760866Y-96558500D01*
X123698684Y-96565255D01*
X123562295Y-96616385D01*
X123445739Y-96703739D01*
X123358385Y-96820295D01*
X123307255Y-96956684D01*
X123300500Y-97018866D01*
X123300500Y-98795500D01*
X123280498Y-98863621D01*
X123226842Y-98910114D01*
X123174500Y-98921500D01*
X122892600Y-98921500D01*
X122889354Y-98921837D01*
X122889350Y-98921837D01*
X122793692Y-98931762D01*
X122793688Y-98931763D01*
X122786834Y-98932474D01*
X122780298Y-98934655D01*
X122780296Y-98934655D01*
X122650167Y-98978070D01*
X122619054Y-98988450D01*
X122468652Y-99081522D01*
X122343695Y-99206697D01*
X122339855Y-99212927D01*
X122339854Y-99212928D01*
X122323034Y-99240216D01*
X122250885Y-99357262D01*
X122242474Y-99382621D01*
X122201662Y-99505667D01*
X122195203Y-99525139D01*
X122194503Y-99531975D01*
X122194502Y-99531978D01*
X122190091Y-99575031D01*
X122184500Y-99629600D01*
X122184500Y-101030400D01*
X122195474Y-101136166D01*
X122197655Y-101142702D01*
X122197655Y-101142704D01*
X122229185Y-101237209D01*
X122251450Y-101303946D01*
X122344522Y-101454348D01*
X122469697Y-101579305D01*
X122475927Y-101583145D01*
X122475928Y-101583146D01*
X122598337Y-101658600D01*
X122620262Y-101672115D01*
X122639820Y-101678602D01*
X122781611Y-101725632D01*
X122781613Y-101725632D01*
X122788139Y-101727797D01*
X122794978Y-101728498D01*
X122801710Y-101729941D01*
X122801168Y-101732470D01*
X122855990Y-101754870D01*
X122896760Y-101812993D01*
X122903400Y-101853357D01*
X122903400Y-102126766D01*
X122895382Y-102170995D01*
X122894982Y-102172062D01*
X122852341Y-102228827D01*
X122785779Y-102253527D01*
X122716430Y-102238320D01*
X122666312Y-102188034D01*
X122659018Y-102172062D01*
X122630768Y-102096705D01*
X122630767Y-102096703D01*
X122627615Y-102088295D01*
X122540261Y-101971739D01*
X122423705Y-101884385D01*
X122287316Y-101833255D01*
X122225134Y-101826500D01*
X121728866Y-101826500D01*
X121725469Y-101826869D01*
X121674534Y-101832402D01*
X121674532Y-101832402D01*
X121666684Y-101833255D01*
X121659291Y-101836027D01*
X121659289Y-101836027D01*
X121621229Y-101850295D01*
X121550422Y-101855478D01*
X121532771Y-101850295D01*
X121494711Y-101836027D01*
X121494709Y-101836027D01*
X121487316Y-101833255D01*
X121479468Y-101832402D01*
X121479466Y-101832402D01*
X121428531Y-101826869D01*
X121425134Y-101826500D01*
X120928866Y-101826500D01*
X120925469Y-101826869D01*
X120874534Y-101832402D01*
X120874532Y-101832402D01*
X120866684Y-101833255D01*
X120859291Y-101836027D01*
X120859289Y-101836027D01*
X120821229Y-101850295D01*
X120750422Y-101855478D01*
X120732771Y-101850295D01*
X120694711Y-101836027D01*
X120694709Y-101836027D01*
X120687316Y-101833255D01*
X120679468Y-101832402D01*
X120679466Y-101832402D01*
X120628531Y-101826869D01*
X120625134Y-101826500D01*
X120128866Y-101826500D01*
X120125469Y-101826869D01*
X120074534Y-101832402D01*
X120074532Y-101832402D01*
X120066684Y-101833255D01*
X120059291Y-101836027D01*
X120059289Y-101836027D01*
X120021229Y-101850295D01*
X119950422Y-101855478D01*
X119932771Y-101850295D01*
X119894711Y-101836027D01*
X119894709Y-101836027D01*
X119887316Y-101833255D01*
X119879468Y-101832402D01*
X119879466Y-101832402D01*
X119828531Y-101826869D01*
X119825134Y-101826500D01*
X119572580Y-101826500D01*
X119504459Y-101806498D01*
X119457966Y-101752842D01*
X119448457Y-101722165D01*
X119444200Y-101697776D01*
X119443236Y-101691248D01*
X119436873Y-101638665D01*
X119436873Y-101638663D01*
X119435960Y-101631122D01*
X119433276Y-101624019D01*
X119431853Y-101618224D01*
X119429623Y-101610074D01*
X119427893Y-101604343D01*
X119426586Y-101596856D01*
X119402235Y-101541382D01*
X119399743Y-101535275D01*
X119381015Y-101485713D01*
X119378331Y-101478610D01*
X119374029Y-101472351D01*
X119371247Y-101467029D01*
X119367165Y-101459695D01*
X119364108Y-101454527D01*
X119361054Y-101447569D01*
X119324167Y-101399498D01*
X119320303Y-101394179D01*
X119285986Y-101344247D01*
X119241881Y-101304951D01*
X119236605Y-101299969D01*
X118464927Y-100528291D01*
X118459073Y-100522025D01*
X118428055Y-100486468D01*
X118423059Y-100480741D01*
X118373474Y-100445892D01*
X118368199Y-100441974D01*
X118365464Y-100439829D01*
X118320528Y-100404595D01*
X118313605Y-100401469D01*
X118308458Y-100398352D01*
X118301190Y-100394207D01*
X118295888Y-100391364D01*
X118289670Y-100386994D01*
X118233223Y-100364986D01*
X118227145Y-100362431D01*
X118226758Y-100362256D01*
X118219544Y-100358999D01*
X118178859Y-100340629D01*
X118178857Y-100340628D01*
X118171935Y-100337503D01*
X118164465Y-100336119D01*
X118158763Y-100334332D01*
X118150666Y-100332025D01*
X118144849Y-100330531D01*
X118137770Y-100327771D01*
X118130241Y-100326780D01*
X118130238Y-100326779D01*
X118092409Y-100321799D01*
X118077699Y-100319862D01*
X118071202Y-100318833D01*
X118011629Y-100307792D01*
X118004049Y-100308229D01*
X118004048Y-100308229D01*
X117952679Y-100311191D01*
X117945426Y-100311400D01*
X107195698Y-100311400D01*
X107187128Y-100311108D01*
X107140063Y-100307899D01*
X107140059Y-100307899D01*
X107132487Y-100307383D01*
X107072786Y-100317803D01*
X107066274Y-100318763D01*
X107060741Y-100319433D01*
X107013687Y-100325127D01*
X107013685Y-100325127D01*
X107006144Y-100326040D01*
X106999041Y-100328724D01*
X106993246Y-100330147D01*
X106985083Y-100332380D01*
X106979359Y-100334108D01*
X106971878Y-100335414D01*
X106964923Y-100338467D01*
X106916410Y-100359763D01*
X106910306Y-100362254D01*
X106906241Y-100363790D01*
X106860737Y-100380984D01*
X106860735Y-100380985D01*
X106853632Y-100383669D01*
X106847373Y-100387970D01*
X106842106Y-100390724D01*
X106834699Y-100394847D01*
X106829555Y-100397889D01*
X106822592Y-100400946D01*
X106774525Y-100437830D01*
X106769205Y-100441694D01*
X106725528Y-100471712D01*
X106725526Y-100471714D01*
X106719269Y-100476014D01*
X106714219Y-100481682D01*
X106714218Y-100481683D01*
X106679973Y-100520119D01*
X106674991Y-100525395D01*
X103947791Y-103252595D01*
X103885479Y-103286621D01*
X103858696Y-103289500D01*
X102606866Y-103289500D01*
X102544684Y-103296255D01*
X102408295Y-103347385D01*
X102291739Y-103434739D01*
X102204385Y-103551295D01*
X102153255Y-103687684D01*
X102146500Y-103749866D01*
X102146500Y-105546134D01*
X102153255Y-105608316D01*
X102204385Y-105744705D01*
X102291739Y-105861261D01*
X102408295Y-105948615D01*
X102416704Y-105951767D01*
X102416705Y-105951768D01*
X102525451Y-105992535D01*
X102582216Y-106035176D01*
X102606916Y-106101738D01*
X102591709Y-106171087D01*
X102572316Y-106197568D01*
X102445629Y-106330138D01*
X102442715Y-106334410D01*
X102442714Y-106334411D01*
X102423121Y-106363134D01*
X102319743Y-106514680D01*
X102225688Y-106717305D01*
X102165989Y-106932570D01*
X102142251Y-107154695D01*
X102142548Y-107159848D01*
X102142548Y-107159851D01*
X102142933Y-107166531D01*
X102155110Y-107377715D01*
X102156247Y-107382761D01*
X102156248Y-107382767D01*
X102162957Y-107412534D01*
X102204222Y-107595639D01*
X102288266Y-107802616D01*
X102328029Y-107867503D01*
X102393294Y-107974006D01*
X102404987Y-107993088D01*
X102551250Y-108161938D01*
X102723126Y-108304632D01*
X102752261Y-108321657D01*
X102796445Y-108347476D01*
X102845169Y-108399114D01*
X102858240Y-108468897D01*
X102831509Y-108534669D01*
X102791055Y-108568027D01*
X102778607Y-108574507D01*
X102774474Y-108577610D01*
X102774471Y-108577612D01*
X102739732Y-108603695D01*
X102599965Y-108708635D01*
X102445629Y-108870138D01*
X102442715Y-108874410D01*
X102442714Y-108874411D01*
X102397446Y-108940771D01*
X102319743Y-109054680D01*
X102225688Y-109257305D01*
X102165989Y-109472570D01*
X102142251Y-109694695D01*
X102142548Y-109699848D01*
X102142548Y-109699851D01*
X102150187Y-109832330D01*
X102155110Y-109917715D01*
X102156247Y-109922761D01*
X102156248Y-109922767D01*
X102170100Y-109984230D01*
X102204222Y-110135639D01*
X102236641Y-110215478D01*
X102277106Y-110315131D01*
X102288266Y-110342616D01*
X102404987Y-110533088D01*
X102551250Y-110701938D01*
X102723126Y-110844632D01*
X102786011Y-110881379D01*
X102796445Y-110887476D01*
X102845169Y-110939114D01*
X102858240Y-111008897D01*
X102831509Y-111074669D01*
X102791055Y-111108027D01*
X102778607Y-111114507D01*
X102774474Y-111117610D01*
X102774471Y-111117612D01*
X102604100Y-111245530D01*
X102599965Y-111248635D01*
X102445629Y-111410138D01*
X102319743Y-111594680D01*
X102225688Y-111797305D01*
X102165989Y-112012570D01*
X102142251Y-112234695D01*
X102142548Y-112239848D01*
X102142548Y-112239851D01*
X102145556Y-112292014D01*
X102155110Y-112457715D01*
X102156247Y-112462761D01*
X102156248Y-112462767D01*
X102163035Y-112492882D01*
X102204222Y-112675639D01*
X102265058Y-112825462D01*
X102282872Y-112869331D01*
X102288266Y-112882616D01*
X102404987Y-113073088D01*
X102551250Y-113241938D01*
X102575521Y-113262088D01*
X102692479Y-113359188D01*
X102723126Y-113384632D01*
X102793595Y-113425811D01*
X102796445Y-113427476D01*
X102845169Y-113479114D01*
X102858240Y-113548897D01*
X102831509Y-113614669D01*
X102791055Y-113648027D01*
X102778607Y-113654507D01*
X102774474Y-113657610D01*
X102774471Y-113657612D01*
X102604100Y-113785530D01*
X102599965Y-113788635D01*
X102445629Y-113950138D01*
X102319743Y-114134680D01*
X102225688Y-114337305D01*
X102165989Y-114552570D01*
X102142251Y-114774695D01*
X102142548Y-114779848D01*
X102142548Y-114779851D01*
X102143863Y-114802655D01*
X102155110Y-114997715D01*
X102156247Y-115002761D01*
X102156248Y-115002767D01*
X102172223Y-115073652D01*
X102204222Y-115215639D01*
X102263748Y-115362235D01*
X102282872Y-115409331D01*
X102288266Y-115422616D01*
X102317450Y-115470240D01*
X102400718Y-115606121D01*
X102404987Y-115613088D01*
X102551250Y-115781938D01*
X102723126Y-115924632D01*
X102916000Y-116037338D01*
X103124692Y-116117030D01*
X103129760Y-116118061D01*
X103129763Y-116118062D01*
X103237017Y-116139883D01*
X103343597Y-116161567D01*
X103348772Y-116161757D01*
X103348774Y-116161757D01*
X103561673Y-116169564D01*
X103561677Y-116169564D01*
X103566837Y-116169753D01*
X103571957Y-116169097D01*
X103571959Y-116169097D01*
X103783288Y-116142025D01*
X103783289Y-116142025D01*
X103788416Y-116141368D01*
X103793366Y-116139883D01*
X103997429Y-116078661D01*
X103997434Y-116078659D01*
X104002384Y-116077174D01*
X104202994Y-115978896D01*
X104384860Y-115849173D01*
X104399585Y-115834500D01*
X104539435Y-115695137D01*
X104543096Y-115691489D01*
X104577597Y-115643476D01*
X104656210Y-115534074D01*
X104712205Y-115490426D01*
X104758533Y-115481600D01*
X107332291Y-115481600D01*
X107340862Y-115481892D01*
X107395512Y-115485618D01*
X107455235Y-115475194D01*
X107461725Y-115474237D01*
X107521856Y-115466960D01*
X107528965Y-115464274D01*
X107534762Y-115462850D01*
X107542917Y-115460620D01*
X107548641Y-115458892D01*
X107556122Y-115457586D01*
X107611594Y-115433235D01*
X107617699Y-115430744D01*
X107667263Y-115412016D01*
X107667265Y-115412015D01*
X107674368Y-115409331D01*
X107680627Y-115405030D01*
X107685894Y-115402276D01*
X107693319Y-115398143D01*
X107698451Y-115395108D01*
X107705408Y-115392054D01*
X107711434Y-115387430D01*
X107711436Y-115387429D01*
X107753466Y-115355178D01*
X107758804Y-115351300D01*
X107802469Y-115321291D01*
X107802476Y-115321285D01*
X107808731Y-115316986D01*
X107824891Y-115298849D01*
X107848019Y-115272890D01*
X107853001Y-115267614D01*
X110872247Y-112248368D01*
X113895109Y-109225505D01*
X113957421Y-109191479D01*
X113984204Y-109188600D01*
X115162500Y-109188600D01*
X115230621Y-109208602D01*
X115277114Y-109262258D01*
X115288500Y-109314600D01*
X115288500Y-109563134D01*
X115295255Y-109625316D01*
X115298027Y-109632709D01*
X115298027Y-109632711D01*
X115312295Y-109670771D01*
X115317478Y-109741578D01*
X115312295Y-109759229D01*
X115298027Y-109797289D01*
X115295255Y-109804684D01*
X115294402Y-109812532D01*
X115294402Y-109812534D01*
X115288869Y-109863469D01*
X115288500Y-109866866D01*
X115288500Y-110363134D01*
X115295255Y-110425316D01*
X115346385Y-110561705D01*
X115433739Y-110678261D01*
X115550295Y-110765615D01*
X115686684Y-110816745D01*
X115748866Y-110823500D01*
X117142500Y-110823500D01*
X117210621Y-110843502D01*
X117257114Y-110897158D01*
X117268500Y-110949500D01*
X117268500Y-112116100D01*
X117248498Y-112184221D01*
X117194842Y-112230714D01*
X117142500Y-112242100D01*
X114835263Y-112242100D01*
X114826692Y-112241808D01*
X114773157Y-112238158D01*
X114765680Y-112239463D01*
X114765679Y-112239463D01*
X114752243Y-112241808D01*
X114714653Y-112248369D01*
X114708135Y-112249330D01*
X114689777Y-112251552D01*
X114656738Y-112255550D01*
X114656736Y-112255550D01*
X114649195Y-112256463D01*
X114642087Y-112259149D01*
X114635121Y-112260860D01*
X114629932Y-112262279D01*
X114623053Y-112264356D01*
X114615576Y-112265661D01*
X114561205Y-112289529D01*
X114555114Y-112292014D01*
X114506664Y-112310321D01*
X114506662Y-112310322D01*
X114499559Y-112313006D01*
X114493298Y-112317309D01*
X114486974Y-112320615D01*
X114482202Y-112323271D01*
X114476056Y-112326906D01*
X114469104Y-112329958D01*
X114447505Y-112346531D01*
X114421999Y-112366102D01*
X114416672Y-112369973D01*
X114367729Y-112403611D01*
X114362672Y-112409287D01*
X114329232Y-112446819D01*
X114324251Y-112452095D01*
X111311961Y-115464386D01*
X111305696Y-115470239D01*
X111265248Y-115505524D01*
X111260881Y-115511738D01*
X111231109Y-115554099D01*
X111227177Y-115559393D01*
X111190537Y-115606121D01*
X111187411Y-115613045D01*
X111183698Y-115619176D01*
X111181062Y-115623796D01*
X111177640Y-115630178D01*
X111173269Y-115636397D01*
X111170509Y-115643476D01*
X111151702Y-115691713D01*
X111149146Y-115697792D01*
X111124711Y-115751912D01*
X111123325Y-115759388D01*
X111121170Y-115766266D01*
X111119710Y-115771391D01*
X111117922Y-115778355D01*
X111115162Y-115785434D01*
X111107449Y-115844029D01*
X111107414Y-115844292D01*
X111106384Y-115850798D01*
X111095560Y-115909197D01*
X111095997Y-115916777D01*
X111095997Y-115916778D01*
X111098891Y-115966967D01*
X111099100Y-115974220D01*
X111099100Y-118783237D01*
X111098808Y-118791808D01*
X111095158Y-118845343D01*
X111099876Y-118872373D01*
X111100154Y-118873967D01*
X111092162Y-118944513D01*
X111047299Y-118999538D01*
X110979809Y-119021574D01*
X110942757Y-119016274D01*
X110942696Y-119016559D01*
X110938477Y-119015662D01*
X110937098Y-119015465D01*
X110936245Y-119015188D01*
X110936242Y-119015187D01*
X110929956Y-119013145D01*
X110923389Y-119012455D01*
X110923385Y-119012454D01*
X110917712Y-119011858D01*
X110916470Y-119011728D01*
X110897028Y-119008125D01*
X110883915Y-119004611D01*
X110877318Y-119004265D01*
X110877316Y-119004265D01*
X110817113Y-119001110D01*
X110810539Y-119000593D01*
X110793895Y-118998844D01*
X110793891Y-118998844D01*
X110790620Y-118998500D01*
X110770593Y-118998500D01*
X110763999Y-118998327D01*
X110703782Y-118995171D01*
X110703778Y-118995171D01*
X110697190Y-118994826D01*
X110690675Y-118995858D01*
X110690673Y-118995858D01*
X110683786Y-118996949D01*
X110664075Y-118998500D01*
X104588146Y-118998500D01*
X104520025Y-118978498D01*
X104494953Y-118957300D01*
X104438152Y-118894876D01*
X104438142Y-118894867D01*
X104434670Y-118891051D01*
X104430619Y-118887852D01*
X104430615Y-118887848D01*
X104263414Y-118755800D01*
X104263410Y-118755798D01*
X104259359Y-118752598D01*
X104063789Y-118644638D01*
X104058920Y-118642914D01*
X104058916Y-118642912D01*
X103858087Y-118571795D01*
X103858083Y-118571794D01*
X103853212Y-118570069D01*
X103848119Y-118569162D01*
X103848116Y-118569161D01*
X103638373Y-118531800D01*
X103638367Y-118531799D01*
X103633284Y-118530894D01*
X103559452Y-118529992D01*
X103415081Y-118528228D01*
X103415079Y-118528228D01*
X103409911Y-118528165D01*
X103189091Y-118561955D01*
X102976756Y-118631357D01*
X102778607Y-118734507D01*
X102774474Y-118737610D01*
X102774471Y-118737612D01*
X102604100Y-118865530D01*
X102599965Y-118868635D01*
X102563225Y-118907081D01*
X102459463Y-119015662D01*
X102445629Y-119030138D01*
X102442715Y-119034410D01*
X102442714Y-119034411D01*
X102425055Y-119060298D01*
X102319743Y-119214680D01*
X102225688Y-119417305D01*
X102165989Y-119632570D01*
X102142251Y-119854695D01*
X102155110Y-120077715D01*
X102156247Y-120082761D01*
X102156248Y-120082767D01*
X102180304Y-120189508D01*
X102204222Y-120295639D01*
X102288266Y-120502616D01*
X102404987Y-120693088D01*
X102551250Y-120861938D01*
X102723126Y-121004632D01*
X102916000Y-121117338D01*
X103124692Y-121197030D01*
X103129760Y-121198061D01*
X103129763Y-121198062D01*
X103237017Y-121219883D01*
X103343597Y-121241567D01*
X103348772Y-121241757D01*
X103348774Y-121241757D01*
X103561673Y-121249564D01*
X103561677Y-121249564D01*
X103566837Y-121249753D01*
X103571957Y-121249097D01*
X103571959Y-121249097D01*
X103783288Y-121222025D01*
X103783289Y-121222025D01*
X103788416Y-121221368D01*
X103793366Y-121219883D01*
X103997429Y-121158661D01*
X103997434Y-121158659D01*
X104002384Y-121157174D01*
X104202994Y-121058896D01*
X104384860Y-120929173D01*
X104500187Y-120814249D01*
X104562558Y-120780333D01*
X104589126Y-120777500D01*
X110323367Y-120777500D01*
X110391488Y-120797502D01*
X110412462Y-120814405D01*
X112062667Y-122464610D01*
X112096693Y-122526922D01*
X112091683Y-122596967D01*
X112090885Y-122598262D01*
X112035203Y-122766139D01*
X112024500Y-122870600D01*
X112024500Y-124271400D01*
X112024837Y-124274646D01*
X112024837Y-124274650D01*
X112034610Y-124368836D01*
X112035474Y-124377166D01*
X112037655Y-124383702D01*
X112037655Y-124383704D01*
X112068464Y-124476050D01*
X112091450Y-124544946D01*
X112184522Y-124695348D01*
X112189704Y-124700521D01*
X112191247Y-124702468D01*
X112217883Y-124768279D01*
X112218500Y-124780731D01*
X112218500Y-127531075D01*
X112216949Y-127550785D01*
X112214826Y-127564190D01*
X112215171Y-127570778D01*
X112215171Y-127570782D01*
X112218327Y-127630999D01*
X112218500Y-127637593D01*
X112218500Y-127657620D01*
X112218844Y-127660891D01*
X112218844Y-127660895D01*
X112220593Y-127677539D01*
X112221110Y-127684113D01*
X112224611Y-127750915D01*
X112222964Y-127751001D01*
X112214918Y-127813212D01*
X112169191Y-127867521D01*
X112099574Y-127888500D01*
X109553132Y-127888500D01*
X109485011Y-127868498D01*
X109438518Y-127814842D01*
X109435150Y-127806730D01*
X109432953Y-127800869D01*
X109425615Y-127781295D01*
X109420235Y-127774116D01*
X109420233Y-127774113D01*
X109343642Y-127671919D01*
X109338261Y-127664739D01*
X109221705Y-127577385D01*
X109085316Y-127526255D01*
X109023134Y-127519500D01*
X106926866Y-127519500D01*
X106864684Y-127526255D01*
X106728295Y-127577385D01*
X106611739Y-127664739D01*
X106524385Y-127781295D01*
X106473255Y-127917684D01*
X106466500Y-127979866D01*
X106466500Y-129576134D01*
X106473255Y-129638316D01*
X106524385Y-129774705D01*
X106529768Y-129781887D01*
X106529771Y-129781892D01*
X106582640Y-129852435D01*
X106607488Y-129918942D01*
X106592435Y-129988324D01*
X106582640Y-130003565D01*
X106524385Y-130081295D01*
X106473255Y-130217684D01*
X106466500Y-130279866D01*
X106466500Y-131876134D01*
X106473255Y-131938316D01*
X106524385Y-132074705D01*
X106611739Y-132191261D01*
X106728295Y-132278615D01*
X106864684Y-132329745D01*
X106926866Y-132336500D01*
X107923367Y-132336500D01*
X107991488Y-132356502D01*
X108012462Y-132373405D01*
X108164511Y-132525454D01*
X108177348Y-132540482D01*
X108185331Y-132551470D01*
X108190233Y-132555883D01*
X108190234Y-132555885D01*
X108235063Y-132596249D01*
X108239847Y-132600790D01*
X109037595Y-133398538D01*
X109071621Y-133460850D01*
X109074500Y-133487633D01*
X109074500Y-134812400D01*
X109074837Y-134815646D01*
X109074837Y-134815650D01*
X109083019Y-134894502D01*
X109085474Y-134918166D01*
X109087655Y-134924702D01*
X109087655Y-134924704D01*
X109114982Y-135006611D01*
X109141450Y-135085946D01*
X109234522Y-135236348D01*
X109359697Y-135361305D01*
X109365927Y-135365145D01*
X109365928Y-135365146D01*
X109501145Y-135448495D01*
X109510262Y-135454115D01*
X109641167Y-135497534D01*
X109699527Y-135537964D01*
X109726764Y-135603529D01*
X109727500Y-135617127D01*
X109727500Y-136576075D01*
X109725949Y-136595785D01*
X109723826Y-136609190D01*
X109724171Y-136615778D01*
X109724171Y-136615782D01*
X109727327Y-136675999D01*
X109727500Y-136682593D01*
X109727500Y-136702620D01*
X109727844Y-136705891D01*
X109727844Y-136705895D01*
X109729593Y-136722539D01*
X109730110Y-136729113D01*
X109732862Y-136781624D01*
X109733611Y-136795915D01*
X109735320Y-136802292D01*
X109735320Y-136802293D01*
X109737124Y-136809023D01*
X109740728Y-136828470D01*
X109742145Y-136841956D01*
X109757043Y-136887808D01*
X109762818Y-136905582D01*
X109764691Y-136911906D01*
X109782006Y-136976524D01*
X109788167Y-136988616D01*
X109795730Y-137006875D01*
X109799925Y-137019785D01*
X109812099Y-137040872D01*
X109828838Y-137109865D01*
X109820964Y-137148099D01*
X109786255Y-137240684D01*
X109779500Y-137302866D01*
X109779500Y-139842579D01*
X109759498Y-139910700D01*
X109705842Y-139957193D01*
X109653500Y-139968579D01*
X103516684Y-139968579D01*
X103497299Y-139967079D01*
X103482466Y-139964769D01*
X103482462Y-139964769D01*
X103473593Y-139963388D01*
X103456395Y-139965637D01*
X103432454Y-139966470D01*
X103174605Y-139950875D01*
X103159503Y-139949041D01*
X102950275Y-139910700D01*
X102878560Y-139897558D01*
X102863787Y-139893917D01*
X102591091Y-139808943D01*
X102576874Y-139803552D01*
X102316395Y-139686320D01*
X102302939Y-139679257D01*
X102058499Y-139531488D01*
X102045978Y-139522845D01*
X101821144Y-139346700D01*
X101809755Y-139336610D01*
X101607790Y-139134645D01*
X101597700Y-139123256D01*
X101421555Y-138898422D01*
X101412912Y-138885901D01*
X101265143Y-138641461D01*
X101258075Y-138627995D01*
X101140848Y-138367526D01*
X101135457Y-138353309D01*
X101050483Y-138080613D01*
X101046842Y-138065840D01*
X101008908Y-137858834D01*
X100995359Y-137784897D01*
X100993525Y-137769795D01*
X100978367Y-137519172D01*
X100979627Y-137492375D01*
X100979629Y-137492229D01*
X100981010Y-137483359D01*
X100979846Y-137474456D01*
X100979846Y-137474451D01*
X100976883Y-137451789D01*
X100975819Y-137435453D01*
X100975819Y-136983000D01*
X102348526Y-136983000D01*
X102368391Y-137235403D01*
X102369545Y-137240210D01*
X102369546Y-137240216D01*
X102388840Y-137320581D01*
X102427495Y-137481591D01*
X102429388Y-137486162D01*
X102429389Y-137486164D01*
X102511677Y-137684824D01*
X102524384Y-137715502D01*
X102656672Y-137931376D01*
X102821102Y-138123898D01*
X103013624Y-138288328D01*
X103229498Y-138420616D01*
X103234068Y-138422509D01*
X103234072Y-138422511D01*
X103458836Y-138515611D01*
X103463409Y-138517505D01*
X103538273Y-138535478D01*
X103704784Y-138575454D01*
X103704790Y-138575455D01*
X103709597Y-138576609D01*
X103809416Y-138584465D01*
X103896345Y-138591307D01*
X103896352Y-138591307D01*
X103898801Y-138591500D01*
X104025199Y-138591500D01*
X104027648Y-138591307D01*
X104027655Y-138591307D01*
X104114584Y-138584465D01*
X104214403Y-138576609D01*
X104219210Y-138575455D01*
X104219216Y-138575454D01*
X104385727Y-138535478D01*
X104460591Y-138517505D01*
X104465164Y-138515611D01*
X104689928Y-138422511D01*
X104689932Y-138422509D01*
X104694502Y-138420616D01*
X104910376Y-138288328D01*
X105102898Y-138123898D01*
X105267328Y-137931376D01*
X105399616Y-137715502D01*
X105412324Y-137684824D01*
X105494611Y-137486164D01*
X105494612Y-137486162D01*
X105496505Y-137481591D01*
X105535160Y-137320581D01*
X105554454Y-137240216D01*
X105554455Y-137240210D01*
X105555609Y-137235403D01*
X105575474Y-136983000D01*
X105555609Y-136730597D01*
X105553675Y-136722539D01*
X105497660Y-136489221D01*
X105496505Y-136484409D01*
X105430253Y-136324462D01*
X105401511Y-136255072D01*
X105401509Y-136255068D01*
X105399616Y-136250498D01*
X105267328Y-136034624D01*
X105102898Y-135842102D01*
X104910376Y-135677672D01*
X104694502Y-135545384D01*
X104689932Y-135543491D01*
X104689928Y-135543489D01*
X104465164Y-135450389D01*
X104465162Y-135450388D01*
X104460591Y-135448495D01*
X104352830Y-135422624D01*
X104219216Y-135390546D01*
X104219210Y-135390545D01*
X104214403Y-135389391D01*
X104114584Y-135381535D01*
X104027655Y-135374693D01*
X104027648Y-135374693D01*
X104025199Y-135374500D01*
X103898801Y-135374500D01*
X103896352Y-135374693D01*
X103896345Y-135374693D01*
X103809416Y-135381535D01*
X103709597Y-135389391D01*
X103704790Y-135390545D01*
X103704784Y-135390546D01*
X103571170Y-135422624D01*
X103463409Y-135448495D01*
X103458838Y-135450388D01*
X103458836Y-135450389D01*
X103234072Y-135543489D01*
X103234068Y-135543491D01*
X103229498Y-135545384D01*
X103013624Y-135677672D01*
X102821102Y-135842102D01*
X102656672Y-136034624D01*
X102524384Y-136250498D01*
X102522491Y-136255068D01*
X102522489Y-136255072D01*
X102493747Y-136324462D01*
X102427495Y-136484409D01*
X102426340Y-136489221D01*
X102370326Y-136722539D01*
X102368391Y-136730597D01*
X102348526Y-136983000D01*
X100975819Y-136983000D01*
X100975820Y-98983000D01*
X102348526Y-98983000D01*
X102368391Y-99235403D01*
X102369545Y-99240210D01*
X102369546Y-99240216D01*
X102399314Y-99364209D01*
X102427495Y-99481591D01*
X102429388Y-99486162D01*
X102429389Y-99486164D01*
X102503874Y-99665986D01*
X102524384Y-99715502D01*
X102656672Y-99931376D01*
X102821102Y-100123898D01*
X103013624Y-100288328D01*
X103229498Y-100420616D01*
X103234068Y-100422509D01*
X103234072Y-100422511D01*
X103458836Y-100515611D01*
X103463409Y-100517505D01*
X103548032Y-100537821D01*
X103704784Y-100575454D01*
X103704790Y-100575455D01*
X103709597Y-100576609D01*
X103809416Y-100584465D01*
X103896345Y-100591307D01*
X103896352Y-100591307D01*
X103898801Y-100591500D01*
X104025199Y-100591500D01*
X104027648Y-100591307D01*
X104027655Y-100591307D01*
X104114584Y-100584465D01*
X104214403Y-100576609D01*
X104219210Y-100575455D01*
X104219216Y-100575454D01*
X104375968Y-100537821D01*
X104460591Y-100517505D01*
X104465164Y-100515611D01*
X104689928Y-100422511D01*
X104689932Y-100422509D01*
X104694502Y-100420616D01*
X104910376Y-100288328D01*
X105102898Y-100123898D01*
X105267328Y-99931376D01*
X105399616Y-99715502D01*
X105420127Y-99665986D01*
X105494611Y-99486164D01*
X105494612Y-99486162D01*
X105496505Y-99481591D01*
X105524686Y-99364209D01*
X105554454Y-99240216D01*
X105554455Y-99240210D01*
X105555609Y-99235403D01*
X105575474Y-98983000D01*
X105555609Y-98730597D01*
X105496505Y-98484409D01*
X105493849Y-98477996D01*
X105401511Y-98255072D01*
X105401509Y-98255068D01*
X105399616Y-98250498D01*
X105267328Y-98034624D01*
X105102898Y-97842102D01*
X104910376Y-97677672D01*
X104694502Y-97545384D01*
X104689932Y-97543491D01*
X104689928Y-97543489D01*
X104465164Y-97450389D01*
X104465162Y-97450388D01*
X104460591Y-97448495D01*
X104375968Y-97428179D01*
X104219216Y-97390546D01*
X104219210Y-97390545D01*
X104214403Y-97389391D01*
X104114584Y-97381535D01*
X104027655Y-97374693D01*
X104027648Y-97374693D01*
X104025199Y-97374500D01*
X103898801Y-97374500D01*
X103896352Y-97374693D01*
X103896345Y-97374693D01*
X103809416Y-97381535D01*
X103709597Y-97389391D01*
X103704790Y-97390545D01*
X103704784Y-97390546D01*
X103548032Y-97428179D01*
X103463409Y-97448495D01*
X103458838Y-97450388D01*
X103458836Y-97450389D01*
X103234072Y-97543489D01*
X103234068Y-97543491D01*
X103229498Y-97545384D01*
X103013624Y-97677672D01*
X102821102Y-97842102D01*
X102656672Y-98034624D01*
X102524384Y-98250498D01*
X102522491Y-98255068D01*
X102522489Y-98255072D01*
X102430151Y-98477996D01*
X102427495Y-98484409D01*
X102368391Y-98730597D01*
X102348526Y-98983000D01*
X100975820Y-98983000D01*
X100975820Y-98538284D01*
X100977320Y-98518899D01*
X100979630Y-98504066D01*
X100979630Y-98504062D01*
X100981011Y-98495193D01*
X100978762Y-98477995D01*
X100977929Y-98454054D01*
X100993524Y-98196206D01*
X100995358Y-98181101D01*
X101046841Y-97900161D01*
X101050482Y-97885388D01*
X101135456Y-97612691D01*
X101140848Y-97598473D01*
X101258079Y-97337995D01*
X101265142Y-97324539D01*
X101412911Y-97080099D01*
X101421547Y-97067586D01*
X101597704Y-96842737D01*
X101607786Y-96831357D01*
X101809755Y-96629389D01*
X101821144Y-96619300D01*
X102045982Y-96443151D01*
X102058503Y-96434508D01*
X102302931Y-96286746D01*
X102316405Y-96279674D01*
X102576872Y-96162449D01*
X102591095Y-96157055D01*
X102680065Y-96129331D01*
X102863787Y-96072082D01*
X102878560Y-96068441D01*
X103019030Y-96042700D01*
X103159503Y-96016958D01*
X103174605Y-96015124D01*
X103185756Y-96014450D01*
X103425225Y-95999966D01*
X103452026Y-96001228D01*
X103452170Y-96001230D01*
X103461041Y-96002611D01*
X103469944Y-96001447D01*
X103469949Y-96001447D01*
X103492611Y-95998484D01*
X103508947Y-95997420D01*
X119009165Y-95997421D01*
G37*
%TD.AperFunction*%
%TA.AperFunction,Conductor*%
G36*
X132616488Y-101239502D02*
G01*
X132637462Y-101256405D01*
X135852595Y-104471538D01*
X135886621Y-104533850D01*
X135889500Y-104560633D01*
X135889500Y-112736367D01*
X135869498Y-112804488D01*
X135852595Y-112825462D01*
X131507546Y-117170511D01*
X131492518Y-117183348D01*
X131481530Y-117191331D01*
X131477117Y-117196233D01*
X131477115Y-117196234D01*
X131436751Y-117241063D01*
X131432210Y-117245847D01*
X131418063Y-117259994D01*
X131415986Y-117262559D01*
X131405463Y-117275554D01*
X131401175Y-117280575D01*
X131360830Y-117325381D01*
X131360827Y-117325385D01*
X131356415Y-117330285D01*
X131353119Y-117335995D01*
X131353116Y-117335998D01*
X131349625Y-117342045D01*
X131338432Y-117358330D01*
X131329893Y-117368875D01*
X131317994Y-117392229D01*
X131299523Y-117428480D01*
X131296376Y-117434276D01*
X131262925Y-117492215D01*
X131258731Y-117505123D01*
X131251167Y-117523384D01*
X131245006Y-117535476D01*
X131238041Y-117561469D01*
X131227691Y-117600094D01*
X131225818Y-117606418D01*
X131205145Y-117670044D01*
X131204455Y-117676611D01*
X131204454Y-117676615D01*
X131203728Y-117683529D01*
X131200125Y-117702972D01*
X131196611Y-117716085D01*
X131196265Y-117722682D01*
X131196265Y-117722684D01*
X131193110Y-117782887D01*
X131192593Y-117789461D01*
X131190500Y-117809380D01*
X131190500Y-117829407D01*
X131190327Y-117836001D01*
X131186826Y-117902810D01*
X131187858Y-117909325D01*
X131187858Y-117909327D01*
X131188949Y-117916214D01*
X131190500Y-117935925D01*
X131190500Y-122482058D01*
X131171760Y-122548174D01*
X131140885Y-122598262D01*
X131085203Y-122766139D01*
X131074500Y-122870600D01*
X131074500Y-124271400D01*
X131074837Y-124274646D01*
X131074837Y-124274650D01*
X131084610Y-124368836D01*
X131085474Y-124377166D01*
X131087655Y-124383702D01*
X131087655Y-124383704D01*
X131118464Y-124476050D01*
X131141450Y-124544946D01*
X131150805Y-124560063D01*
X131171644Y-124593739D01*
X131190500Y-124660042D01*
X131190500Y-125276060D01*
X131171759Y-125342177D01*
X131145471Y-125384824D01*
X131140886Y-125392262D01*
X131085204Y-125560139D01*
X131074501Y-125664600D01*
X131074501Y-127065400D01*
X131085475Y-127171166D01*
X131141451Y-127338946D01*
X131234523Y-127489348D01*
X131359698Y-127614305D01*
X131365928Y-127618145D01*
X131365929Y-127618146D01*
X131497001Y-127698940D01*
X131510263Y-127707115D01*
X131569817Y-127726868D01*
X131619245Y-127757366D01*
X132652595Y-128790716D01*
X132686621Y-128853028D01*
X132689500Y-128879811D01*
X132689500Y-129164500D01*
X132669498Y-129232621D01*
X132615842Y-129279114D01*
X132563500Y-129290500D01*
X132530866Y-129290500D01*
X132468684Y-129297255D01*
X132332295Y-129348385D01*
X132215739Y-129435739D01*
X132128385Y-129552295D01*
X132077255Y-129688684D01*
X132070500Y-129750866D01*
X132070500Y-130683500D01*
X132050498Y-130751621D01*
X131996842Y-130798114D01*
X131944500Y-130809500D01*
X128857132Y-130809500D01*
X128789011Y-130789498D01*
X128742518Y-130735842D01*
X128739150Y-130727730D01*
X128737271Y-130722717D01*
X128729615Y-130702295D01*
X128724235Y-130695116D01*
X128724233Y-130695113D01*
X128647642Y-130592919D01*
X128642261Y-130585739D01*
X128525705Y-130498385D01*
X128389316Y-130447255D01*
X128327134Y-130440500D01*
X126230866Y-130440500D01*
X126168684Y-130447255D01*
X126032295Y-130498385D01*
X126031463Y-130496167D01*
X125974645Y-130508590D01*
X125908099Y-130483851D01*
X125865491Y-130427060D01*
X125857500Y-130382902D01*
X125857500Y-128260102D01*
X125859051Y-128240391D01*
X125860142Y-128233504D01*
X125860142Y-128233502D01*
X125861174Y-128226987D01*
X125860103Y-128206540D01*
X125857673Y-128160185D01*
X125857500Y-128153591D01*
X125857500Y-128133558D01*
X125855406Y-128113633D01*
X125854889Y-128107059D01*
X125851734Y-128046858D01*
X125851734Y-128046855D01*
X125851388Y-128040262D01*
X125847876Y-128027154D01*
X125844275Y-128007721D01*
X125843547Y-128000796D01*
X125843545Y-128000787D01*
X125842855Y-127994222D01*
X125822180Y-127930590D01*
X125820311Y-127924282D01*
X125818543Y-127917684D01*
X125802994Y-127859653D01*
X125799998Y-127853773D01*
X125799996Y-127853768D01*
X125796834Y-127847563D01*
X125789269Y-127829299D01*
X125787119Y-127822682D01*
X125787117Y-127822677D01*
X125785075Y-127816393D01*
X125751624Y-127758454D01*
X125748478Y-127752659D01*
X125721106Y-127698940D01*
X125721104Y-127698937D01*
X125718106Y-127693053D01*
X125710867Y-127684113D01*
X125709567Y-127682507D01*
X125698372Y-127666219D01*
X125691585Y-127654463D01*
X125646803Y-127604728D01*
X125642529Y-127599724D01*
X125629936Y-127584172D01*
X125615799Y-127570035D01*
X125611258Y-127565251D01*
X125570885Y-127520412D01*
X125570883Y-127520411D01*
X125566470Y-127515509D01*
X125555484Y-127507527D01*
X125540451Y-127494687D01*
X122695311Y-124649546D01*
X122682474Y-124634518D01*
X122674491Y-124623530D01*
X122624759Y-124578751D01*
X122619975Y-124574210D01*
X122605828Y-124560063D01*
X122590268Y-124547463D01*
X122585247Y-124543175D01*
X122540441Y-124502830D01*
X122540437Y-124502827D01*
X122535537Y-124498415D01*
X122529827Y-124495119D01*
X122529824Y-124495116D01*
X122523777Y-124491625D01*
X122507492Y-124480432D01*
X122496947Y-124471893D01*
X122437342Y-124441523D01*
X122431546Y-124438376D01*
X122425797Y-124435057D01*
X122373607Y-124404925D01*
X122360697Y-124400730D01*
X122342438Y-124393167D01*
X122330346Y-124387006D01*
X122273181Y-124371688D01*
X122265728Y-124369691D01*
X122259404Y-124367818D01*
X122202058Y-124349185D01*
X122202054Y-124349184D01*
X122195778Y-124347145D01*
X122189215Y-124346455D01*
X122189204Y-124346453D01*
X122126731Y-124312724D01*
X122102157Y-124277870D01*
X122100550Y-124273054D01*
X122096701Y-124266834D01*
X122096699Y-124266830D01*
X122011332Y-124128880D01*
X122007478Y-124122652D01*
X121882303Y-123997695D01*
X121784317Y-123937295D01*
X121737968Y-123908725D01*
X121737966Y-123908724D01*
X121731738Y-123904885D01*
X121651995Y-123878436D01*
X121570389Y-123851368D01*
X121570387Y-123851368D01*
X121563861Y-123849203D01*
X121557025Y-123848503D01*
X121557022Y-123848502D01*
X121513969Y-123844091D01*
X121459400Y-123838500D01*
X121240344Y-123838500D01*
X121172223Y-123818498D01*
X121125730Y-123764842D01*
X121115626Y-123694568D01*
X121145120Y-123629988D01*
X121151249Y-123623405D01*
X122066249Y-122708405D01*
X122128561Y-122674379D01*
X122155344Y-122671500D01*
X124610134Y-122671500D01*
X124672316Y-122664745D01*
X124808705Y-122613615D01*
X124925261Y-122526261D01*
X125012615Y-122409705D01*
X125063745Y-122273316D01*
X125070500Y-122211134D01*
X125070500Y-121374866D01*
X125063745Y-121312684D01*
X125060973Y-121305288D01*
X125060971Y-121305282D01*
X125022338Y-121202229D01*
X125017155Y-121131422D01*
X125022338Y-121113771D01*
X125060971Y-121010718D01*
X125060973Y-121010712D01*
X125063745Y-121003316D01*
X125070500Y-120941134D01*
X125070500Y-120104866D01*
X125063745Y-120042684D01*
X125060973Y-120035288D01*
X125060971Y-120035282D01*
X125022338Y-119932229D01*
X125017155Y-119861422D01*
X125022338Y-119843771D01*
X125060971Y-119740718D01*
X125060973Y-119740712D01*
X125063745Y-119733316D01*
X125070500Y-119671134D01*
X125070500Y-118834866D01*
X125063745Y-118772684D01*
X125060973Y-118765288D01*
X125060971Y-118765282D01*
X125022338Y-118662229D01*
X125017155Y-118591422D01*
X125022338Y-118573771D01*
X125060971Y-118470718D01*
X125060973Y-118470712D01*
X125063745Y-118463316D01*
X125070500Y-118401134D01*
X125070500Y-117564866D01*
X125063745Y-117502684D01*
X125060973Y-117495288D01*
X125060971Y-117495282D01*
X125022338Y-117392229D01*
X125017155Y-117321422D01*
X125022338Y-117303771D01*
X125060971Y-117200718D01*
X125060973Y-117200712D01*
X125063745Y-117193316D01*
X125070500Y-117131134D01*
X125070500Y-116294866D01*
X125063745Y-116232684D01*
X125012615Y-116096295D01*
X124925261Y-115979739D01*
X124808705Y-115892385D01*
X124672316Y-115841255D01*
X124610134Y-115834500D01*
X124363900Y-115834500D01*
X124295779Y-115814498D01*
X124249286Y-115760842D01*
X124237900Y-115708500D01*
X124237900Y-112537111D01*
X124245918Y-112492882D01*
X124275973Y-112412711D01*
X124275973Y-112412709D01*
X124278745Y-112405316D01*
X124285500Y-112343134D01*
X124285500Y-110949500D01*
X124305502Y-110881379D01*
X124359158Y-110834886D01*
X124411500Y-110823500D01*
X125805134Y-110823500D01*
X125867316Y-110816745D01*
X126003705Y-110765615D01*
X126120261Y-110678261D01*
X126207615Y-110561705D01*
X126258745Y-110425316D01*
X126265500Y-110363134D01*
X126265500Y-109866866D01*
X126265131Y-109863469D01*
X126259598Y-109812534D01*
X126259598Y-109812532D01*
X126258745Y-109804684D01*
X126255973Y-109797289D01*
X126241705Y-109759229D01*
X126236522Y-109688422D01*
X126241705Y-109670771D01*
X126255973Y-109632711D01*
X126255973Y-109632709D01*
X126258745Y-109625316D01*
X126265500Y-109563134D01*
X126265500Y-109314600D01*
X126285502Y-109246479D01*
X126339158Y-109199986D01*
X126391500Y-109188600D01*
X130004795Y-109188600D01*
X130072916Y-109208602D01*
X130093890Y-109225505D01*
X131427595Y-110559209D01*
X131461620Y-110621521D01*
X131464500Y-110648304D01*
X131464500Y-111134134D01*
X131471255Y-111196316D01*
X131522385Y-111332705D01*
X131609739Y-111449261D01*
X131726295Y-111536615D01*
X131862684Y-111587745D01*
X131924866Y-111594500D01*
X134521134Y-111594500D01*
X134583316Y-111587745D01*
X134719705Y-111536615D01*
X134836261Y-111449261D01*
X134923615Y-111332705D01*
X134974745Y-111196316D01*
X134981500Y-111134134D01*
X134981500Y-109337866D01*
X134974745Y-109275684D01*
X134923615Y-109139295D01*
X134836261Y-109022739D01*
X134719705Y-108935385D01*
X134583316Y-108884255D01*
X134521134Y-108877500D01*
X131924866Y-108877500D01*
X131862684Y-108884255D01*
X131855288Y-108887027D01*
X131855282Y-108887029D01*
X131789675Y-108911624D01*
X131718868Y-108916807D01*
X131656351Y-108882737D01*
X130831905Y-108058291D01*
X130826051Y-108052025D01*
X130795033Y-108016468D01*
X130790037Y-108010741D01*
X130740452Y-107975892D01*
X130735177Y-107971974D01*
X130728236Y-107966531D01*
X130687506Y-107934595D01*
X130680583Y-107931469D01*
X130675436Y-107928352D01*
X130668168Y-107924207D01*
X130662866Y-107921364D01*
X130656648Y-107916994D01*
X130600201Y-107894986D01*
X130594123Y-107892431D01*
X130588910Y-107890077D01*
X130578635Y-107885438D01*
X130545837Y-107870629D01*
X130545835Y-107870628D01*
X130538913Y-107867503D01*
X130531443Y-107866119D01*
X130525741Y-107864332D01*
X130517644Y-107862025D01*
X130511827Y-107860531D01*
X130504748Y-107857771D01*
X130497219Y-107856780D01*
X130497216Y-107856779D01*
X130459387Y-107851799D01*
X130444677Y-107849862D01*
X130438180Y-107848833D01*
X130378607Y-107837792D01*
X130371027Y-107838229D01*
X130371026Y-107838229D01*
X130319657Y-107841191D01*
X130312404Y-107841400D01*
X130100405Y-107841400D01*
X130032284Y-107821398D01*
X129985791Y-107767742D01*
X129975687Y-107697468D01*
X130005181Y-107632888D01*
X130011310Y-107626305D01*
X131360727Y-106276887D01*
X131423039Y-106242862D01*
X131493854Y-106247926D01*
X131550648Y-106290416D01*
X131609739Y-106369261D01*
X131726295Y-106456615D01*
X131862684Y-106507745D01*
X131924866Y-106514500D01*
X134521134Y-106514500D01*
X134583316Y-106507745D01*
X134719705Y-106456615D01*
X134836261Y-106369261D01*
X134923615Y-106252705D01*
X134974745Y-106116316D01*
X134980847Y-106060144D01*
X134981131Y-106057531D01*
X134981500Y-106054134D01*
X134981500Y-104257866D01*
X134974745Y-104195684D01*
X134923615Y-104059295D01*
X134836261Y-103942739D01*
X134719705Y-103855385D01*
X134583316Y-103804255D01*
X134521134Y-103797500D01*
X131924866Y-103797500D01*
X131862684Y-103804255D01*
X131726295Y-103855385D01*
X131609739Y-103942739D01*
X131522385Y-104059295D01*
X131471255Y-104195684D01*
X131464500Y-104257866D01*
X131464500Y-104375271D01*
X131444498Y-104443392D01*
X131390842Y-104489885D01*
X131371927Y-104496461D01*
X131367144Y-104497040D01*
X131360037Y-104499726D01*
X131354217Y-104501155D01*
X131346074Y-104503383D01*
X131340365Y-104505107D01*
X131332879Y-104506413D01*
X131277399Y-104530767D01*
X131271302Y-104533255D01*
X131221735Y-104551985D01*
X131214632Y-104554669D01*
X131208371Y-104558972D01*
X131203105Y-104561725D01*
X131195675Y-104565860D01*
X131190547Y-104568893D01*
X131183592Y-104571946D01*
X131177566Y-104576570D01*
X131177564Y-104576571D01*
X131135528Y-104608826D01*
X131130203Y-104612695D01*
X131080269Y-104647014D01*
X131075219Y-104652682D01*
X131075218Y-104652683D01*
X131040973Y-104691119D01*
X131035991Y-104696395D01*
X128727891Y-107004495D01*
X128665579Y-107038521D01*
X128638796Y-107041400D01*
X127365746Y-107041400D01*
X127297625Y-107021398D01*
X127251132Y-106967742D01*
X127241028Y-106897468D01*
X127270522Y-106832888D01*
X127276651Y-106826305D01*
X128210047Y-105892909D01*
X128216313Y-105887055D01*
X128251025Y-105856774D01*
X128256752Y-105851778D01*
X128290882Y-105803215D01*
X128294814Y-105797920D01*
X128326777Y-105757157D01*
X128331463Y-105751181D01*
X128334589Y-105744257D01*
X128338302Y-105738126D01*
X128340938Y-105733506D01*
X128344360Y-105727124D01*
X128348731Y-105720905D01*
X128370299Y-105665588D01*
X128372854Y-105659509D01*
X128388292Y-105625316D01*
X128397289Y-105605390D01*
X128398675Y-105597914D01*
X128400830Y-105591036D01*
X128402290Y-105585911D01*
X128404078Y-105578947D01*
X128406838Y-105571868D01*
X128409779Y-105549531D01*
X128414586Y-105513010D01*
X128415618Y-105506491D01*
X128425056Y-105455570D01*
X128426440Y-105448105D01*
X128423109Y-105390334D01*
X128422900Y-105383082D01*
X128422900Y-104091500D01*
X128442902Y-104023379D01*
X128496558Y-103976886D01*
X128548900Y-103965500D01*
X128660134Y-103965500D01*
X128722316Y-103958745D01*
X128858705Y-103907615D01*
X128975261Y-103820261D01*
X129062615Y-103703705D01*
X129113745Y-103567316D01*
X129120500Y-103505134D01*
X129120500Y-101408866D01*
X129119484Y-101399515D01*
X129115095Y-101359107D01*
X129127624Y-101289224D01*
X129175945Y-101237209D01*
X129240358Y-101219500D01*
X132548367Y-101219500D01*
X132616488Y-101239502D01*
G37*
%TD.AperFunction*%
%TA.AperFunction,Conductor*%
G36*
X119887477Y-112798231D02*
G01*
X119949621Y-112801474D01*
X120007266Y-112842918D01*
X120033353Y-112908948D01*
X120019601Y-112978600D01*
X119996966Y-113009451D01*
X117909373Y-115097044D01*
X117847061Y-115131070D01*
X117820278Y-115133949D01*
X117052993Y-115133949D01*
X116984872Y-115113947D01*
X116955646Y-115084208D01*
X116953875Y-115085612D01*
X116949332Y-115079880D01*
X116945478Y-115073652D01*
X116820303Y-114948695D01*
X116814072Y-114944854D01*
X116675968Y-114859725D01*
X116675966Y-114859724D01*
X116669738Y-114855885D01*
X116509254Y-114802655D01*
X116508389Y-114802368D01*
X116508387Y-114802368D01*
X116501861Y-114800203D01*
X116495025Y-114799503D01*
X116495022Y-114799502D01*
X116451969Y-114795091D01*
X116397400Y-114789500D01*
X114996600Y-114789500D01*
X114993354Y-114789837D01*
X114993350Y-114789837D01*
X114897692Y-114799762D01*
X114897688Y-114799763D01*
X114890834Y-114800474D01*
X114884298Y-114802655D01*
X114884296Y-114802655D01*
X114752194Y-114846728D01*
X114723054Y-114856450D01*
X114572652Y-114949522D01*
X114447695Y-115074697D01*
X114443855Y-115080927D01*
X114443854Y-115080928D01*
X114360817Y-115215639D01*
X114354885Y-115225262D01*
X114352581Y-115232209D01*
X114313960Y-115348649D01*
X114299203Y-115393139D01*
X114298503Y-115399975D01*
X114298502Y-115399978D01*
X114295554Y-115428755D01*
X114288500Y-115497600D01*
X114288500Y-116248400D01*
X114288837Y-116251646D01*
X114288837Y-116251650D01*
X114293676Y-116298283D01*
X114299474Y-116354166D01*
X114355450Y-116521946D01*
X114448522Y-116672348D01*
X114573697Y-116797305D01*
X114579927Y-116801145D01*
X114579928Y-116801146D01*
X114717090Y-116885694D01*
X114724262Y-116890115D01*
X114804005Y-116916564D01*
X114885611Y-116943632D01*
X114885613Y-116943632D01*
X114892139Y-116945797D01*
X114898975Y-116946497D01*
X114898978Y-116946498D01*
X114942031Y-116950909D01*
X114996600Y-116956500D01*
X116397400Y-116956500D01*
X116400646Y-116956163D01*
X116400650Y-116956163D01*
X116496308Y-116946238D01*
X116496312Y-116946237D01*
X116503166Y-116945526D01*
X116509702Y-116943345D01*
X116509704Y-116943345D01*
X116641806Y-116899272D01*
X116670946Y-116889550D01*
X116821348Y-116796478D01*
X116946305Y-116671303D01*
X117039115Y-116520738D01*
X117040594Y-116521650D01*
X117081469Y-116475219D01*
X117148755Y-116455749D01*
X117627500Y-116455749D01*
X117695621Y-116475751D01*
X117742114Y-116529407D01*
X117753500Y-116581749D01*
X117753500Y-117131134D01*
X117760255Y-117193316D01*
X117811385Y-117329705D01*
X117898739Y-117446261D01*
X118015295Y-117533615D01*
X118151684Y-117584745D01*
X118213866Y-117591500D01*
X120710134Y-117591500D01*
X120772316Y-117584745D01*
X120772499Y-117586429D01*
X120833939Y-117589634D01*
X120891585Y-117631076D01*
X120896032Y-117637149D01*
X120912611Y-117661271D01*
X120918287Y-117666328D01*
X120955819Y-117699768D01*
X120961095Y-117704749D01*
X121621639Y-118365293D01*
X121655665Y-118427605D01*
X121657807Y-118440780D01*
X121660255Y-118463316D01*
X121663027Y-118470712D01*
X121663029Y-118470718D01*
X121701662Y-118573771D01*
X121706845Y-118644578D01*
X121701662Y-118662229D01*
X121663029Y-118765282D01*
X121663027Y-118765288D01*
X121660255Y-118772684D01*
X121653500Y-118834866D01*
X121653500Y-119671134D01*
X121660255Y-119733316D01*
X121663027Y-119740712D01*
X121663029Y-119740718D01*
X121701662Y-119843771D01*
X121706845Y-119914578D01*
X121701662Y-119932229D01*
X121663029Y-120035282D01*
X121663027Y-120035288D01*
X121660255Y-120042684D01*
X121653500Y-120104866D01*
X121653500Y-120941134D01*
X121660255Y-121003316D01*
X121663029Y-121010715D01*
X121701234Y-121112627D01*
X121706417Y-121183435D01*
X121672496Y-121245804D01*
X121654619Y-121260697D01*
X121612988Y-121289309D01*
X121612986Y-121289311D01*
X121606729Y-121293611D01*
X121601677Y-121299281D01*
X121601676Y-121299282D01*
X121568232Y-121336819D01*
X121563251Y-121342095D01*
X118997013Y-123908334D01*
X118934701Y-123942359D01*
X118863886Y-123937295D01*
X118841802Y-123926499D01*
X118812968Y-123908725D01*
X118812966Y-123908724D01*
X118806738Y-123904885D01*
X118726995Y-123878436D01*
X118645389Y-123851368D01*
X118645387Y-123851368D01*
X118638861Y-123849203D01*
X118632025Y-123848503D01*
X118632022Y-123848502D01*
X118588969Y-123844091D01*
X118534400Y-123838500D01*
X117808600Y-123838500D01*
X117790409Y-123840387D01*
X117720590Y-123827525D01*
X117688310Y-123804156D01*
X112457805Y-118573652D01*
X112423779Y-118511340D01*
X112420900Y-118484557D01*
X112420900Y-116276944D01*
X112440902Y-116208823D01*
X112457805Y-116187849D01*
X115044848Y-113600805D01*
X115107160Y-113566780D01*
X115133943Y-113563900D01*
X118658359Y-113563900D01*
X118666930Y-113564192D01*
X118720465Y-113567842D01*
X118727942Y-113566537D01*
X118727943Y-113566537D01*
X118753248Y-113562121D01*
X118778969Y-113557631D01*
X118785487Y-113556670D01*
X118803845Y-113554448D01*
X118836884Y-113550450D01*
X118836886Y-113550450D01*
X118844427Y-113549537D01*
X118851535Y-113546851D01*
X118858501Y-113545140D01*
X118863690Y-113543721D01*
X118870569Y-113541644D01*
X118878046Y-113540339D01*
X118932417Y-113516471D01*
X118938508Y-113513986D01*
X118986958Y-113495679D01*
X118986960Y-113495678D01*
X118994063Y-113492994D01*
X119000324Y-113488691D01*
X119006648Y-113485385D01*
X119011420Y-113482729D01*
X119017566Y-113479094D01*
X119024518Y-113476042D01*
X119071623Y-113439898D01*
X119076956Y-113436023D01*
X119125893Y-113402389D01*
X119164384Y-113359188D01*
X119169364Y-113353912D01*
X119225048Y-113298227D01*
X119231297Y-113292388D01*
X119271752Y-113257098D01*
X119305893Y-113208520D01*
X119309825Y-113203226D01*
X119341777Y-113162477D01*
X119346463Y-113156501D01*
X119349589Y-113149577D01*
X119353302Y-113143446D01*
X119355938Y-113138826D01*
X119359360Y-113132444D01*
X119363731Y-113126225D01*
X119385299Y-113070908D01*
X119387854Y-113064829D01*
X119409161Y-113017637D01*
X119412289Y-113010710D01*
X119413675Y-113003234D01*
X119415830Y-112996356D01*
X119417290Y-112991231D01*
X119419078Y-112984267D01*
X119421838Y-112977188D01*
X119429587Y-112918322D01*
X119430620Y-112911800D01*
X119431598Y-112906526D01*
X119463685Y-112843195D01*
X119524919Y-112807264D01*
X119555486Y-112803500D01*
X119825134Y-112803500D01*
X119887316Y-112796745D01*
X119887477Y-112798231D01*
G37*
%TD.AperFunction*%
%TA.AperFunction,Conductor*%
G36*
X122837570Y-104031680D02*
G01*
X122887688Y-104081966D01*
X122894982Y-104097938D01*
X122895382Y-104099005D01*
X122903400Y-104143234D01*
X122903400Y-108221774D01*
X122883398Y-108289895D01*
X122866495Y-108310869D01*
X121520291Y-109657073D01*
X121514026Y-109662926D01*
X121472741Y-109698941D01*
X121437892Y-109748526D01*
X121433981Y-109753792D01*
X121396595Y-109801472D01*
X121393469Y-109808395D01*
X121390352Y-109813542D01*
X121386207Y-109820810D01*
X121383364Y-109826112D01*
X121378994Y-109832330D01*
X121365529Y-109866866D01*
X121356987Y-109888775D01*
X121354432Y-109894853D01*
X121329503Y-109950065D01*
X121328119Y-109957535D01*
X121326332Y-109963237D01*
X121324025Y-109971334D01*
X121322531Y-109977151D01*
X121319771Y-109984230D01*
X121318780Y-109991759D01*
X121318779Y-109991762D01*
X121311863Y-110044296D01*
X121310834Y-110050792D01*
X121309035Y-110060500D01*
X121304779Y-110083463D01*
X121272697Y-110146798D01*
X121211466Y-110182733D01*
X121180889Y-110186500D01*
X120928866Y-110186500D01*
X120866684Y-110193255D01*
X120730295Y-110244385D01*
X120613739Y-110331739D01*
X120526385Y-110448295D01*
X120523233Y-110456703D01*
X120494982Y-110532062D01*
X120452340Y-110588826D01*
X120385779Y-110613526D01*
X120316430Y-110598319D01*
X120266312Y-110548033D01*
X120259018Y-110532062D01*
X120230767Y-110456703D01*
X120227615Y-110448295D01*
X120140261Y-110331739D01*
X120023705Y-110244385D01*
X119887316Y-110193255D01*
X119825134Y-110186500D01*
X119328866Y-110186500D01*
X119325469Y-110186869D01*
X119274534Y-110192402D01*
X119274532Y-110192402D01*
X119266684Y-110193255D01*
X119259291Y-110196027D01*
X119259289Y-110196027D01*
X119221229Y-110210295D01*
X119150422Y-110215478D01*
X119132771Y-110210295D01*
X119094711Y-110196027D01*
X119094709Y-110196027D01*
X119087316Y-110193255D01*
X119079468Y-110192402D01*
X119079466Y-110192402D01*
X119028531Y-110186869D01*
X119025134Y-110186500D01*
X118528866Y-110186500D01*
X118525469Y-110186869D01*
X118474534Y-110192402D01*
X118474532Y-110192402D01*
X118466684Y-110193255D01*
X118459291Y-110196027D01*
X118459289Y-110196027D01*
X118421229Y-110210295D01*
X118350422Y-110215478D01*
X118332771Y-110210295D01*
X118294711Y-110196027D01*
X118294709Y-110196027D01*
X118287316Y-110193255D01*
X118279468Y-110192402D01*
X118279466Y-110192402D01*
X118228531Y-110186869D01*
X118225134Y-110186500D01*
X118031500Y-110186500D01*
X117963379Y-110166498D01*
X117916886Y-110112842D01*
X117905500Y-110060500D01*
X117905500Y-109866866D01*
X117905131Y-109863469D01*
X117899598Y-109812534D01*
X117899598Y-109812532D01*
X117898745Y-109804684D01*
X117895973Y-109797289D01*
X117881705Y-109759229D01*
X117876522Y-109688422D01*
X117881705Y-109670771D01*
X117895973Y-109632711D01*
X117895973Y-109632709D01*
X117898745Y-109625316D01*
X117905500Y-109563134D01*
X117905500Y-109066866D01*
X117903711Y-109050401D01*
X117899598Y-109012534D01*
X117899598Y-109012532D01*
X117898745Y-109004684D01*
X117881705Y-108959229D01*
X117876522Y-108888422D01*
X117881705Y-108870771D01*
X117895973Y-108832711D01*
X117895973Y-108832709D01*
X117898745Y-108825316D01*
X117905500Y-108763134D01*
X117905500Y-108266866D01*
X117901405Y-108229173D01*
X117899598Y-108212534D01*
X117899598Y-108212532D01*
X117898745Y-108204684D01*
X117883958Y-108165240D01*
X117881705Y-108159229D01*
X117876522Y-108088422D01*
X117881705Y-108070771D01*
X117895973Y-108032711D01*
X117895973Y-108032709D01*
X117898745Y-108025316D01*
X117900329Y-108010741D01*
X117905131Y-107966531D01*
X117905500Y-107963134D01*
X117905500Y-107466866D01*
X117898745Y-107404684D01*
X117888635Y-107377715D01*
X117881705Y-107359229D01*
X117876522Y-107288422D01*
X117881705Y-107270771D01*
X117895973Y-107232711D01*
X117895973Y-107232709D01*
X117898745Y-107225316D01*
X117905500Y-107163134D01*
X117905500Y-106666866D01*
X117898745Y-106604684D01*
X117881705Y-106559229D01*
X117876522Y-106488422D01*
X117881705Y-106470771D01*
X117895973Y-106432711D01*
X117895973Y-106432709D01*
X117898745Y-106425316D01*
X117905500Y-106363134D01*
X117905500Y-105866866D01*
X117903854Y-105851717D01*
X117899598Y-105812534D01*
X117899598Y-105812532D01*
X117898745Y-105804684D01*
X117895973Y-105797289D01*
X117881705Y-105759229D01*
X117876522Y-105688422D01*
X117881705Y-105670771D01*
X117895973Y-105632711D01*
X117895973Y-105632709D01*
X117898745Y-105625316D01*
X117902780Y-105588178D01*
X117905131Y-105566531D01*
X117905500Y-105563134D01*
X117905500Y-105066866D01*
X117898745Y-105004684D01*
X117881705Y-104959229D01*
X117876522Y-104888422D01*
X117881705Y-104870771D01*
X117895973Y-104832711D01*
X117895973Y-104832709D01*
X117898745Y-104825316D01*
X117905500Y-104763134D01*
X117905500Y-104569500D01*
X117925502Y-104501379D01*
X117979158Y-104454886D01*
X118031500Y-104443500D01*
X118225134Y-104443500D01*
X118228531Y-104443131D01*
X118279466Y-104437598D01*
X118279468Y-104437598D01*
X118287316Y-104436745D01*
X118294709Y-104433973D01*
X118294711Y-104433973D01*
X118332771Y-104419705D01*
X118403578Y-104414522D01*
X118421229Y-104419705D01*
X118459289Y-104433973D01*
X118459291Y-104433973D01*
X118466684Y-104436745D01*
X118474532Y-104437598D01*
X118474534Y-104437598D01*
X118525469Y-104443131D01*
X118528866Y-104443500D01*
X119025134Y-104443500D01*
X119028531Y-104443131D01*
X119079466Y-104437598D01*
X119079468Y-104437598D01*
X119087316Y-104436745D01*
X119094709Y-104433973D01*
X119094711Y-104433973D01*
X119132771Y-104419705D01*
X119203578Y-104414522D01*
X119221229Y-104419705D01*
X119259289Y-104433973D01*
X119259291Y-104433973D01*
X119266684Y-104436745D01*
X119274532Y-104437598D01*
X119274534Y-104437598D01*
X119325469Y-104443131D01*
X119328866Y-104443500D01*
X119825134Y-104443500D01*
X119828531Y-104443131D01*
X119879466Y-104437598D01*
X119879468Y-104437598D01*
X119887316Y-104436745D01*
X119894709Y-104433973D01*
X119894711Y-104433973D01*
X119932771Y-104419705D01*
X120003578Y-104414522D01*
X120021229Y-104419705D01*
X120059289Y-104433973D01*
X120059291Y-104433973D01*
X120066684Y-104436745D01*
X120074532Y-104437598D01*
X120074534Y-104437598D01*
X120125469Y-104443131D01*
X120128866Y-104443500D01*
X120625134Y-104443500D01*
X120628531Y-104443131D01*
X120679466Y-104437598D01*
X120679468Y-104437598D01*
X120687316Y-104436745D01*
X120694709Y-104433973D01*
X120694711Y-104433973D01*
X120732771Y-104419705D01*
X120803578Y-104414522D01*
X120821229Y-104419705D01*
X120859289Y-104433973D01*
X120859291Y-104433973D01*
X120866684Y-104436745D01*
X120874532Y-104437598D01*
X120874534Y-104437598D01*
X120925469Y-104443131D01*
X120928866Y-104443500D01*
X121425134Y-104443500D01*
X121428531Y-104443131D01*
X121479466Y-104437598D01*
X121479468Y-104437598D01*
X121487316Y-104436745D01*
X121494709Y-104433973D01*
X121494711Y-104433973D01*
X121532771Y-104419705D01*
X121603578Y-104414522D01*
X121621229Y-104419705D01*
X121659289Y-104433973D01*
X121659291Y-104433973D01*
X121666684Y-104436745D01*
X121674532Y-104437598D01*
X121674534Y-104437598D01*
X121725469Y-104443131D01*
X121728866Y-104443500D01*
X122225134Y-104443500D01*
X122287316Y-104436745D01*
X122423705Y-104385615D01*
X122540261Y-104298261D01*
X122627615Y-104181705D01*
X122632558Y-104168521D01*
X122659018Y-104097938D01*
X122701659Y-104041173D01*
X122768221Y-104016473D01*
X122837570Y-104031680D01*
G37*
%TD.AperFunction*%
%TD*%
M02*
